<svg xmlns="http://www.w3.org/2000/svg" viewBox="0 0 172.19 292.93"><defs><style>.cls-1{fill:#e8a52a;}.cls-2{fill:#c6daef;}.cls-3{fill:#c68a2b;}.cls-4{fill:#eaceb1;}.cls-5{fill:#c9b099;}.cls-6{fill:#e59425;}.cls-7,.cls-9{fill:#fff;}.cls-7{opacity:0.33;}.cls-8{fill:#61473d;}.cls-10{fill:#434967;}.cls-11{fill:#493c36;}.cls-12{fill:#d09129;}.cls-13{fill:#595f8a;}.cls-14{fill:#4e5578;}.cls-15{fill:#6c76a6;}.cls-16{fill:#98a9b6;}</style></defs><g id="Layer_2" data-name="Layer 2"><g id="Layer_1-2" data-name="Layer 1"><path class="cls-1" d="M91.49,90.57c3,4.73,21.11,31,31.47,31s2.13-17.4.55-21.59c-3.13-8.3-5.3-17.1-9.38-25-1.88-3.63-5.41-6.67-8.73-9.07A19.47,19.47,0,0,0,98.64,63c-3.84-1-8.12-1.12-11.52.9C77.91,69.36,87.65,84.42,91.49,90.57Z"/><path class="cls-2" d="M113.41,97A32.55,32.55,0,0,0,119.24,87c.7,3,2.76,5.69,2.72,8.77a10.2,10.2,0,0,1-1,3.82,21.48,21.48,0,0,1-13.49,11.94c-.28.08-5.84-4.36-7.11-8.36C102.59,104.62,110.85,99.85,113.41,97Z"/><path class="cls-3" d="M51.88,26.15c2,3,5.87,4.19,9.47,4.67,6.48.86,13.06.06,19.55-.74a58.94,58.94,0,0,0,10-1.81,6.45,6.45,0,0,0,3.19-1.79,2.43,2.43,0,0,0,.58-1.38,3.19,3.19,0,0,0-1.21-2.27A20.16,20.16,0,0,0,87,19.12a45.5,45.5,0,0,0-14-3.44,26.89,26.89,0,0,0-14,2.69,22.4,22.4,0,0,0-5.17,3.73C52.6,23.31,50.55,24.19,51.88,26.15Z"/><path class="cls-4" d="M63.7,59.26c6.4,1.3,13,.68,19.53.06a149.66,149.66,0,0,1-1-18.33A1.65,1.65,0,0,0,82,39.85a1.61,1.61,0,0,0-.66-.41,24,24,0,0,0-15.9-.57c-1.45.46-3.09,1.27-2.94,3s1.09,3.56,1.34,5.3C64,48.15,64.32,59.38,63.7,59.26Z"/><path class="cls-5" d="M63.69,45.48a8.27,8.27,0,0,0,.51,2.1,5.61,5.61,0,0,0,1.12,1.58,11.79,11.79,0,0,0,7.61,3.27A14,14,0,0,0,80.43,51a4.1,4.1,0,0,0,1.51-1.19,4.74,4.74,0,0,0,.57-2.74c0-1.76,0-3.52,0-5.28s0-3.9-1.13-5.42a5.77,5.77,0,0,0-2.85-2,14.26,14.26,0,0,0-3.44-.6,16.71,16.71,0,0,0-7.11.65,7.43,7.43,0,0,0-4.4,4.07,5.49,5.49,0,0,0-.54,2.8C63.27,42.71,63.49,44.1,63.69,45.48Z"/><path class="cls-4" d="M88.66,15.29C85.8,8.05,79.51,6,73,6.29c-6.48-.31-12.77,1.76-15.63,9-2.11,5.33-1.79,11.43-.79,17.13.36,2,3.39,11.75,10.8,14.73,2.3.92,8.65,1.22,10.94.29,7.42-3,10.74-13,11.09-15C90.44,26.72,90.76,20.62,88.66,15.29Z"/><path class="cls-4" d="M53.86,26.49a2.86,2.86,0,0,0,.25.8q1.24,3,2.51,5.91a4.54,4.54,0,0,0,.85,1.48,5.9,5.9,0,0,0,.47-2A24,24,0,0,0,58,29.37a8.34,8.34,0,0,0-.44-2.48c-.29-.75-1-1.82-1.82-2A1.57,1.57,0,0,0,53.86,26.49Z"/><path class="cls-4" d="M92.62,26.6a3.37,3.37,0,0,1-.32.85l-3.09,6.26a5.23,5.23,0,0,1-1,1.56A6.29,6.29,0,0,1,87.81,33,25.08,25.08,0,0,1,88,29.46a8.68,8.68,0,0,1,.63-2.66c.36-.8,1.15-1.91,2.1-2.06A1.71,1.71,0,0,1,92.62,26.6Z"/><path class="cls-5" d="M56.71,28.81c.57-1.56,2.14-2.5,3.66-3.17,4.73-2.1,10-2.73,15.12-3,4.07-.23,8.25-.24,12.1,1.11a3.64,3.64,0,0,1,2.58,2.15c.13-2.4.24-4.92-.78-7.1A11.18,11.18,0,0,0,86.24,15,21.89,21.89,0,0,0,61.31,13.1a14.08,14.08,0,0,0-3.79,3.11c-1.22,1.51-2.46,3.82-2,5.77a22.26,22.26,0,0,1,.35,3.18c.07.63.18,1.27.31,1.89C56.3,27.41,56.82,28.51,56.71,28.81Z"/><path class="cls-1" d="M92.2,21.06a4.3,4.3,0,0,1-.45-2.15A21.39,21.39,0,0,0,89,8.58C86,3.51,79.6.1,73,0h0C66.45.1,60.09,3.51,57,8.58a21.39,21.39,0,0,0-2.72,10.33,4.3,4.3,0,0,1-.46,2.15c-.75,1.21-2.66,1.8-2.42,3.3,3.23-.6,6.27-2,9.73-2.55,3.92-.6,7.89-1,11.87-1.21q6,.31,11.87,1.21c3.46.52,6.49,2,9.72,2.55C94.86,22.86,93,22.27,92.2,21.06Z"/><path class="cls-6" d="M92.2,21a4.26,4.26,0,0,1-.45-2.14A21.43,21.43,0,0,0,89,8.53a15.14,15.14,0,0,0-1.72-2.3,13.28,13.28,0,0,1-.26,4.9,7.92,7.92,0,0,1-1.41,3.24,8.17,8.17,0,0,1-3.87,2.35c1.38.69,3.08.26,4.55.75a7.81,7.81,0,0,1,1.74,1l3.42,2.32a4.31,4.31,0,0,1,1.13,1,2.14,2.14,0,0,1,.09,2.12c.64.17,1.28.33,1.92.45C94.86,22.81,93,22.22,92.2,21Z"/><path class="cls-6" d="M78.12,3.07A4.88,4.88,0,0,1,79,1a20.63,20.63,0,0,0-4.35-.9,8.67,8.67,0,0,1,.14,2.4l-.45,5.72c-.17,2.11-.33,4.22-.5,6.33A3.24,3.24,0,0,0,74,16.05,95.1,95.1,0,0,0,78.12,3.07Z"/><path class="cls-7" d="M58.19,9.91A3.33,3.33,0,0,0,58,11.64a1.52,1.52,0,0,0,1.1,1.23c.9.17,1.63-.7,2.09-1.49,1-1.77,1.91-3.68,3.42-5.05,1-.87,2.19-1.55,2.66-2.75a.45.45,0,0,0,0-.28c-.05-.13-.21-.18-.35-.21C63.37,2.44,59.26,7,58.19,9.91Z"/><path class="cls-5" d="M75.09,33.73a1,1,0,0,1,0,.58,1,1,0,0,1-.36.39,5.71,5.71,0,0,1-2.6,1,3.4,3.4,0,0,0,.47,2L77.15,35a27.45,27.45,0,0,1-2-12.54,15.37,15.37,0,0,0-.89,4.73A36.53,36.53,0,0,0,75.09,33.73Z"/><path class="cls-8" d="M62.59,24.08a12.85,12.85,0,0,1,6.54-.35.57.57,0,0,0,.29,0,.39.39,0,0,0,.22-.43.82.82,0,0,0-.29-.42,3.08,3.08,0,0,0-1.3-.59,11.82,11.82,0,0,0-6.59.21c-.6.2-2.12,1-1.61,2C60.23,25.16,62.05,24.25,62.59,24.08Z"/><path class="cls-8" d="M83.14,23.55a12.87,12.87,0,0,0-6.55.21.59.59,0,0,1-.29,0,.37.37,0,0,1-.25-.4.72.72,0,0,1,.24-.45,3.16,3.16,0,0,1,1.25-.7,11.8,11.8,0,0,1,6.58-.36c.62.15,2.2.86,1.78,1.81C85.58,24.42,83.68,23.67,83.14,23.55Z"/><path class="cls-9" d="M68.32,26.33c.4.2.83.57.72,1a.91.91,0,0,1-.42.49,4.36,4.36,0,0,1-1.46.5,16.17,16.17,0,0,1-3.8.3,4.68,4.68,0,0,1-1.58-.27c-.69-.27-1-1-.47-1.55a4.87,4.87,0,0,1,2.07-.93A7.15,7.15,0,0,1,68.32,26.33Z"/><path class="cls-8" d="M66.57,28.42a3,3,0,0,0,.58-1.11A2.08,2.08,0,0,0,67,25.86a7.24,7.24,0,0,0-3.67,0l-.22.06a2.8,2.8,0,0,0-.2,1.67,2.34,2.34,0,0,0,.54,1A15.39,15.39,0,0,0,66.57,28.42Z"/><path class="cls-9" d="M78.87,26.76c-.39.2-.82.58-.7,1a.93.93,0,0,0,.44.48,4.37,4.37,0,0,0,1.47.47,16.12,16.12,0,0,0,3.8.21,5,5,0,0,0,1.58-.31c.67-.29,1-1,.42-1.56a4.71,4.71,0,0,0-2.08-.88A7.08,7.08,0,0,0,78.87,26.76Z"/><path class="cls-8" d="M80.66,28.8a2.9,2.9,0,0,1-.59-1.09,2.07,2.07,0,0,1,.09-1.45,7.17,7.17,0,0,1,3.68-.08l.21.05a2.73,2.73,0,0,1,.25,1.66,2.33,2.33,0,0,1-.52,1A15.5,15.5,0,0,1,80.66,28.8Z"/><path class="cls-8" d="M69,40.23a20.22,20.22,0,0,0,4.8,1.08,11.09,11.09,0,0,0,4.8-1.08s-2.24,3.07-4.34,3.07C71.16,43.3,69,40.23,69,40.23Z"/><path class="cls-5" d="M55.76,26a.63.63,0,0,0-.66.11.81.81,0,0,0-.16.27A2.36,2.36,0,0,0,55.12,28a37.7,37.7,0,0,0,1.6,3.69c0-1-.14-2.1-.22-3.14C56.45,27.72,56.7,26.34,55.76,26Z"/><path class="cls-5" d="M89.71,31a14.9,14.9,0,0,0,1.58-4c.12-.5-.07-1-.65-.76s-.43.51-.46.92c-.05.65-.09,1.3-.17,1.95A6.17,6.17,0,0,1,89.71,31Z"/><path class="cls-10" d="M127.73,181.55c-1.65-1-3.39-1.2-6.16-.9a8.64,8.64,0,0,0-2.09.29,2.76,2.76,0,0,0-1.59,1.33,3.59,3.59,0,0,0-.12,2.13,5.22,5.22,0,0,0,1.4,3,6,6,0,0,0,2.29,1.22,5.64,5.64,0,0,0,2.62.4,5.7,5.7,0,0,0,2.51-1.24c.89-.68,2.67-1.69,2.39-3S128.92,182.26,127.73,181.55Z"/><path class="cls-10" d="M42.52,194.08c1.06-1.61,2.53-2.55,5.15-3.5a8.91,8.91,0,0,1,2-.65,2.75,2.75,0,0,1,2,.51,3.56,3.56,0,0,1,1,1.86,5.35,5.35,0,0,1,.05,3.31,6.14,6.14,0,0,1-1.53,2.09,5.69,5.69,0,0,1-2.2,1.5,5.73,5.73,0,0,1-2.79,0c-1.1-.22-3.14-.36-3.45-1.64S41.76,195.24,42.52,194.08Z"/><path class="cls-11" d="M167.45,277.5a8.2,8.2,0,0,1,3.45,1.86c1.53,1.63,1.38,4.09,1.13,6.27a2.19,2.19,0,0,1-.59,1.52,2.54,2.54,0,0,1-1.52.37l-16.23.46c-2.65.08-5.69,0-7.37-1.93,0,.64-.06,1.27-.08,1.91a40,40,0,0,1-7.83.11,33.2,33.2,0,0,1-1-5.31c-.07-3.41-.08-7,1.81-10a10,10,0,0,1,8.52-4.35c4.1.12,4.21,3.24,6.75,5.67S164,276.3,167.45,277.5Z"/><path class="cls-11" d="M51.43,279.23a8.24,8.24,0,0,0-3.4,1.93c-1.5,1.67-1.3,4.12-1,6.29a2.18,2.18,0,0,0,.63,1.51,2.47,2.47,0,0,0,1.53.34l16.23.12c2.65,0,5.69-.12,7.33-2.08l.12,1.9a39.63,39.63,0,0,0,7.83-.05,33.48,33.48,0,0,0,.9-5.33c0-3.41-.07-7-2-9.92A10,10,0,0,0,71,269.77c-4.1.21-4.15,3.33-6.63,5.81S54.87,278,51.43,279.23Z"/><path class="cls-1" d="M45.57,76.35c-3.84,19,4.3,61.14,9.76,63.22,5.88,2.23,34.18,4.72,38.84,1.5,7.56-5.24,9.18-45.29,8.67-60-.25-7.27,1.51-17.13-6.24-21.68-2.32-1.36-7.07-2.35-9.81-3-4.66-1.08-11.61.52-16.47.31-8.9-.38-13.56-1-18.6,5C48.05,66.16,46.86,71.28,45.57,76.35Z"/><path class="cls-1" d="M79.76,169.83c6.64-1,12.45-5.46,16-11.14s5.13-13.15,2.55-19.43c-6.24-15.16-34.39-23.79-44.32-7.7S61.67,172.48,79.76,169.83Z"/><path class="cls-1" d="M81.88,196.93c.4,9.47.31,19.83-6.06,27.14-3.52,4-10.24,6.59-14.6,3.31-3.78-2.84-3.59-8.15-3.39-12.67.77-17.56-3.58-34.94-6.2-52.36-.91-6-1.43-12.79,2.5-17.62,7.24-8.91,20.34-3.92,22.75,5.42C80.77,165.23,81.22,181.52,81.88,196.93Z"/><path class="cls-1" d="M119.61,187.06c3.84,8.67,7.56,18.34,4.3,27.48-1.8,5-7.11,9.88-12.37,8.43-4.56-1.26-6.32-6.27-7.8-10.55C98,195.79,87.62,181.22,78.8,166c-3.06-5.29-6-11.38-4.13-17.32,3.48-10.94,17.49-11.09,23.16-3.28C107,158,113.35,173,119.61,187.06Z"/><path class="cls-1" d="M59.39,65.63c-4.8-9.57-13.69-6.74-24.84-.51C29.68,67.84,15.75,75.49,6.1,88.83c-7.74,10.71-6.62,14.45-4.68,18.52a28.25,28.25,0,0,0,10.4,12,95.18,95.18,0,0,0,26.6,11.53c-.36-2.33,1.2-4.86.16-7a6.55,6.55,0,0,0-2-2.07,97.44,97.44,0,0,1-18.84-19.69,20.56,20.56,0,0,0,3.2-.73A259.4,259.4,0,0,0,46.4,91.79c3.76-1.62,7-4.92,9.66-8.06a19.39,19.39,0,0,0,3.41-6.54C60.7,73.43,61.17,69.17,59.39,65.63Z"/><path class="cls-12" d="M54.78,70.13c-.64,1.62,1.4,3.28.39,4.7a33.92,33.92,0,0,1-9.3,8.52A54.15,54.15,0,0,1,14.2,92q2.06,2.69,4.1,5.38A26.19,26.19,0,0,1,10,93.8a21.42,21.42,0,0,0,6.49,10.39,40.89,40.89,0,0,0,6.92,5q-3-3.43-5.65-7.13a20.56,20.56,0,0,0,3.2-.73A259.4,259.4,0,0,0,46.4,91.79c3.76-1.62,7-4.92,9.66-8.06C57.65,81.83,55.38,68.62,54.78,70.13Z"/><path class="cls-2" d="M30.79,86.79a34.2,34.2,0,0,1,1.39,10.9c2-.58,4-1.17,5.87-1.94,1.42-.58,5.41-2.32,6.09-3,.15-.14-3.43-14-6.91-19.8a17,17,0,0,0-4.72-5.47,2.17,2.17,0,0,0-.94-.42,2.24,2.24,0,0,0-1,.19,18,18,0,0,0-5.33,3.09c-.71.6-1.62,1.09-1.3,2s1.44,1.81,1.94,2.58A39.89,39.89,0,0,1,30.79,86.79Z"/><path class="cls-13" d="M61,274.43a7,7,0,0,0,1.54,3.69,6.32,6.32,0,0,0,3.9,1.43,41.5,41.5,0,0,0,14.52-1,873.15,873.15,0,0,0,2.92-98.52c8.8,28.76,23.81,55.22,40.15,80.47,3.36,5.18,6.89,10.45,11.93,14s12,5.11,17.45,2.26a2.52,2.52,0,0,0,1.2-1.05,2.77,2.77,0,0,0,0-1.82c-6.09-24.74-16.59-45-26-68.7-3.44-8.68-14.15-41-16.66-47.1a109.7,109.7,0,0,1-7.88-45.41l1.11-37.83a75.94,75.94,0,0,0-1-9.83s-6.85-6.77-10.86-7c.42,14.12-1.3,25.85-10.06,30.24-11.1,5.57-24.41-2.78-25.31-8.75-2.24-15,.88-22.56.45-23S47.51,58.44,46.8,59.84c-3,5.83-2.34,20-2.47,26.54q-.44,22.86.32,45.74a879.4,879.4,0,0,0,7.77,91.11Q56,249,61,274.43Z"/><path class="cls-14" d="M82.52,172.79l1.68,25.14q0-8.91-.29-17.82c8.79,28.77,23.81,55.23,40.15,80.48,3.36,5.18,6.89,10.44,11.93,14s12,5.1,17.45,2.25a2.52,2.52,0,0,0,1.2-1.05,2.77,2.77,0,0,0,0-1.82c-.94-3.81-2-7.51-3.11-11.14C121.5,239.86,99,207.14,82.52,172.79Z"/><path class="cls-14" d="M75.66,279.59a17.12,17.12,0,0,1-1.07-1.35c-2.8-3.95-4.14-8.73-5.29-13.44a237,237,0,0,1-4.83-85.73c.65-5.08,1.52-10.29,4.24-14.61,4.13-6.54,11.69-9.89,18.81-12.88l18.8-7.91c-13.11,1-27.1,1.87-38.57-4.55a38.59,38.59,0,0,1-11.4-10c-5.83-7.44-9.3-16.39-12.18-25.31q0,14.16.48,28.31a879.57,879.57,0,0,0,7.76,91.12Q56,249,61,274.48a7,7,0,0,0,1.54,3.69,6.44,6.44,0,0,0,3.9,1.43A41.53,41.53,0,0,0,75.66,279.59Z"/><path class="cls-11" d="M44.84,137.42s27.32,4.93,42.8,3.06,17.66-6.57,17.66-6.57l1.51,9.31A62.84,62.84,0,0,1,92,148.7c-26.28,5.4-46.75-2.11-46.75-2.11Z"/><path class="cls-15" d="M52.57,193q1.57,10.54,3.14,21.1c.64,4.31,1.13,9.21-1.7,12.52a1.4,1.4,0,0,1-.57.46c-.67.2-1.21-.54-1.5-1.17a119.06,119.06,0,0,1-7.47-21.14c-.42-1.67-2.38-9.64-2.38-9.64s4.41-.1,5.41-.29A17.62,17.62,0,0,0,52.57,193Z"/><path class="cls-15" d="M118.2,184.93q3.18,10.19,6.37,20.36c1.3,4.16,3,8.78,7,10.53a1.39,1.39,0,0,0,.71.16c.69-.1.86-1,.84-1.7A118.43,118.43,0,0,0,130.62,192c-.35-1.68-2.05-9.71-2.05-9.71s-4,1.83-5,2.09A17.09,17.09,0,0,1,118.2,184.93Z"/><path class="cls-1" d="M127.89,124.41c-2,5-7.22,8-12.22,10.09-9,3.76-16,5.26-25.7,6.13.74-2.24-2.82-4.1-1.44-6a6.34,6.34,0,0,1,2.27-1.71,97.64,97.64,0,0,0,23.62-18.19,31.6,31.6,0,0,1,5.1-4.72c3.66-2.42,6.68-2.46,7.93,1.8C128.65,115.87,129.53,120.32,127.89,124.41Z"/><path class="cls-2" d="M68.22,56.05a30.71,30.71,0,0,0,5.53.62,24.22,24.22,0,0,0-4.84,7.78c-4.73-2-9.6-4-13.16-7.72.17.17,3.07-1.24,3.41-1.38l3.53-1.52c.59-.27.7-.4,1.21-.09s.77.73,1.17,1A8.21,8.21,0,0,0,68.22,56.05Z"/><path class="cls-2" d="M78.33,56.05a43.48,43.48,0,0,1-4.82.59,21.86,21.86,0,0,1,4,7.73c4.79-1.83,11-3,14.71-6.61-.17.17-4.36-2.06-4.7-2.21-1.16-.53-2.33-1.07-3.48-1.62-.59-.28-.69-.42-1.21-.13s-.79.71-1.2,1A9.51,9.51,0,0,1,78.33,56.05Z"/><path class="cls-16" d="M78.49,128.94l-8.92-2.14.58-2.39-2.59-.62L67,126.18l-9.83-2.37a3.61,3.61,0,0,0-4.35,2.67l-.95,4a3.59,3.59,0,0,0,2.66,4.34l9.83,2.37-.51,2.12,2.59.62.51-2.12,8.92,2.14a3.6,3.6,0,0,0,4.35-2.66l1-4A3.6,3.6,0,0,0,78.49,128.94Z"/><path class="cls-2" d="M93,134.12a10.35,10.35,0,0,1,3,2.74,5.57,5.57,0,0,1,1.07,3.87,8.3,8.3,0,0,1,3.15-.82l4.49-.58a2,2,0,0,0,.86-.25,1.6,1.6,0,0,0,.56-.83c.64-1.82-.12-3.85-1.22-5.43A13.47,13.47,0,0,0,98.81,128a2.43,2.43,0,0,0-1.09-.23,2.83,2.83,0,0,0-1,.34q-4.38,2.2-8.58,4.73c.6.3,1.42-.07,2.09.07A8.38,8.38,0,0,1,93,134.12Z"/><path class="cls-16" d="M48.79,127.61C38.37,128.7,30.84,137.47,28,147.1c-1.71,5.91-1.93,12.17-1.72,18.28.21,6.27.68,12.53,1,18.79.76,12.77,1.55,25.54,2.25,38.31.67,12.33,1.06,25-1.16,37.07-1,5.56-2.45,10.95-5.31,15.69-.35.58-.72,1.15-1.12,1.71a12.16,12.16,0,0,1-1,1.27,23.47,23.47,0,0,1-2.66,2.71,20,20,0,0,1-5.79,3.45,15.77,15.77,0,0,1-1.62.48c-.32.08-.63.14-1,.2l-.36.06c-.45.08.57-.06-.2,0a2.48,2.48,0,0,0-2.41,2.42c.05,1.18,1.07,2.57,2.41,2.41a23,23,0,0,0,14-7.25,36.16,36.16,0,0,0,8-14.92,90.24,90.24,0,0,0,3.06-18.33,170,170,0,0,0,.26-18.75c-.43-12.71-1.38-25.42-2.13-38.12q-.55-9.62-1.13-19.22c-.35-6-.78-12.08-.18-18.1a38.39,38.39,0,0,1,1.8-8.4c.18-.54.38-1.08.6-1.6-.15.36.12-.27.17-.38.14-.31.29-.62.44-.93a28.74,28.74,0,0,1,1.74-3c.17-.26.34-.51.52-.76l.36-.5c-.07.1.3-.37.39-.47.22-.27.44-.53.67-.78A23.5,23.5,0,0,1,40.6,136l.35-.28,0,0,.73-.52c.49-.34,1-.65,1.51-.95s1-.51,1.49-.75c0,0,.36-.16.12-.06s.17-.06.22-.08c.31-.12.63-.24,1-.34.49-.16,1-.29,1.5-.41l.88-.17.13,0,.35,0A2.46,2.46,0,0,0,51.2,130a2.43,2.43,0,0,0-2.41-2.42Z"/><path class="cls-16" d="M74.82,135.8A18.47,18.47,0,0,0,79,137.72l1.86.66a12.29,12.29,0,0,1,1.62.74,17.39,17.39,0,0,1,5.5,4.67l.3.38c.26.32-.17-.23.08.09l.51.7c.4.57.78,1.16,1.15,1.75a38,38,0,0,1,1.84,3.38,51.91,51.91,0,0,1,3.1,8,92.07,92.07,0,0,1,3.21,17.23c.64,6.26,1,12.55,1.26,18.83.56,12.82.7,25.65,1.38,38.47.35,6.41.83,12.82,1.56,19.2a178.43,178.43,0,0,0,3.1,19.22c1.29,5.61,3.59,10.85,7.85,14.83a25.72,25.72,0,0,0,13.55,6.7,26.87,26.87,0,0,0,4.1.32,2.42,2.42,0,0,0,0-4.83c-.62,0-1.23,0-1.85-.05l-.8-.07-.25,0-.37-.06a22.91,22.91,0,0,1-3.47-.88l-.87-.31-.38-.16c-.6-.26-1.19-.54-1.77-.85a25.76,25.76,0,0,1-3-1.93c.31.23-.35-.28-.42-.34l-.7-.61c-.46-.41-.9-.84-1.32-1.28s-.78-.86-1.15-1.31c0,0-.33-.41-.17-.2s-.08-.12-.09-.13c-.2-.28-.4-.56-.59-.85a23.62,23.62,0,0,1-3.17-7.42,134.33,134.33,0,0,1-3.21-18.26c-.77-6.32-1.28-12.67-1.64-19-.73-12.76-.88-25.55-1.4-38.32-.26-6.28-.59-12.56-1.16-18.82a110.1,110.1,0,0,0-2.91-18,53,53,0,0,0-6.74-15.91,26.86,26.86,0,0,0-5.31-6,24.52,24.52,0,0,0-7.56-4,12.69,12.69,0,0,1-3.34-1.56,2.43,2.43,0,0,0-3.3.86,2.45,2.45,0,0,0,.86,3.3Z"/><path class="cls-4" d="M86.56,134.15c-3.21,1.6-6.51,3.75-7.72,7.14-.58,1.62-.47,3.73,1,4.71a3.31,3.31,0,0,1,.93.72,4.49,4.49,0,0,0,5.09,1.76c.56-.2,1.1.29,1.63.57a3.4,3.4,0,0,0,3.7-.83,14.69,14.69,0,0,0,2.29-3.31,19.4,19.4,0,0,1,3-3.82,18.29,18.29,0,0,0,3.26-3.5c.81-1.38,1-3.31-.11-4.47s-4.11-1.52-5.67-1.7C91.65,131.16,88.58,133.14,86.56,134.15Z"/><path class="cls-4" d="M61,122.62c1.84.48,4.31,1.28,4.84,2.79,0,1.14-2.68.57-4,.5a3.39,3.39,0,0,1,2.27.48c.61.5.64,1.69-.11,1.94s-1.42-.47-2.09-.23c.57.27,1.34.63,1.07,1.46-.09.86-6.68.62-9.63,2a1.37,1.37,0,0,0-.42,2.19,2.55,2.55,0,0,0,.53.51,22.47,22.47,0,0,0,2.68,1.36,2.24,2.24,0,0,1-1.82.55A33,33,0,0,1,38,131.52a7.72,7.72,0,0,1-2.57-2.17,3.75,3.75,0,0,1-.21-3.93c1.21-2,2.52-1,4.14-.81,2.1.23,5-1.24,7-1.7C51.18,121.84,56.22,121.37,61,122.62Z"/><path class="cls-2" d="M27.87,127.57c3.61,2.34,7.3,4.73,11.47,5.82a20.18,20.18,0,0,0,1.84-5.71,5.94,5.94,0,0,0-.55-4.3,6.51,6.51,0,0,0-1.56-1.49c-1.47-1.14-3-2.24-4.47-3.33-1.23-.88-3-2.65-4.43-3A10.6,10.6,0,0,1,31,122C30.86,122.61,28.73,128.12,27.87,127.57Z"/><path class="cls-14" d="M73.75,97.47a45.35,45.35,0,0,1-16.83-2.42l.48,7.59c.28,4.39.65,9.06,3.26,12.61,2.48,3.37,6.62,5.17,10.74,5.88.78.13,1.56.23,2.35.3s1.57-.17,2.35-.3c4.12-.71,8.26-2.51,10.74-5.88,2.61-3.55,3-8.22,3.26-12.61l.48-7.59A45.35,45.35,0,0,1,73.75,97.47Z"/><path class="cls-15" d="M73.75,95.26a45.14,45.14,0,0,1-16.83-2.41l.48,7.58c.28,4.4.65,9.06,3.26,12.61,2.48,3.38,6.62,5.18,10.74,5.89.78.13,1.56.23,2.35.29s1.57-.16,2.35-.29c4.12-.71,8.26-2.51,10.74-5.89,2.61-3.55,3-8.21,3.26-12.61l.48-7.58A45.14,45.14,0,0,1,73.75,95.26Z"/></g></g></svg>