<svg xmlns="http://www.w3.org/2000/svg" viewBox="0 0 497.6 281.53"><defs><style>.cls-1{fill:#eaf3fb;}.cls-2{fill:#bed7f0;}.cls-3{fill:#dee9f7;}.cls-4{fill:#b4d3ef;}.cls-5{fill:#bcceea;}.cls-6{fill:#b0c0e3;}.cls-7{fill:#d2def2;}.cls-8{fill:#c1d2ec;}.cls-9{fill:#85a1d3;}.cls-10{fill:#e86524;}.cls-11{fill:#f79134;}.cls-12{fill:#f47621;}.cls-13{fill:#f8cba6;}.cls-14{fill:#1a3763;}.cls-15{fill:#fedcbb;}.cls-16{fill:#234f9d;}.cls-17{fill:#faab77;}.cls-18{fill:#f89d5f;}.cls-19{fill:#8facd9;}.cls-20{fill:#e15f25;}.cls-21{fill:#ffecda;}.cls-22{fill:#6b97cf;}.cls-23{fill:#5689c7;}.cls-24{fill:#fad1b5;}.cls-25{fill:#254790;}.cls-26{fill:#2e3555;}</style></defs><g id="Layer_2" data-name="Layer 2"><g id="Layer_1-2" data-name="Layer 1"><path class="cls-1" d="M466.19,281.14,37.64,281s-58.29-71-29.8-144c18.57-47.61,88.23-73.7,127.54-47.61,16.74,11.11,70.45.37,99.13-45.63A84.31,84.31,0,0,1,248.6,26.63C262.36,13.77,280,5.75,299.2,2.18c1.49-.28,3-.53,4.49-.75h0Q309.86.5,316.17.18c68.61-3.56,147,44.68,136.5,128.46-.05.43-.11.86-.17,1.29-.22,1.61-.47,3.23-.75,4.87-.63,3.64-1.06,7.45-2.4,11.1C421.6,221.45,501.5,214.74,466.19,281.14Z"/><rect class="cls-2" x="345.43" y="31.15" width="35.06" height="34.01" rx="10.15"/><rect class="cls-3" x="346.95" y="32.63" width="32.02" height="31.06" rx="9.27"/><path class="cls-4" d="M362.23,35.73A.73.73,0,0,1,363,35a.73.73,0,0,1,0,1.46A.73.73,0,0,1,362.23,35.73Z"/><path class="cls-4" d="M368.09,36.76a.73.73,0,0,1,1-.28.71.71,0,0,1,.28,1,.73.73,0,0,1-1.27-.7Z"/><path class="cls-4" d="M373.11,40.75A.73.73,0,1,1,373.9,42a.73.73,0,0,1-.79-1.22Z"/><path class="cls-4" d="M375.6,46.92a.73.73,0,0,1,0,1.45.73.73,0,1,1,0-1.45Z"/><circle class="cls-4" cx="373.82" cy="54.6" r="0.73"/><path class="cls-4" d="M369.77,58.65a.74.74,0,0,1,0,1,.72.72,0,0,1-1,0,.73.73,0,0,1,1-1Z"/><path class="cls-4" d="M362.23,61a.73.73,0,0,1,.73-.72.72.72,0,0,1,.72.72.73.73,0,0,1-.72.73A.73.73,0,0,1,362.23,61Z"/><path class="cls-4" d="M357.8,36.76a.73.73,0,1,0-.28,1A.71.71,0,0,0,357.8,36.76Z"/><path class="cls-4" d="M352.78,40.75a.73.73,0,0,0-1,.21.73.73,0,1,0,1.22.79A.72.72,0,0,0,352.78,40.75Z"/><path class="cls-4" d="M350.3,46.92a.73.73,0,1,0,.72.72A.72.72,0,0,0,350.3,46.92Z"/><path class="cls-4" d="M351.57,54.08a.72.72,0,1,0,1,0A.72.72,0,0,0,351.57,54.08Z"/><path class="cls-4" d="M356.13,58.65a.72.72,0,0,0,0,1,.71.71,0,0,0,1,0,.72.72,0,0,0-1-1Z"/><path class="cls-4" d="M362.76,47.64a.73.73,0,1,1,.73.73A.73.73,0,0,1,362.76,47.64Z"/><rect class="cls-4" x="363.39" y="38.57" width="0.2" height="9.07"/><rect class="cls-4" x="362.75" y="45.45" width="6.11" height="0.59" transform="matrix(0.79, -0.62, 0.62, 0.79, 49.81, 235.62)"/><path class="cls-5" d="M421.33,232s-7.61-8.88-.47-14.53c0,0,5.22-3.15,9.47-2.9,0,0-6,10.11-4.08,11.12s5.91-11.75,5.91-11.75,11.88-1.15,15.7.68c0,0-10.16,8.31-8,8.81S453,215.77,453,215.77s11.05,1.88,10.46,8.62-4.4,8.82-6.07,8.64-11.47-3.91-11.68-2.54,5.68,5.85,9.81,6.06c0,0-7.79,8.6-13,6.12s-5.62-6.42-8.85-7.89-6-1.47-4.65,0,7.17,3,9,6.23,3.5,5.47-1.86,4.67-14.07-4.73-14.45-9.22Z"/><path class="cls-5" d="M458,224.57s-30-1.16-36.65,7.43a21.77,21.77,0,0,1-6,8.39l-.7,1.92s5.2-5.49,7.06-5.82C421.71,236.49,418.8,225.85,458,224.57Z"/><path class="cls-5" d="M415.35,240.39a18.87,18.87,0,0,0-6.89,13.28l1.17.1s2.06-8.8,5.78-12.24S415.35,240.39,415.35,240.39Z"/><path class="cls-6" d="M394.71,220.83s12.11-6.78,6.46-16c0,0-4.52-5.65-9.37-7.11,0,0,2.58,13.73,0,14.05s-1.78-15.5-1.78-15.5-12.75-6.14-17.76-5.65c0,0,7.91,13.4,5.33,13.08s-11.47-13.89-11.47-13.89-13.08-2.42-15.18,5.33,1.29,11.63,3.23,12.11,14.38.33,14.05,1.94-8.72,4.2-13.4,2.75c0,0,5.17,12.75,11.95,12.11s8.88-4.85,13.08-5.17,7.27.81,5.17,1.94-9.21.37-12.6,3.25-6.14,4.66.16,5.95,17.61.49,19.87-4.36Z"/><path class="cls-6" d="M356.92,197.57s33.91,11,37.79,23.26a25.79,25.79,0,0,0,3.23,11.79V235s-3.56-8.24-5.49-9.37C392.45,225.67,400,215,356.92,197.57Z"/><path class="cls-6" d="M397.94,232.62a22.37,22.37,0,0,1,2.25,17.61l-1.35-.36s1.31-10.65-1.43-16S397.94,232.62,397.94,232.62Z"/><path class="cls-7" d="M414,211.47s-16-8.94-8.52-21.07c0,0,6-7.45,12.35-9.37,0,0-3.41,18.1,0,18.52s2.34-20.43,2.34-20.43S437,171,443.57,171.67c0,0-10.43,17.66-7,17.24s15.12-18.31,15.12-18.31,17.24-3.19,20,7-1.71,15.32-4.26,16-19,.43-18.52,2.56,11.49,5.53,17.67,3.62c0,0-6.81,16.81-15.76,16s-11.7-6.38-17.24-6.81-9.58,1.06-6.81,2.55,12.13.49,16.6,4.29,8.09,6.15-.21,7.85-23.2.64-26.18-5.75Z"/><path class="cls-7" d="M463.79,180.82S419.09,195.3,414,211.47A34,34,0,0,1,409.72,227v3.2s4.68-10.86,7.24-12.35C417,217.86,407,203.81,463.79,180.82Z"/><path class="cls-7" d="M409.72,227s-6.89,10.47-3,23.22l1.77-.48s-1.72-14,1.88-21.1S409.72,227,409.72,227Z"/><path class="cls-8" d="M413.44,277.86a31.27,31.27,0,0,0,31.27-31.27H382.16A31.28,31.28,0,0,0,413.44,277.86Z"/><path class="cls-8" d="M445.15,279.45H381.73a3.85,3.85,0,0,1,3.86-3.85h55.7a3.85,3.85,0,0,1,3.86,3.85Z"/><rect class="cls-9" x="381.14" y="246.59" width="64.29" height="0.96"/><path class="cls-6" d="M358.47,277.52l-14.39-53.18H355.3l8.09,52.9a1.82,1.82,0,0,1-1.62,2.21h-1A2.45,2.45,0,0,1,358.47,277.52Z"/><path class="cls-6" d="M197.47,277.52l14.39-53.18H200.64l-8.09,52.9a1.82,1.82,0,0,0,1.62,2.21h1A2.45,2.45,0,0,0,197.47,277.52Z"/><path class="cls-6" d="M285.1,277.52l-14.4-53.18h11.22l8.09,52.9a1.82,1.82,0,0,1-1.62,2.21h-1A2.44,2.44,0,0,1,285.1,277.52Z"/><path class="cls-10" d="M367.64,97.86s-29.79-6.51-87.27,0l-6.6,67,78.92-3.9Z"/><path class="cls-11" d="M189.91,198.86s-5.66-60,20.15-60,31-.29,28.64-24.08c-2.41-24.66,34.46-16.94,34.46-16.94l-9.18,101Z"/><path class="cls-12" d="M204.67,198.86s-5.65-60,20.16-60,33.53-4.07,37.12-27.7c2.38-15.69,26-13.32,26-13.32l-9.18,101Z"/><path class="cls-12" d="M271.87,198.86h91.54a0,0,0,0,1,0,0v12.22A16.92,16.92,0,0,1,346.49,228H289.26a17.39,17.39,0,0,1-17.39-17.39V198.86a0,0,0,0,1,0,0Z"/><path class="cls-11" d="M189.91,198.86h97.44a0,0,0,0,1,0,0v12.22A16.92,16.92,0,0,1,270.43,228H207.3a17.39,17.39,0,0,1-17.39-17.39V198.86A0,0,0,0,1,189.91,198.86Z"/><path class="cls-13" d="M240.71,247.74s1.42,12.56,3.53,18.07c1.3,3.39.06,6.74-.88,8.55-1.71,3.28-2.14,5.09.6,5.17,6.21.16,7.75-1.32,9.6-7.07.84-2.63-.53-9.27,3.23-14,2.83-3.56.34-7.29-2.71-8.77s-7.29-9.61-7.29-9.61Z"/><path class="cls-14" d="M267.54,51.19s-1.89-8.95,9.46-11.41,20.6,3.76,25.66,8.53,2,19.38,9.54,19.81,14.27,3.9,12.72,12.22,6.36,4.65,5.64,12.77-6.94,15.35-22.7,15.49-43.66-8.19-44.24-9.25-16.88-9.44-5.79-17.93C268.73,73.07,249.92,57,267.54,51.19Z"/><path class="cls-10" d="M204.65,198.86s-.77-5.86,2.94-8.54a85.67,85.67,0,0,1,45-16.34c34.23-2,56,24.88,56,24.88Z"/><path class="cls-14" d="M284.85,153.9s-75.89-4.67-75.06,16.48c.31,8.13,9.4,30.19,10.91,34.38a402.36,402.36,0,0,0,20,46.66s9.41-2.79,10.26-9.73c0,0-6.53-38.16-11-46.44-3.23-5.95,3.42-11.12,3.42-11.12s32,2.21,41.95-.65S284.85,153.9,284.85,153.9Z"/><path class="cls-15" d="M223.9,249.32s-2.14,10-4.69,12.58-5.22,9.06-8.1,10.87-7.77,4.39-6.28,6.68c0,0,14.7.8,16.08-1.64,1.28-2.26,5.57-8.31,10-9.26s4.87-5.5,3.11-8.39-.9-14-.9-14Z"/><path class="cls-16" d="M321.63,151.38S221.16,164,222.18,181.69c2.82,48.57-.27,74.8-.27,74.8s7.43,3.64,13.26.09c0,0,4.27-19.37,8.26-30.9,8.1-23.42,4.27-30.83,5.51-31.17s52.68,4.35,71.5-11.22C328.27,176.81,321.63,151.38,321.63,151.38Z"/><path class="cls-17" d="M258.16,94.15s-13.68,32.37-19,34-30.9,6.93-31.72,7.82,2.22,5.07,2.62,4.32,31.34-1.55,34.62-2.18c6.29-1.2,22.16-21.16,22.13-24.49S262.19,92.27,258.16,94.15Z"/><path class="cls-15" d="M318.48,164c-5.13,11.67-36.66,1.61-44.71-4.32-10.94-8.06,4.14-9,.74-17.91-1.86-4.89-11.09-13.32-12.69-20.26-.82-3.54,1.62-25.87,3.79-30.2s12.44-8.12,20.17-7.66c12.56.74,16.38,2.43,18,6.5,2.44,6.06,4,13.88,4.88,21a92.76,92.76,0,0,1,.76,14.33c-.24,5.11,3.73,14.42,6.63,22.87h0C318.29,154.82,319.89,160.81,318.48,164Z"/><path class="cls-14" d="M265.92,49.21c-.24-1.68-.61-5.4,1.52-8,1.83-2.27,4.89-3.57,9.09-3.85a29.73,29.73,0,0,1,14.63,2.5,21.07,21.07,0,0,1,5.52,3.85l-.88-.36c-.07-.06-6.64-6.41-19.24-5.56-4.08.28-6.51,1.33-8.26,3.51a7.94,7.94,0,0,0-1.41,6.7,8.79,8.79,0,0,1-.78.82l1.73.61S265.93,49.25,265.92,49.21Z"/><path class="cls-14" d="M325,79.69l-1-1.09c.91-3.08.6-5.85-1.47-8.22a6.83,6.83,0,0,0-6.49-2.62c-6.22.95-7.36-.46-7.4-.54l-.42.41.07-.71.39-.64s1.44,1.94,7.3,1a7.93,7.93,0,0,1,7.28,2.75C325.49,72.57,326,76.46,325,79.69Z"/><path class="cls-11" d="M272.41,198.86s-5.81-60,20.7-60,42.1,2.42,36.6-27.55c-3.28-17.8,9.3-17.59,34.4-15.53,3.09.26,8.22,4.35,7.49,7.37l-23.1,95.69Z"/><path class="cls-15" d="M267.22,120.18a14.36,14.36,0,0,1-5.56-.73,20.39,20.39,0,0,1-6.31-3.6,29.4,29.4,0,0,1-5.49-5.87s7.51-16,10.09-19.3,12.79-6.18,12.79-6.18S277.3,119.42,267.22,120.18Z"/><path class="cls-17" d="M279.65,91.29c-6.29.1-6.63-2.12-6.91-4.48-.11-1-.19-2.68-.26-4.71,0-.85-.07-1.76-.11-2.7-.07-1.82-.21-3.69-.34-5.14s-.26-2.68-.26-2.68l12.72-3,.76-.18c.34,10,3.33,14.4,3.66,16.09C289.59,88,283.78,91.23,279.65,91.29Z"/><path class="cls-18" d="M284.48,73.07a13.59,13.59,0,0,1-12,9c0-.85-.07-1.76-.11-2.7-.07-1.82-.21-3.69-.34-5.14Z"/><path class="cls-17" d="M264.76,75.49s15.37,7.22,19.72-2.42,9.27-15.2-.36-20.22-13.21-2.21-15.44.66S260.87,73.36,264.76,75.49Z"/><path class="cls-14" d="M281.15,54.09a58.23,58.23,0,0,0-12.47-1.44c-4.1.07-4.52-8.41,4.61-11.28s19.77.69,23.39,3.31c6,4.33-6.1,26.25-6.72,26.35s-4.37,1.71-4.37,1.71-.95-3.08-.09-3.71c2.79-2.07,2.77-6-.54-5.54C282.17,63.92,284.83,54.59,281.15,54.09Z"/><path class="cls-17" d="M207.37,135.92s-5.45,5-6.11,6.86-1.84,8.47-1.84,8.47,1.59,0,2.71-3,6.27-3.53,7.75-5.28,2.77-6.37,2.77-6.37Z"/><path class="cls-17" d="M212.2,138.07s-.26,4.93-1.28,6.52-2.36,4.18-3.15,3.67-.15-5.93-.15-5.93Z"/><path class="cls-17" d="M202.2,143.19c-.12.25-4.57,6.78-4.57,6.78s2.07.57,2.48-.39S202.2,143.19,202.2,143.19Z"/><path class="cls-13" d="M261.66,119.45a20.39,20.39,0,0,1-6.31-3.6c3-1.57,6.1-6,6.8-5.69S261.66,119.45,261.66,119.45Z"/><path class="cls-13" d="M316.06,148.32c-.2-.27-6.56-9.14-11-16.4s1-26.24,1-26.24l2.64,5.44a92.76,92.76,0,0,1,.76,14.33C309.19,130.56,313.16,139.87,316.06,148.32Z"/><path class="cls-12" d="M287.36,198.86s-5.74-61.91,20.7-60c33.32,2.44,40,3.74,33.54-25.1C337,93.33,350.77,94,368.05,96.26c2.39.31,5,2.11,4.46,5.6l-9.06,97Z"/><path class="cls-17" d="M338.1,129.38C328.5,111.93,307.67,95,307.67,95c-12.38-.93-10,7.95-9,13.92S323,128.29,323.75,128.8s-24.55,6-29.95,7.17a3.41,3.41,0,0,0-1.76,1c-1.46,1.54-4.64,5-5.08,6.44a28.12,28.12,0,0,0-.63,3c-1.22,2-2.7,4.35-2.7,4.35a3.94,3.94,0,0,0,2,0c-.11.75-.17,1.25-.17,1.25s1.58-.08,2.58-3.09a6,6,0,0,1,3.14-3l-.79,3.12a3,3,0,0,0,2-1.11,19.1,19.1,0,0,0,1.56-3.38,5.32,5.32,0,0,0,1.65-1.22,12.11,12.11,0,0,0,1.49-3.08c5.53-.34,26.1-1.6,33.86-2.35,4.61-.44,6.24-2.23,7.63-3C339.56,134.36,338.65,130.37,338.1,129.38Z"/><path class="cls-15" d="M293.78,84.42s10.7,1.93,14.51,4.85,9.56,10.85,9.56,10.85,2,16.73-14.59,17.06L287.71,94Z"/><path class="cls-19" d="M282.76,229.85s-7.58-.17-9,5.79l-2-7.65h10.82Z"/><path class="cls-19" d="M356.15,229.89s-7.61-.25-9,5.71L345.05,228h10.82Z"/><path class="cls-19" d="M199.92,229s8.89-.27,9.26,5.22l1.69-6.27H200.08Z"/><path class="cls-20" d="M112.27,135.26c-8.72,0-16.91-4.51-23.06-12.68s-9.49-19-9.49-30.46,3.37-22.31,9.49-30.45S103.55,49,112.27,49s16.91,4.5,23.06,12.68,9.5,19,9.5,30.45-3.38,22.32-9.5,30.46S121,135.26,112.27,135.26Zm0-85.45c-17.5,0-31.74,19-31.74,42.31s14.24,42.32,31.74,42.32S144,115.46,144,92.12,129.77,49.81,112.27,49.81Z"/><path class="cls-15" d="M138.5,92.12a53.22,53.22,0,0,1-5.23,23.38c-3.83,7.76-9.5,13.76-16.18,16.91a25.09,25.09,0,0,1-10.74,2.44c-17.75,0-32.14-19.13-32.14-42.73,0-23.13,13.83-42,31.1-42.7l1,0c8.65,0,16.5,4.54,22.28,11.92a43.06,43.06,0,0,1,5.26,8.74,50.89,50.89,0,0,1,3.1,9.09A55.72,55.72,0,0,1,138.5,92.12Z"/><path class="cls-13" d="M128.63,61.32l-26.46,32,3.14-43.87,1,0C115,49.4,122.85,53.94,128.63,61.32Z"/><path class="cls-13" d="M133.27,115.5c-3.83,7.76-9.5,13.76-16.18,16.91l-14.92-39Z"/><path class="cls-20" d="M112.14,61.74a.42.42,0,0,1-.26-.54c.38-2.17,3.18-10.2,10-10.2h.17l0,.82c-2.92-.07-5.37,1.45-7.26,4.49a16.42,16.42,0,0,0-2.09,5.06.43.43,0,0,0-.28-.41Z"/><path class="cls-20" d="M144.31,90.2c-.11,0-11.14-.67-14,0l-.19-.79c2.95-.69,13.75,0,14.21,0Z"/><path class="cls-20" d="M126.67,73.84l-.6-.56a24.66,24.66,0,0,1,3.74-3.15C131.9,68.68,135.1,67,138.5,67v.82h-.1C132.32,67.82,126.72,73.78,126.67,73.84Z"/><path class="cls-20" d="M141.62,109.94c-2.32-.11-5.23-1.28-8.64-3.47a44.65,44.65,0,0,1-4.42-3.24l.53-.62c.08.06,7.36,6.26,12.57,6.51Z"/><path class="cls-20" d="M130.21,128c-3.92-.36-9.34-10.13-9.57-10.55l.72-.39c1.5,2.73,6,9.86,8.92,10.13Z"/><path class="cls-20" d="M110.75,135c-1.92-4.51-1.53-11.18-1.52-11.46l.82,0c0,.07-.39,6.76,1.46,11.09Z"/><path class="cls-20" d="M92.46,130.45l-.81-.1c.53-4,5.11-8.93,5.31-9.14l.59.56S93,126.74,92.46,130.45Z"/><path class="cls-20" d="M79.7,115.57l-.67-.46c1.78-2.6,8.23-3.67,8.51-3.71l.13.8C87.6,112.21,81.28,113.26,79.7,115.57Z"/><rect class="cls-20" x="77.92" y="85.09" width="0.82" height="8.33" transform="matrix(0.13, -0.99, 0.99, 0.13, -20.39, 155.24)"/><path class="cls-20" d="M85.92,76a14.57,14.57,0,0,1-3.25-.76,8.19,8.19,0,0,1-4.78-3.69l.73-.37c1.75,3.43,7.32,4,7.38,4Z"/><path class="cls-20" d="M92.8,66.07c-.24-.19-6-4.65-6.49-7.71l.8-.13c.45,2.74,6.13,7.14,6.19,7.19Z"/><path class="cls-20" d="M101.08,61.15s-3.43-7-1.38-10.83Z"/><path class="cls-11" d="M131,92.12A40.76,40.76,0,0,1,127,110c-2.93,5.95-7.28,10.55-12.41,13a19.22,19.22,0,0,1-8.23,1.87c-13.61,0-24.64-14.67-24.64-32.76,0-17.73,10.6-32.17,23.84-32.73l.8,0c6.63,0,12.65,3.48,17.08,9.14a33.19,33.19,0,0,1,4,6.7,38.53,38.53,0,0,1,2.38,7A42.91,42.91,0,0,1,131,92.12Z"/><ellipse class="cls-20" cx="105.35" cy="93.29" rx="14.85" ry="19.73"/><ellipse class="cls-12" cx="103.08" cy="93.29" rx="14.85" ry="19.73"/><path class="cls-20" d="M104.61,169.65H71.86A5.16,5.16,0,0,1,77,164.48H99.44a5.16,5.16,0,0,1,5.17,5.17Z"/><ellipse class="cls-20" cx="102.17" cy="93.29" rx="4.19" ry="5.56"/><path class="cls-20" d="M86.84,165.05,75.31,108.49a1.35,1.35,0,0,1,0-.4h0a14.46,14.46,0,0,1,11.32-13l17.4-3.8.61,2.79-17.4,3.8a11.53,11.53,0,0,0-8.92,9.19,5.28,5.28,0,0,0,0,1.9l11.32,55.51Z"/><path class="cls-19" d="M162.81,171.4v2.74c0,1-.31,1.74-.69,1.74H62c-.38,0-.69-.78-.69-1.74V171.4c0-1,.31-1.75.69-1.75H162.12C162.5,169.65,162.81,170.44,162.81,171.4Z"/><path class="cls-5" d="M162.81,171.4v2.74c0,1-.28,1.74-.63,1.74H82.71c-.34,0-.63-.78-.63-1.74V171.4c0-1,.29-1.75.63-1.75h79.47C162.53,169.65,162.81,170.44,162.81,171.4Z"/><rect class="cls-6" x="66.42" y="175.88" width="71.06" height="103.58"/><rect class="cls-7" x="86.33" y="175.88" width="71.06" height="103.58"/><path class="cls-6" d="M153.58,273.74H90.15V178.81h63.43Zm-62.74-.68h62V179.49h-62Z"/><rect class="cls-6" x="90.49" y="210.21" width="62.74" height="0.68"/><rect class="cls-6" x="90.49" y="242.23" width="62.74" height="0.68"/><path class="cls-6" d="M128.29,184.93H116.65a1,1,0,0,1-1-1h0a1,1,0,0,1,1-1h11.64a1,1,0,0,1,1,1h0A1,1,0,0,1,128.29,184.93Z"/><path class="cls-6" d="M128.29,216.24H116.65a1,1,0,0,1-1-1h0a1,1,0,0,1,1-1h11.64a1,1,0,0,1,1,1h0A1,1,0,0,1,128.29,216.24Z"/><path class="cls-6" d="M128.29,248.88H116.65a1,1,0,0,1-1-1h0a1,1,0,0,1,1-1h11.64a1,1,0,0,1,1,1h0A1,1,0,0,1,128.29,248.88Z"/><path class="cls-21" d="M108.34,157.32h20.34a2,2,0,0,1,2,2v2.78a2.08,2.08,0,0,1-2.08,2.08H108.34a0,0,0,0,1,0,0v-6.91a0,0,0,0,1,0,0Z"/><path class="cls-22" d="M147.41,160.16v1a3,3,0,0,1-3,3H107.74a.44.44,0,0,1-.44-.44v-.15a.44.44,0,0,1,.44-.44h22.34a2.55,2.55,0,0,0,.31-.47,2.78,2.78,0,0,0,.33-1.32v-1.32a2.69,2.69,0,0,0-.09-.7,2.79,2.79,0,0,0-.52-1H107.74a.44.44,0,0,1-.44-.44v-.15a.44.44,0,0,1,.44-.44h36.83a2.84,2.84,0,0,1,2.84,2.84Z"/><path class="cls-23" d="M147.3,159.38H130.63a2.79,2.79,0,0,0-.52-1H107.74a.44.44,0,0,1-.44-.44v-.15a.44.44,0,0,1,.44-.44h36.83A2.85,2.85,0,0,1,147.3,159.38Z"/><polygon class="cls-24" points="108.34 160.77 111.06 160.89 108.34 160.96 108.34 160.77"/><polygon class="cls-24" points="108.34 161.85 114.8 161.97 108.34 162.04 108.34 161.85"/><path class="cls-25" d="M113,169.58h20.82v-5.37h-21a2.6,2.6,0,0,0-2.61,2.6h0A2.77,2.77,0,0,0,113,169.58Z"/><path class="cls-21" d="M129.92,164.21h24.77a1.62,1.62,0,0,1,1.62,1.62V168a1.58,1.58,0,0,1-1.58,1.58H129.92a0,0,0,0,1,0,0v-5.37A0,0,0,0,1,129.92,164.21Z" transform="translate(286.23 333.79) rotate(-180)"/><path class="cls-25" d="M128.34,169.58h28.79a.4.4,0,0,0,.41-.4h0a.4.4,0,0,0-.41-.4H128.34a.4.4,0,0,0-.4.4h0A.4.4,0,0,0,128.34,169.58Z"/><path class="cls-25" d="M128.34,165h28.79a.4.4,0,0,0,.41-.4h0a.4.4,0,0,0-.41-.4H128.34a.4.4,0,0,0-.4.4h0A.4.4,0,0,0,128.34,165Z"/><polygon class="cls-24" points="156.31 166.9 153.11 166.99 156.31 167.04 156.31 166.9"/><polygon class="cls-24" points="156.31 165.66 148.7 165.75 156.31 165.8 156.31 165.66"/><path class="cls-11" d="M148.78,165.73a1.27,1.27,0,0,1,.43.61,1.55,1.55,0,0,1,0,.21c0,.51,0,1.65,0,1.65l1-.57,1,.57v-1.55a1.17,1.17,0,0,0-.24-.76.35.35,0,0,0-.26-.16Z"/><path class="cls-12" d="M148.78,165.73a1.27,1.27,0,0,1,.43.61l1.93,0s-.07-.54-.47-.63Z"/><rect class="cls-26" x="2.66" y="279.46" width="494.93" height="2.07" rx="0.62"/></g></g></svg>