<svg xmlns="http://www.w3.org/2000/svg" viewBox="0 0 495.7 336.85"><defs><style>.cls-1{fill:#eaf3fb;}.cls-2{fill:#d4e0f2;}.cls-3{fill:#fff;}.cls-4{fill:#b0c0e3;}.cls-5{fill:#88a3d5;}.cls-6{fill:#f79134;}.cls-7{fill:#e3edf8;}.cls-8{fill:#f7fcfe;}.cls-9{fill:#2b3a68;}.cls-10{fill:#faab77;}.cls-11{fill:#94afdb;}.cls-12{fill:#f79454;}.cls-13{fill:#f47621;}.cls-14{fill:#254790;}.cls-15{fill:#ccdaf0;}.cls-16{fill:#1e3966;}.cls-17{fill:#1a3763;}.cls-18{fill:#111135;}.cls-19{fill:#ccd9f0;}.cls-20{fill:#a7c3e6;}.cls-21{fill:#9dd199;}.cls-22{fill:#f79351;}.cls-23{fill:#8da8d7;}.cls-24{fill:#f47b3e;}.cls-25{fill:#2e3555;}</style></defs><g id="Layer_2" data-name="Layer 2"><g id="Layer_1-2" data-name="Layer 1"><path class="cls-1" d="M472.27,336.13,206.69,336,73.23,336H39S.69,304.82,0,260.77c-1.31-86.8,55.46-47.7,47.75-152.32-7-95.46,176.84-146.93,276.68-74C360.75,61,363.6,79.56,415.76,73.68c58.88-6.64,65.59,65,45,104.68C431.5,234.69,541.82,225.44,472.27,336.13Z"/><path class="cls-2" d="M342.08,335.72l-72,.09L129.67,336H64.89c7-19.23,30.21-76,46.74-98.47a176.93,176.93,0,0,1,15-17.9c9.86-10.24,16.38-1.37,22.88,5.24l0,0c2.12,2.14,4.23,4,6.45,5,4.24,1.77,12.42-9.87,21.2-22.84l2-3h0c9.42-13.94,19.22-28.33,25.38-28.62,11-.54,20.17,9.63,27.83,23.94h0c17,31.66,28.19,50.93,32.37,56.35,6.81,8.85,13.91,19.86,20.91,12.48,3.86-4.06,7.59-7.31,10.87-7.39,5.84-.13,12,5.65,17.76,14.06h0C329.34,296.54,342.08,335.72,342.08,335.72Z"/><path class="cls-3" d="M139.4,226.26c-2.64-3.59-8.66,11.48-12.5,12.51s-.24-5.31-1.93-7.71-13.34,6.47-13.34,6.47a176.93,176.93,0,0,1,15-17.9c9.86-10.24,16.37-1.37,22.88,5.24l0,0C151.09,226.47,142.05,229.86,139.4,226.26Z"/><path class="cls-3" d="M232.47,199.33h0a44,44,0,0,1-6.78-3.39c-2.16-1.54,0,6.17-3.84,8.05s-5.3-5.48-9.62-6.7-11.31,15.78-16.84,16-1.44-13.36-2.64-15.58S179.26,204,179.26,204h0c9.42-13.94,19.22-28.33,25.38-28.62C215.66,174.85,224.81,185,232.47,199.33Z"/><path class="cls-3" d="M305.65,271.49c-1.08,1.71,2.16,6.08-.6,6.25S295,269,293.51,268.57s-2.65,4.2-5.17,3.86c-1.16-.16-2-2.15-2.59-4.27,3.86-4.06,7.59-7.31,10.87-7.39,5.84-.13,12,5.65,17.76,14.06C314.18,274.7,306.72,269.8,305.65,271.49Z"/><path class="cls-4" d="M322.26,182.14V322.59a13.92,13.92,0,0,1-13.67,14.17H253a13.92,13.92,0,0,1-13.67-14.17v-143A31.46,31.46,0,0,1,257.09,151a8.37,8.37,0,0,0,4.68-7.62v-5.65h38V144A9,9,0,0,0,304.5,152,34.06,34.06,0,0,1,322.26,182.14Z"/><path class="cls-5" d="M316.22,194.25V317.84c0,6.88-5.24,12.46-11.69,12.46H257c-6.46,0-11.69-5.58-11.69-12.46V192c0-.94,0-1.87.13-2.79a41.19,41.19,0,0,1,20.54-.51c11,2.69,20-2.59,33-2.59,9,0,13,1.4,16.52,1.08A31.84,31.84,0,0,1,316.22,194.25Z"/><path class="cls-6" d="M265.83,128.63H296a5.54,5.54,0,0,1,5.54,5.54v5.34a0,0,0,0,1,0,0H260a0,0,0,0,1,0,0v-5.05A5.83,5.83,0,0,1,265.83,128.63Z"/><path class="cls-7" d="M312.68,164.25s-6.2-10-11.62-8.61-1.86,4.87,1.43,8.61,5.49,4.57,8.08,3.16S313.56,165.55,312.68,164.25Z"/><path class="cls-8" d="M229.29,115.37s3.91-8.71,13.25-7.74c0,0,13.58-14.51,28-1.93,0,0,15.38-3.12,26.77,2.69,7.6,3.88,10.11,8,10.11,8Z"/><path class="cls-8" d="M87.31,84.84s8.33-19.49,28.26-17.32c0,0,28.94-32.47,59.79-4.33,0,0,32.8-7,57.09,6C248.64,77.9,254,87,254,87Z"/><path class="cls-8" d="M365.27,102.58s3-8.29,10-7.37c0,0,10.22-13.81,21.12-1.84,0,0,11.59-3,20.16,2.57,5.72,3.69,7.61,7.56,7.61,7.56Z"/><path class="cls-8" d="M172,37.31s2.91-7.5,9.87-6.66c0,0,10.11-12.5,20.89-1.67,0,0,11.46-2.68,19.95,2.32,5.66,3.34,7.52,6.84,7.52,6.84Z"/><path class="cls-9" d="M396.6,125.51c0-.52.41-6.06,8.85-6.35,0,0-4.15.5-4.86,2.32,0,0,2.82-2.25,5.12-1.53s3.66,4.76,3.67,6.09-1.27,5.6-2.73,6a4.35,4.35,0,0,1-1.76,0c.38.61.76,1.28,1.13,2,3.37,6.92-.11,13.67-3,12.93-1.83-.48-2.34,2.64-2.34,2.64L383,135.21S389.48,121.71,396.6,125.51Z"/><path class="cls-10" d="M361.92,207.51c5.2-.51,11.37-1.43,13.82-2.94,3.74-2.29,10.22-11.88,14.21-18.87.12-.17.38-3.72.46-3.89,2.09-3.71,3-1.43,3.15-4.37a15,15,0,0,0-.49-4.68,11.73,11.73,0,0,0-2.11-4.22,1.87,1.87,0,0,0-.4-.49,9.76,9.76,0,0,0-2.71-2.31c-.69-.29-1.43,0-2.2.88v0a13.36,13.36,0,0,0-2,2.91s-.06.06-.06.09c-.14.26-.28.54-.46.86a.78.78,0,0,0-.11.2c-.31.65-.63,1.34-.94,2-3.51,7.65-6.16,20.31-9.27,23.76-1.34,1.49-8.58,3.34-13.46,5.51C355.87,203.57,358.47,207.88,361.92,207.51Z"/><path class="cls-4" d="M390.41,329.15l3.78,1.4s16.38-22.73,18.4-42.72a30.4,30.4,0,0,0-.54-10.23l.44-2.53c.13-.76.29-1.66.47-2.7.54-3.06,1.27-7.23,2.11-12,1.93-10.94,4.42-24.94,6.37-35.22l-1-.33-11-3.55-2.27-7.22L399,211.91s-1.83,3.58-3.47,20.49c-.3,2.21-.58,4.66-.78,7.31a144.15,144.15,0,0,0,.78,29.62q.56,4.41,1.44,9.09a40.71,40.71,0,0,1,.31,9C396.41,303.74,390.41,329.15,390.41,329.15Z"/><path class="cls-11" d="M394.71,239.71l17.78,35.36c.13-.76.29-1.66.47-2.7.54-3.06,1.27-7.23,2.11-12,1.93-10.94,4.42-24.94,6.37-35.22l-1-.33-11-3.55-2.27-7.22-11.21-2.95S394.71,233,394.71,239.71Z"/><path class="cls-4" d="M402.53,216.45l.41-3.54c6.9,1.84,25.33-5.11,25.33-5.11s6.68,5.87,5.81,19.95c-.43,6.87-1.21,36.08-2,44.72-.3,3.13-.55,5.36-.66,6.25h0a1.21,1.21,0,0,0,.2.76,40.31,40.31,0,0,1,3,6.34c8,21.37-1.23,47.69-1.23,47.69l-2.4-1s-5.27-29.29-9.55-42.22a25,25,0,0,0-2.06-4.95c-1.86-3-3.59-7.91-5.15-13.75-3-11-5.35-25.38-6.93-36.46C407.06,235.18,402.53,216.45,402.53,216.45Z"/><path class="cls-10" d="M389.35,173.62a21.53,21.53,0,0,0,7.95,1.86c11.86.65,14.55-9.75,15-16.65a10,10,0,0,0-4.07-.51l-1,.07a3.48,3.48,0,0,1-3.05-1.34,24.72,24.72,0,0,1-4-9.1l-.51.23-8.55,4s.9,2.78,1.58,5.44a29,29,0,0,1,.64,3.16,1.88,1.88,0,0,1-1.14,1.95h0A58.31,58.31,0,0,0,389.35,173.62Z"/><path class="cls-6" d="M386.39,181.4c.09.24.19.47.29.71,3,6.46,8.57,33.26,8.57,33.26,1.7,5.18,36.2-1,36.3-5.33,1.3-4.65-4.63-12.13-8-15.87a11.56,11.56,0,0,1-1.12-1.51,10.53,10.53,0,0,1-1.51-4.43,153.65,153.65,0,0,1-.47-15.59h0c-.65-.48-1.28-.93-1.87-1.35a17.45,17.45,0,0,1-2.28-1.89,3.44,3.44,0,0,1-1.09-2.16,10.87,10.87,0,0,1,0-1.8c0-.29.07-.57.11-.86a24.35,24.35,0,0,1,1.72-5.74c-3.18-1.29-8.84-.52-8.84-.52s0,.31,0,.83c0,2.07,0,7.37-.66,8.38-.83,1.25-16,6.73-16.79,5s1.37-9.49,1.45-9.79h0c-5.07,2-6.89,3.67-6.89,3.67C388.45,168.41,384,175.13,386.39,181.4Z"/><path class="cls-12" d="M391.2,152.21s.91,2.78,1.58,5.45c5-1.4,6.52-6.66,7-9.48Z"/><path class="cls-10" d="M390.14,155.15s12-2.77,10.13-10.19-1.53-12.79-9.25-11.33-8.5,4.65-8.49,7.28S387,155.68,390.14,155.15Z"/><path class="cls-9" d="M381.86,136.69c1.29-2.69,2.8-2.54,3.75-2.07a8.59,8.59,0,0,1,11.14-1,14.57,14.57,0,0,0,6.72,7.22s-1.84,1.89-7.17,1.85a8.84,8.84,0,0,1-4.75-1.79,28.61,28.61,0,0,0,6.24,4.65c-6.67-1.28-11.14-9-11.6-9.82a9.58,9.58,0,0,0-1.74,4.11c-.12,2,.58,6-.59,6.15C383.86,146,379.93,140.73,381.86,136.69Z"/><path class="cls-6" d="M385.39,166.43c-1.35,1.17-2.88,5-3.31,6.32,0,0,3.74-.14,5.24,2.73C387.32,175.48,387.34,164.74,385.39,166.43Z"/><path class="cls-13" d="M405.21,206.37c7.3-.08,13.47-7.66,17.25-13.71a10.53,10.53,0,0,1-1.51-4.43,153.65,153.65,0,0,1-.47-15.59h0c-.65-.48-1.28-.93-1.87-1.35a17.45,17.45,0,0,1-2.28-1.89C410.36,179.5,395.31,206.47,405.21,206.37Z"/><path class="cls-14" d="M419.41,335.48h19a10.34,10.34,0,0,0-.54-5.09c-.95-2.11-2.44-3.07-2.08-5.62a6.89,6.89,0,0,1-5.92,2.27c-.34.54-2.18,3.46-3.3,4.27S419.79,331.88,419.41,335.48Z"/><path class="cls-14" d="M378.61,335.48h19s.71-3-.54-5.09c-1.1-1.83-.68-2.87.14-4.38a7.29,7.29,0,0,1-3.2.61,6.79,6.79,0,0,1-2.83-1,70.39,70.39,0,0,1-5.41,5.69C384.53,332.2,379,331.88,378.61,335.48Z"/><path class="cls-10" d="M376.08,211.49l.76,2.95s9.49-2,11.58-2.45h0c3.57-.85,7.56-1.88,10.93-3a30.58,30.58,0,0,0,5.83-2.6,4.41,4.41,0,0,0,.4-.29c3.34-2.42,7.31-9.56,10.39-17.22.43-1.05.83-2.11,1.23-3.14a76.58,76.58,0,0,0,3.25-10.85,29.77,29.77,0,0,0,.77-5.16,12.1,12.1,0,0,0,0-1.46c0-8.28-4.17-9.42-4.17-9.42l-.28-.09c-.72-.11-1.46.37-2.23,1.32a25.69,25.69,0,0,0-3.05,5.39c-1.63,3.68-3.34,8.45-4.94,13.19-.89,2.6-1.75,5.2-2.6,7.6-.49,1.45-1,2.82-1.43,4.08a38.09,38.09,0,0,1-2.4,5.57,13.78,13.78,0,0,1-3.51,3.17C393.64,201.26,376.08,211.49,376.08,211.49Z"/><path class="cls-6" d="M410.7,165.77c5.5-1.51,10.59,2.47,10.59,2.47-.07-8.27-4.18-9.4-4.18-9.4C415.45,158.16,412.68,161.33,410.7,165.77Z"/><path class="cls-10" d="M377.91,210.42a45.45,45.45,0,0,0-5.76,2.62,11.83,11.83,0,0,0-3.06,4.39s0,.51.5.51,1.56-1.85,2.35-1.55a15.8,15.8,0,0,1-1.6,3.07c-.59.62-.93,3.74-.81,4.42s4.19-2.56,5.9-4c.91-.79.88-2.68,1.16-4.83.25-1.88,5.44-3,5.44-3Z"/><path class="cls-10" d="M355.11,206.36s-2.46,2.26-1.78,4.71,3.29,2.73,3.72,1.44S356.4,205.91,355.11,206.36Z"/><path class="cls-5" d="M326.56,163.08c0-5.54,9.19-16.31,9.19-16.31s9.2,10.77,9.2,16.31-4.12,10-9.2,10S326.56,168.63,326.56,163.08Z"/><path class="cls-15" d="M329.56,166.35a3.79,3.79,0,0,1-.18-1.54c.1-2.43,2.35-3.74,4.13-2.09a6.55,6.55,0,0,1,1.23,1.69c.7,1.69.4,3.2-1.14,3.84A3.17,3.17,0,0,1,329.56,166.35Z"/><path class="cls-5" d="M132.76,145.91c0-12.95,21.45-38.07,21.45-38.07s21.46,25.12,21.46,38.07-9.6,23.43-21.46,23.43S132.76,158.85,132.76,145.91Z"/><path class="cls-15" d="M139.75,153.53a8.89,8.89,0,0,1-.42-3.6c.25-5.67,5.48-8.73,9.65-4.87a15.29,15.29,0,0,1,2.87,4c1.62,3.92.93,7.47-2.66,8.94S141.36,157.46,139.75,153.53Z"/><rect class="cls-14" x="229.29" y="269.86" width="41.23" height="6.75"/><path class="cls-16" d="M209.76,333.16H192.45V116.62a75.36,75.36,0,1,1,150.72,0v17.84H325.86V116.62a58.05,58.05,0,1,0-116.1,0Z"/><path class="cls-16" d="M211.06,262.38h14.62a5.82,5.82,0,0,1,5.82,5.82v10.08a5.82,5.82,0,0,1-5.82,5.82H211.06a0,0,0,0,1,0,0V262.38a0,0,0,0,1,0,0Z"/><path class="cls-6" d="M287.6,281l-37.17-1.56a4.75,4.75,0,0,1-4.55-4.75v-3.32a4.75,4.75,0,0,1,4.61-4.75l37.17-1.1a4.75,4.75,0,0,1,4.89,4.76v6A4.74,4.74,0,0,1,287.6,281Z"/><path class="cls-14" d="M194.44,250h14a7.75,7.75,0,0,1,7.75,7.75v75.43a0,0,0,0,1,0,0H186a0,0,0,0,1,0,0V258.41A8.43,8.43,0,0,1,194.44,250Z"/><path class="cls-17" d="M169.09,329.17h64a3.33,3.33,0,0,1,3.33,3.33v2.88a0,0,0,0,1,0,0H165.76a0,0,0,0,1,0,0v-2.88a3.33,3.33,0,0,1,3.33-3.33Z"/><rect class="cls-18" x="322.83" y="128.63" width="23.37" height="7.6" rx="2.04"/><polygon class="cls-19" points="302.23 179.14 373.42 179.14 367.45 325.48 305.89 324.63 302.23 179.14"/><path class="cls-20" d="M369.41,224l-2.74,87.72c-.14,4.21-3.06,7.54-6.62,7.54H314.12c-3.76,0-6.85-3.5-7-7.95l-3.58-95.95c5.6-1.37,16.64-2.37,29.82,5.28C344.52,227.14,359.16,226.05,369.41,224Z"/><rect class="cls-5" x="299.51" y="179.14" width="73.91" height="0.93"/><path class="cls-14" d="M374.81,179.26l-4.75,152.07a4.27,4.27,0,0,1-4.26,4.13H304l-5.81-156.2h4l1,27.89.27,7.41,3.58,96.82c.16,4.49,3.25,8,7,8h45.93c3.56,0,6.48-3.36,6.62-7.61l2.74-88.5.64-20.52.73-23.51Z"/><path class="cls-7" d="M365.17,187.49s-.13-3.19-4.33-3.19c-6.78,0-6.49,23.3-4.2,26s6.83,1.21,7.64-.26C367.4,204.36,365.17,187.49,365.17,187.49Z"/><path class="cls-7" d="M362.62,298.9c-.18-1.26-.53-3.71-2.8-4.24s-4.75,2.15-6,6.57-7.87,7.44-5.82,11.32,8.56,2.65,10.34,1.18C361.55,311,363.16,302.53,362.62,298.9Z"/><path class="cls-20" d="M346.75,223.05s-8.28-2.07-9.81-6,1.24-6.16,4.11-5.29,1.56,4.61,3.63,8Z"/><path class="cls-21" d="M265,308.93c2,.84,9.4.16,9.64-.42s-4.57-6.19-6.62-7a4,4,0,1,0-3,7.44Z"/><path class="cls-21" d="M283.51,312.44c-1.16,1.9-1.68,9.25-1.14,9.58s6.84-3.5,8-5.4a4,4,0,1,0-6.86-4.18Z"/><path class="cls-21" d="M273.61,326.84c2.11.67,9.39-.56,9.58-1.16s-5-5.82-7.14-6.49a4,4,0,1,0-2.44,7.65Z"/><path class="cls-21" d="M284.31,334c0-.17-.82-16.82-9.94-25.42l.19-.2c9.21,8.67,10,25.44,10,25.61Z"/><path class="cls-21" d="M314.74,309.29c-1.28.85-6.36,1.41-6.6,1s2.24-4.83,3.53-5.68a2.78,2.78,0,1,1,3.07,4.63Z"/><path class="cls-21" d="M302.65,314.24c1,1.13,2.42,6.05,2.09,6.35s-5.13-1.44-6.17-2.56a2.78,2.78,0,1,1,4.08-3.79Z"/><path class="cls-21" d="M311.36,322.65c-1.34.75-6.45.92-6.66.53s2.6-4.64,3.95-5.39a2.78,2.78,0,0,1,2.71,4.86Z"/><path class="cls-21" d="M305.08,329c0-.11-1.77-11.53,3.23-18.63l-.16-.12c-5,7.17-3.28,18.67-3.26,18.78Z"/><path class="cls-21" d="M296.06,333l-.58-.09c-2.29-29.56-11.32-50.78-11.44-51.07l.53-.23C284.69,281.9,293.78,303.25,296.06,333Z"/><path class="cls-3" d="M277.91,278.86c1.12,1.26,6.33,3.29,6.69,3s-1-5.74-2.12-7a3,3,0,0,0-4.57,4Z"/><path class="cls-3" d="M285.9,274.46c-1,1.35-1.92,6.87-1.53,7.15s5.41-2.16,6.42-3.51a3,3,0,0,0-4.89-3.64Z"/><path class="cls-3" d="M291.9,280.33c-1.63-.44-7.1.72-7.22,1.19s4,4.24,5.62,4.69a3,3,0,1,0,1.6-5.88Z"/><path class="cls-3" d="M288.2,287.64c-.16-1.67-3.19-6.37-3.67-6.32s-2.55,5.24-2.39,6.91a3,3,0,1,0,6.06-.59Z"/><path class="cls-3" d="M279.9,287.28c1.49-.78,4.7-5.36,4.48-5.78s-5.82-.39-7.31.39a3,3,0,0,0,2.83,5.39Z"/><path class="cls-17" d="M283.39,281.34a1,1,0,1,1,.83,1.15A1,1,0,0,1,283.39,281.34Z"/><path class="cls-21" d="M295.89,302.76c-1.65,2-3.44,10.58-2.86,11.05s8.58-3,10.23-5.05a4.75,4.75,0,0,0-7.37-6Z"/><path class="cls-21" d="M263.13,336h-.39a118.7,118.7,0,0,0-12.08-32.88l.33-.19A118.71,118.71,0,0,1,263.13,336Z"/><path class="cls-3" d="M246.34,301.69c.85.74,4.48,1.62,4.7,1.38s-1.18-3.72-2-4.46a2,2,0,0,0-2.67,3.08Z"/><path class="cls-3" d="M251.25,298.07c-.55,1-.67,4.72-.39,4.88s3.4-1.91,3.95-2.9a2,2,0,1,0-3.56-2Z"/><path class="cls-3" d="M255.75,301.44c-1.12-.16-4.65,1.1-4.69,1.42s3,2.46,4.14,2.62a2,2,0,0,0,.55-4Z"/><path class="cls-3" d="M253.94,306.61c-.26-1.09-2.68-3.95-3-3.87s-1.23,3.7-1,4.8a2,2,0,0,0,4-.93Z"/><path class="cls-3" d="M248.4,307.1c.92-.65,2.65-4,2.46-4.23s-3.89.25-4.81.9a2,2,0,0,0,2.35,3.33Z"/><path class="cls-17" d="M250.19,302.85a.67.67,0,1,1,.65.69A.67.67,0,0,1,250.19,302.85Z"/><path class="cls-21" d="M260.37,316c-.92,1.5-1.36,7.32-.93,7.58s5.42-2.75,6.34-4.25a3.18,3.18,0,1,0-5.41-3.33Z"/><path class="cls-21" d="M325.85,333.45l.51-.08c2-26.33,10.08-45.23,10.19-45.48l-.47-.21C336,287.94,327.87,307,325.85,333.45Z"/><path class="cls-3" d="M342,285.24c-1,1.12-5.64,2.93-6,2.64s.9-5.11,1.89-6.23a2.71,2.71,0,0,1,4.07,3.59Z"/><path class="cls-3" d="M334.89,281.32c.9,1.2,1.71,6.12,1.37,6.37s-4.82-1.93-5.72-3.13a2.71,2.71,0,0,1,4.35-3.24Z"/><path class="cls-3" d="M329.55,286.55c1.45-.4,6.32.64,6.43,1.06s-3.56,3.78-5,4.17a2.71,2.71,0,1,1-1.43-5.23Z"/><path class="cls-3" d="M332.84,293.06c.15-1.49,2.85-5.67,3.27-5.63s2.28,4.66,2.13,6.16a2.71,2.71,0,0,1-5.4-.53Z"/><path class="cls-3" d="M340.23,292.74c-1.32-.69-4.18-4.77-4-5.15s5.18-.35,6.5.35a2.71,2.71,0,0,1-2.52,4.8Z"/><path class="cls-17" d="M337.13,287.45a.9.9,0,1,0-.74,1A.91.91,0,0,0,337.13,287.45Z"/><path class="cls-21" d="M324.65,313.58c1.47,1.81,3.06,9.42,2.54,9.84s-7.63-2.69-9.11-4.5a4.23,4.23,0,0,1,6.57-5.34Z"/><path class="cls-21" d="M242.32,335.38s2.92-7.68,13.53-8.16,17.9,5.78,26.66,2.89,23.26-9.42,37-5.07,16,10.34,16,10.34Z"/><path class="cls-14" d="M120.87,335.47H98c-1.65-1.11.44-12,.44-12s6.25-2.37,7.34,2.45,8,6.36,11.61,6.95C119.83,333.27,120.62,334.64,120.87,335.47Z"/><path class="cls-6" d="M117.07,214.58l-10.7,111.15s-2.24,3.45-9.35,1.12a203.48,203.48,0,0,1-7.13-38.44c0-.34,0-.68-.08-1-.54-7.41-1.19-17.71-1.8-27.93-1.11-18.57-2.1-36.85-2.1-36.85Z"/><path class="cls-13" d="M103.28,235.85s-3.67,24.75-4.93,32.28c-2.7,16-8.46,20.28-8.46,20.28,0-.34,0-.68-.08-1-.54-7.41-1.19-17.71-1.8-27.93Z"/><path class="cls-10" d="M155,185s2.12-2.58,3.27-2.94,3.35-2.07,3.64-1.37-1.49,1.79-1.39,2.6c0,.36,1.41.37,2.93.36,1.93,0,4.27-1.06,4.36-.59.32,1.72-2.21,4.84-4.84,5.12-2.12.23-5.06-.21-8.59.16C153.17,188.45,155,185,155,185Z"/><path class="cls-4" d="M156.47,188.77c-.07.2-7.69,1.48-14.28,2.4-3.89.55-7.41,1-8.84,1-3.1,0-9-1-16.06-4a68.45,68.45,0,0,1-12.46-6.87c-3.76-2.62-3.88-4.67-7-8.88-9.72-13.06,3.05-18.58,10.08-16.08,4.86,1.74,7.81,4.69,10.44,8.69,3.12,4.73,5.66,10,13.42,14.55C137.61,183,155,184,155,184a3.55,3.55,0,0,1,1.28,2A10.52,10.52,0,0,1,156.47,188.77Z"/><path class="cls-14" d="M86.87,335.47H64c-1.64-1.11.45-12,.45-12s6.25-2.37,7.33,2.45,8,6.36,11.61,6.95C85.84,333.27,86.62,334.64,86.87,335.47Z"/><path class="cls-6" d="M108.47,220,73.76,326.19s-7.38,2-11.16-2.05c0,0,.87-37.46,5.61-50.25,3.83-10.35,2-66.22,19-66.69S108.47,220,108.47,220Z"/><path class="cls-4" d="M116.42,220.63c-5.36,2.76-12.31,4.7-23.77,4-11-.72-17.76-3.74-17.42-6.37.17-1.32.34-2.67.48-4.08a101.42,101.42,0,0,0-.39-23.64c-.32-2.69-.74-5.55-1.09-8h0a56,56,0,0,1-.72-6.44s3.49-15.67,6.1-18.18a11.23,11.23,0,0,1,4-2.26h0c7.88-2.84,22.36-2.19,28.76,3.35.88.76,4,6,4.05,11.63C116.52,178.41,119.89,218.84,116.42,220.63Z"/><path class="cls-10" d="M89.17,155c-.79-1,1.44-2.86.44-10.15,0-.1.71,0,1.8.3,3.25.77,9.78,2.62,10.07,2.7h0s.08,1.53.35,4.28c0,.25,0,.5.07.76s.06.67.11,1C102.8,159.39,92.87,159.66,89.17,155Z"/><path class="cls-22" d="M101.84,152.12c-4.85,1.11-12.08-6-12.08-6a7.2,7.2,0,0,1,1.65-.94c3.25.77,9.78,2.62,10.07,2.7h0S101.57,149.37,101.84,152.12Z"/><path class="cls-10" d="M103.49,147.45A24.52,24.52,0,0,1,99,148.51c-3.71.5-8.6.2-10.14-4.29-2.58-7.57-5.89-12.11,1.72-15.2,4.08-1.66,6.68-1.74,8.45-1.11a6.11,6.11,0,0,1,3.14,2.71C103.59,132.94,106.57,146.13,103.49,147.45Z"/><path class="cls-14" d="M101.81,124.31a4.24,4.24,0,0,1-2.53,7.38,12.08,12.08,0,0,0-3.57.42c-1.89.84-2.23,4-2.27,5s-.17,1.86-2.74,1.25a1.21,1.21,0,0,0-.93.06c-1.07.63.3,3.7.71,4.36,0,0,.59,2.2-.72,3.27-.16.12-2.74,1.25-9-8.26a8.81,8.81,0,0,1-.4-8.09c1.5-3.24,7.69-6.78,13.14-8C96.91,120.94,99.73,122.44,101.81,124.31Z"/><path class="cls-3" d="M103.55,142.56s.15,1-2.12,1.77c0,0-1.92.65-2.27-.35A6.51,6.51,0,0,1,103.55,142.56Z"/><path class="cls-23" d="M142.19,191.17c-3.89.55-7.41,1-8.84,1-3.1,0-9-1-16.06-4-.29-1-.58-7.26,0-7.69,1.86-1.28,5.56,5.95,11.77,7.83A105.42,105.42,0,0,0,142.19,191.17Z"/><path class="cls-23" d="M77.73,214.65a1.9,1.9,0,0,1-2-.52,101.42,101.42,0,0,0-.39-23.64c-.32-2.69-.74-5.55-1.09-8h0s5.2-4.47,7-.78S77.9,195.17,80.7,201,80.88,213.77,77.73,214.65Z"/><path class="cls-10" d="M70,211.2s2.8,2,3.53,1.92c2.1-.35,3.2-2.07,5.16-1.91s6.1,2.36,5.62,2.86c-1.74,1.82-4.43.83-5.69,2-.87.77-1.4,2.37-4.58,2a12.14,12.14,0,0,1-6-2.95Z"/><path class="cls-4" d="M83.6,155.56A43.08,43.08,0,0,0,62.6,171c-8.74,12-11.56,20.16-8.13,26.18s10.13,16.66,16.62,21.14c0,0,3.25-.7,3-5.66,0,0-8-17-7.68-19.3.53-4.28,11.88-15.13,14.37-17.37S83.6,155.56,83.6,155.56Z"/><path class="cls-10" d="M74.83,212.89a22.86,22.86,0,0,0,1.61-2.83c.19-.63.51.33.38,1a2.65,2.65,0,0,0,0,1.18Z"/><path class="cls-21" d="M462.35,335.48H446.74c-.83-.71.58-2.32,2.06-2.43a9.31,9.31,0,0,1,2.38.28c.22-2.85,1.44-15.67,6.07-15.16,5.19.58,0,5.65-1.47,8.65a69,69,0,0,0-2.76,6.92l1.3.26c.69-2.11,3.25-9.23,6.51-8.81,3.83.48,2.29,3.33-.42,5-2,1.24-4.44,3-5.6,3.87a16.21,16.21,0,0,0,3.06.24C460.54,334.27,461.84,335.06,462.35,335.48Z"/><path class="cls-21" d="M144.81,335.29l-.47-.07a141.88,141.88,0,0,0-9.17-41l.42-.18C135.7,294.32,143,311.44,144.81,335.29Z"/><path class="cls-3" d="M130.26,291.88c.89,1,5.07,2.64,5.36,2.39s-.81-4.61-1.7-5.62a2.44,2.44,0,0,0-3.66,3.23Z"/><path class="cls-3" d="M136.67,288.36c-.81,1.08-1.54,5.5-1.23,5.73s4.34-1.73,5.14-2.81a2.44,2.44,0,1,0-3.91-2.92Z"/><path class="cls-3" d="M141.47,293.06c-1.3-.35-5.68.58-5.79,1s3.21,3.4,4.51,3.76a2.45,2.45,0,1,0,1.28-4.72Z"/><path class="cls-3" d="M138.51,298.93c-.13-1.34-2.56-5.11-2.94-5.08s-2,4.21-1.92,5.55a2.44,2.44,0,1,0,4.86-.47Z"/><path class="cls-3" d="M131.86,298.64c1.19-.63,3.76-4.3,3.58-4.64s-4.66-.31-5.85.32a2.44,2.44,0,1,0,2.27,4.32Z"/><path class="cls-24" d="M134.65,293.87a.8.8,0,1,1,.67.92A.8.8,0,0,1,134.65,293.87Z"/><path class="cls-21" d="M142.62,300.84c-1.33,1.63-2.76,8.48-2.3,8.86s6.88-2.42,8.21-4.05a3.81,3.81,0,1,0-5.91-4.81Z"/><path class="cls-21" d="M139.35,320.51c1.38.67,4.43,4.76,4.24,5.15s-5.29.51-6.67-.16a2.78,2.78,0,1,1,2.43-5Z"/><path class="cls-21" d="M157.36,335.29l.53-.08c2.11-27.22,10.42-46.75,10.54-47l-.49-.21C167.82,288.25,159.45,307.91,157.36,335.29Z"/><path class="cls-3" d="M174.06,285.45c-1,1.16-5.82,3-6.15,2.74s.92-5.29,2-6.45a2.8,2.8,0,1,1,4.2,3.71Z"/><path class="cls-3" d="M166.71,281.41c.93,1.24,1.77,6.32,1.41,6.58s-5-2-5.91-3.23a2.81,2.81,0,1,1,4.5-3.35Z"/><path class="cls-3" d="M161.19,286.81c1.49-.41,6.53.67,6.65,1.09s-3.68,3.91-5.18,4.32a2.8,2.8,0,1,1-1.47-5.41Z"/><path class="cls-3" d="M164.59,293.54c.15-1.54,2.94-5.87,3.38-5.82s2.35,4.82,2.2,6.36a2.8,2.8,0,1,1-5.58-.54Z"/><path class="cls-3" d="M172.23,293.21c-1.37-.72-4.32-4.94-4.12-5.33s5.36-.35,6.73.37a2.8,2.8,0,1,1-2.61,5Z"/><path class="cls-24" d="M169,287.74a.92.92,0,1,0-.76,1.05A.92.92,0,0,0,169,287.74Z"/><path class="cls-21" d="M157.51,307.46c1.53,1.88,3.17,9.74,2.64,10.17s-7.9-2.77-9.42-4.65a4.37,4.37,0,0,1,6.78-5.52Z"/><path class="cls-21" d="M163.62,318.32c-1.58.77-5.08,5.46-4.86,5.92s6.07.58,7.66-.19a3.19,3.19,0,1,0-2.8-5.73Z"/><path class="cls-21" d="M172.22,335.37s-1.83-2.85-6.46-3.1-6.92,2.42-11.6.89-16.88-2.9-19.52,2.13Z"/><path class="cls-25" d="M491.25,336.85,17.5,336.68a.57.57,0,0,1-.57-.57v-.28a.58.58,0,0,1,.57-.57l473.75.17a.57.57,0,0,1,.57.57v.27A.58.58,0,0,1,491.25,336.85Z"/></g></g></svg>