<svg xmlns="http://www.w3.org/2000/svg" viewBox="0 0 500 412.16"><defs><style>.cls-1{fill:#ffe6ac;}.cls-2{fill:#be894a;}.cls-3{fill:#d3d3d3;}.cls-12,.cls-4{fill:#010101;}.cls-10,.cls-20,.cls-4{opacity:0.2;}.cls-5{fill:#4b444a;}.cls-6{fill:#a4a9af;}.cls-7{fill:#e1e2e7;}.cls-8{fill:#9fdade;}.cls-10,.cls-15,.cls-9{fill:#fff;}.cls-14,.cls-9{opacity:0.3;}.cls-11{fill:#f1f0f0;}.cls-13{fill:#25bbde;}.cls-16{fill:#0ea2c5;}.cls-17{opacity:0.1;}.cls-18{fill:#f8d519;}.cls-19{fill:#f57f20;}</style></defs><g id="Layer_2" data-name="Layer 2"><g id="Layer_1-2" data-name="Layer 1"><polygon class="cls-1" points="448.35 211.77 448.35 392.44 84.88 392.44 84.88 211.77 266.62 83.92 448.35 211.77"/><rect class="cls-2" x="84.88" y="355.6" width="363.47" height="36.84"/><rect class="cls-3" x="84.88" y="211.77" width="6.45" height="180.67"/><rect class="cls-3" x="441.9" y="211.77" width="6.45" height="180.67"/><polygon class="cls-4" points="266.62 83.92 84.88 211.77 84.88 222.58 84.88 251.84 272.22 122.12 448.35 237.78 448.35 220.41 448.35 211.77 266.62 83.92"/><polygon class="cls-3" points="448.37 238.82 448.37 227.96 266.62 100.43 84.88 227.96 84.88 238.82 60.49 238.82 60.49 220.18 266.62 67.36 472.74 220.18 472.74 238.82 448.37 238.82"/><polygon class="cls-5" points="474.37 225.56 266.62 70.71 58.87 225.56 55.67 221.25 266.62 64.02 477.57 221.25 474.37 225.56"/><polygon class="cls-6" points="410.68 247.97 132.63 247.97 126.68 241.01 416.64 241.01 410.68 247.97"/><rect class="cls-7" x="132.63" y="247.97" width="278.05" height="5.24"/><path class="cls-8" d="M295.13,179.45a28.95,28.95,0,1,1-28.94-28.94A28.94,28.94,0,0,1,295.13,179.45Z"/><path class="cls-9" d="M275.91,152.22l-32,45.7a28.36,28.36,0,0,1-5.87-11.77l24.82-35.43a32.9,32.9,0,0,1,3.32-.19A28.34,28.34,0,0,1,275.91,152.22Z"/><path class="cls-9" d="M286.11,158.52l-32.81,46.8a24.09,24.09,0,0,1-5.32-3.39l33.07-47.24h0A24.72,24.72,0,0,1,286.11,158.52Z"/><path class="cls-4" d="M241.11,183.31A28.94,28.94,0,0,1,288.49,161a28.94,28.94,0,1,0-40.74,40.74A28.83,28.83,0,0,1,241.11,183.31Z"/><path class="cls-4" d="M267,212.84A31.84,31.84,0,1,1,298.88,181,31.88,31.88,0,0,1,267,212.84ZM267,155a26,26,0,1,0,26,26A26.07,26.07,0,0,0,267,155Z"/><path class="cls-2" d="M266.19,211.29A31.84,31.84,0,1,1,298,179.45,31.87,31.87,0,0,1,266.19,211.29Zm0-57.88a26,26,0,1,0,26.05,26A26.07,26.07,0,0,0,266.19,153.41Z"/><path class="cls-10" d="M267.48,207.1A26,26,0,0,0,287.08,164a25.8,25.8,0,0,1,5.16,15.48,26,26,0,0,1-45.66,17.1A26,26,0,0,0,267.48,207.1Z"/><path class="cls-9" d="M235.64,181.05a31.8,31.8,0,0,1,55.91-20.77,31.79,31.79,0,1,0-49.43,39.94A31.57,31.57,0,0,1,235.64,181.05Z"/><rect class="cls-5" x="142.32" y="253.21" width="259.8" height="139.06"/><rect class="cls-7" x="401" y="253.21" width="9.68" height="139.22"/><rect class="cls-7" x="132.63" y="253.21" width="9.68" height="139.22"/><rect class="cls-6" x="142.32" y="253.21" width="258.68" height="51.18"/><rect class="cls-11" x="152.44" y="260.28" width="238.44" height="2.62"/><rect class="cls-11" x="152.44" y="266.37" width="238.44" height="2.62"/><rect class="cls-11" x="152.44" y="272.46" width="238.44" height="2.62"/><rect class="cls-11" x="152.44" y="278.57" width="238.44" height="2.6"/><rect class="cls-11" x="152.44" y="284.66" width="238.44" height="2.61"/><rect class="cls-11" x="152.44" y="290.75" width="238.44" height="2.61"/><rect class="cls-11" x="152.44" y="296.83" width="238.44" height="2.62"/><polygon class="cls-4" points="401 253.21 142.32 253.21 142.32 392.43 148.33 392.43 148.33 267.68 401 267.68 401 253.21"/><path class="cls-12" d="M492.67,412.16H475.33a2.51,2.51,0,0,1-2.51-2.5V363.39a2.52,2.52,0,0,1,2.51-2.5h17.34a2.51,2.51,0,0,1,2.51,2.5v46.27A2.5,2.5,0,0,1,492.67,412.16Z"/><path class="cls-13" d="M478.84,319.45s0-8.34.89-10.53c.47-1.14,1.5-3.48,4.16-3.48s11.79-.14,13.18.27a4.07,4.07,0,0,1,2.92,4.18c-.13,2.38-.69,5.72-4.31,7.11s-8.22,1.56-9.89,2.45-2.89,5.88-2.89,5.88h-4.29Z"/><path class="cls-5" d="M496.62,316.56a8.14,8.14,0,0,1-.94.44c-3.63,1.39-8.22,1.56-9.9,2.45s-2.88,5.88-2.88,5.88h-4.29l.23-5.88s0-.79,0-2C484.24,318.55,491.87,317.84,496.62,316.56Z"/><g class="cls-14"><path class="cls-15" d="M498.62,308.58c-.11,1-13.07,5-15.57,3.37-1-.65-2.6-3.12-2.06-3.81a4.18,4.18,0,0,1,3.62-1.57c2.3,0,10.25-.06,11.46.12S498.73,307.51,498.62,308.58Z"/></g><path class="cls-13" d="M326.27,319.45s0-8.34-.89-10.53c-.47-1.14-1.5-3.48-4.15-3.48s-11.8-.14-13.19.27a4.08,4.08,0,0,0-2.93,4.18c.14,2.38.7,5.72,4.32,7.11s8.22,1.56,9.89,2.45,2.88,5.88,2.88,5.88h4.31Z"/><path class="cls-5" d="M308.49,316.56a7.43,7.43,0,0,0,.94.44c3.63,1.39,8.23,1.56,9.9,2.45s2.87,5.88,2.87,5.88h4.3l-.23-5.88s0-.79,0-2C320.87,318.55,313.24,317.84,308.49,316.56Z"/><g class="cls-14"><path class="cls-15" d="M306.49,308.58c.11,1,13.07,5,15.57,3.37,1-.65,2.6-3.12,2.06-3.81a4.16,4.16,0,0,0-3.62-1.57c-2.29,0-10.25-.06-11.46.12S306.38,307.51,306.49,308.58Z"/></g><path class="cls-12" d="M312.43,412.16h17.35a2.49,2.49,0,0,0,2.5-2.5V363.39a2.5,2.5,0,0,0-2.5-2.5H312.43a2.52,2.52,0,0,0-2.51,2.5v46.27A2.51,2.51,0,0,0,312.43,412.16Z"/><path class="cls-16" d="M492.05,338c-2.07-5.09-11.83-16.69-15.19-23.13-1.38-2.67-19.78-37.34-23.39-38.46s-46-1.11-50.91-1.11-47.31,0-50.92,1.11-22,35.79-23.39,38.46c-3.36,6.44-13.12,18-15.19,23.13-2.29,5.68-1,47.93,0,51.27s6,5.3,8.22,5.58,81.28,0,81.28,0,79.05.28,81.28,0,7.24-2.24,8.21-5.58S494.35,343.72,492.05,338Z"/><g class="cls-17"><path class="cls-12" d="M493.3,361.13c-.07,12.8-.72,26.34-1.25,28.18-1,3.35-6,5.3-8.21,5.57s-81.28,0-81.28,0-79.06.29-81.29,0-7.23-2.22-8.21-5.57c-.52-1.84-1.16-15.38-1.25-28.18,0,0,67.57,17.24,90.63,17.24S493.3,361.13,493.3,361.13Z"/></g><path class="cls-18" d="M450.67,348.2c6.3-5.68,27.86-15.31,30-16s5.71.12,5.85,3-.56,10.67-3.9,13-19.23,6.14-23.13,5.87S447.4,351.16,450.67,348.2Z"/><path class="cls-11" d="M465.66,370l10.53-2.82a4.17,4.17,0,0,1,5.11,3l3.08,11.44a4.21,4.21,0,0,1-3,5.13l-4.6,1.22a7.12,7.12,0,0,1-6.73-2.11l-3.93-4.67a20.82,20.82,0,0,1-3.61-6.63C462,372.65,463.43,370.63,465.66,370Z"/><path class="cls-19" d="M480.28,381a4.67,4.67,0,1,1-4.67-4.67A4.67,4.67,0,0,1,480.28,381Z"/><path class="cls-8" d="M453.56,281.44c-2.09-1-51-1.36-51-1.36s-48.92.33-51,1.36-19,30.77-17.92,31.67c3.2,2.71,68.93,2.08,68.93,2.08s65.73.63,68.92-2.08C472.52,312.21,455.65,282.45,453.56,281.44Z"/><path class="cls-8" d="M471.48,313.11c-3.2,2.71-68.92,2.08-68.92,2.08s-65.73.63-68.93-2.08c-.21-.19.33-1.6,1.36-3.73,3.93-8.21,14.89-27.14,16.56-27.95,1.4-.68,23.7-1,38.33-1.22,7.29-.1,12.68-.13,12.68-.13s5.38,0,12.66.12c14.66.19,36.94.55,38.34,1.23,1.67.81,12.64,19.75,16.57,27.95C471.15,311.51,471.7,312.92,471.48,313.11Z"/><path class="cls-5" d="M415.22,280.2V285H389.88v-4.77c7.29-.1,12.68-.13,12.68-.13S407.94,280.11,415.22,280.2Z"/><path class="cls-5" d="M471.48,313.11c-3.2,2.71-68.92,2.08-68.92,2.08s-65.73.63-68.93-2.08c-.21-.19.33-1.6,1.36-3.73H470.13C471.15,311.51,471.7,312.92,471.48,313.11Z"/><rect class="cls-5" x="422.97" y="299.23" width="29.11" height="10.15"/><rect class="cls-5" x="353.03" y="299.23" width="29.12" height="10.15"/><g class="cls-14"><path class="cls-15" d="M407.88,280.12l-38.07,35.05c-17-.18-34.57-.7-36.18-2.06-.33-.29,1.13-3.43,3.34-7.65h0l26.92-24.77c15.12-.45,38.67-.6,38.67-.6Z"/></g><g class="cls-14"><path class="cls-15" d="M427.34,280.37l-37.87,34.87c-3.57,0-7.64,0-11.93,0l38-35C419.2,280.24,423.26,280.3,427.34,280.37Z"/></g><g class="cls-20"><path class="cls-12" d="M453.56,281.44a3.94,3.94,0,0,0-1-.2c3.73,4.46,18.22,30.2,17.25,31-3.18,2.71-68.91,2.08-68.91,2.08s-56.52.55-67.28-1.54a.45.45,0,0,0,0,.3c3.2,2.71,68.93,2.08,68.93,2.08s65.73.63,68.92-2.08C472.52,312.21,455.65,282.45,453.56,281.44Z"/></g><path class="cls-5" d="M402.56,380.12c-11.81,0-43.38-2.65-47.15-2.36.15.69,8.14,9.09,13.52,9.75,2.49.3,25.21,1.66,33.63,1.66s31.14-1.36,33.62-1.66c5.38-.66,13.38-9.06,13.52-9.75C445.93,377.47,414.35,380.12,402.56,380.12Z"/><g class="cls-14"><path class="cls-12" d="M402.56,381.79c10.89,0,38.62-2.25,45.79-2.37a9.4,9.4,0,0,0,1.35-1.66c-3.77-.29-35.35,2.36-47.14,2.36s-43.38-2.65-47.15-2.36a8.9,8.9,0,0,0,1.35,1.66C363.92,379.54,391.66,381.79,402.56,381.79Z"/></g><path class="cls-18" d="M354.43,348.2c-6.3-5.68-27.86-15.31-29.95-16s-5.71.12-5.85,3,.56,10.67,3.9,13,19.22,6.14,23.13,5.87S357.71,351.16,354.43,348.2Z"/><path class="cls-5" d="M438.82,348.61c-6.93-.23-27.19-.68-36.26-.68s-29.34.45-36.27.68c-2.55.1-7.51,3-5.19,7.25,1.58,2.86,6.33,7.27,9.26,11.41a11.73,11.73,0,0,0,6.38,4.14c7.86,1.55,19.25,4.94,25.82,4.94s17.95-3.39,25.81-4.94a11.79,11.79,0,0,0,6.39-4.14c2.92-4.14,7.68-8.55,9.25-11.41C446.33,351.62,441.37,348.71,438.82,348.61Z"/><path class="cls-7" d="M402.56,377.19c-4.65,0-11.42-1.6-18-3.16-2.87-.68-5.59-1.32-8-1.8a12.51,12.51,0,0,1-6.9-4.48,71.12,71.12,0,0,0-4.75-5.75,37.83,37.83,0,0,1-4.55-5.74,4.79,4.79,0,0,1-.07-4.9,7.83,7.83,0,0,1,6-3.58c6.67-.23,27.05-.68,36.29-.68s29.61.45,36.28.68a7.78,7.78,0,0,1,6,3.58,4.76,4.76,0,0,1-.06,4.9,38.48,38.48,0,0,1-4.55,5.74,71.12,71.12,0,0,0-4.75,5.75,12.46,12.46,0,0,1-6.91,4.48c-2.41.48-5.13,1.12-8,1.8C414,375.59,407.2,377.19,402.56,377.19Zm0-28.42c-9.22,0-29.57.45-36.24.68a6.36,6.36,0,0,0-4.58,2.74,3.16,3.16,0,0,0,.1,3.26,36.53,36.53,0,0,0,4.33,5.45,71.67,71.67,0,0,1,4.86,5.88,11,11,0,0,0,5.87,3.81c2.44.48,5.18,1.13,8.07,1.82,6.46,1.53,13.14,3.11,17.59,3.11s11.12-1.58,17.59-3.11c2.88-.69,5.62-1.34,8.06-1.82a11,11,0,0,0,5.87-3.81,73.6,73.6,0,0,1,4.85-5.88,37.38,37.38,0,0,0,4.34-5.45,3.16,3.16,0,0,0,.09-3.26,6.3,6.3,0,0,0-4.57-2.74C432.11,349.22,411.77,348.77,402.56,348.77Z"/><path class="cls-11" d="M339.45,370l-10.52-2.82a4.17,4.17,0,0,0-5.12,3l-3.07,11.44a4.19,4.19,0,0,0,2.95,5.13L328.3,388a7.12,7.12,0,0,0,6.73-2.11l3.93-4.67a20.82,20.82,0,0,0,3.61-6.63C343.07,372.65,341.68,370.63,339.45,370Z"/><path class="cls-19" d="M324.83,381a4.67,4.67,0,1,0,4.67-4.67A4.67,4.67,0,0,0,324.83,381Z"/><polygon class="cls-15" points="478.79 317.92 478.52 317.85 478.68 317.04 478.94 317.08 478.79 317.92"/><g class="cls-14"><path class="cls-15" d="M478.11,325.27,475,320.13a8.05,8.05,0,0,0-6.34-3.51l-66.09,1.71-66.09-1.71a8.09,8.09,0,0,0-6.35,3.51L327,325.27a3.52,3.52,0,0,0,1.68,5.22l21.64,9.24A48.83,48.83,0,0,0,366.38,343h72.36a48.83,48.83,0,0,0,16.05-3.29l21.64-9.24A3.54,3.54,0,0,0,478.11,325.27Z"/></g><path class="cls-6" d="M365.3,354.83q9.31-.48,18.62-.64c6.21-.14,12.43-.17,18.64-.19s12.41.05,18.62.19,12.42.32,18.64.64c-6.22.33-12.42.55-18.64.66s-12.42.17-18.62.18-12.43-.06-18.64-.18S371.51,355.16,365.3,354.83Z"/><path class="cls-6" d="M369.41,358.49q8.28-.5,16.57-.65c5.52-.14,11-.18,16.58-.19s11,.05,16.57.18,11.05.33,16.57.66q-8.28.5-16.57.65c-5.53.14-11.05.17-16.57.18s-11.06-.05-16.58-.18S374.93,358.82,369.41,358.49Z"/><path class="cls-6" d="M373.52,362.14c4.84-.33,9.68-.53,14.52-.64s9.67-.18,14.52-.19,9.67.05,14.51.19,9.68.31,14.52.64c-4.84.34-9.68.54-14.52.66s-9.68.17-14.51.18-9.68-.06-14.52-.18S378.36,362.48,373.52,362.14Z"/><path class="cls-6" d="M377.64,365.8c4.15-.34,8.3-.53,12.45-.65s8.3-.17,12.47-.19,8.3.05,12.46.19,8.3.3,12.45.65c-4.15.34-8.3.53-12.45.65s-8.31.17-12.46.19-8.31-.06-12.47-.19S381.79,366.14,377.64,365.8Z"/><path class="cls-6" d="M381.75,369.45c3.46-.34,6.94-.53,10.4-.65s6.94-.17,10.41-.18,6.93.05,10.4.18,6.93.31,10.4.65c-3.47.34-6.94.53-10.4.65s-6.94.17-10.4.18-6.94,0-10.41-.18S385.21,369.79,381.75,369.45Z"/><path class="cls-18" d="M82.67,29.06a5.2,5.2,0,0,1-5.19-5.19V5.19a5.19,5.19,0,1,1,10.38,0V23.87A5.19,5.19,0,0,1,82.67,29.06Z"/><path class="cls-18" d="M41.09,46.28a5.15,5.15,0,0,1-3.67-1.52L24.22,31.55a5.09,5.09,0,0,1-1.52-3.67,5.18,5.18,0,0,1,8.85-3.67L44.76,37.43a5.19,5.19,0,0,1-3.67,8.85Z"/><path class="cls-18" d="M5.2,87.87a5.19,5.19,0,1,1,0-10.38H23.87a5.19,5.19,0,1,1,0,10.38Z"/><path class="cls-18" d="M141.47,87.87a5.19,5.19,0,0,1,0-10.38h18.68a5.19,5.19,0,1,1,0,10.38Z"/><path class="cls-18" d="M142.65,27.88a5.17,5.17,0,0,0-1.53-3.67,5.07,5.07,0,0,0-3.68-1.5,5.14,5.14,0,0,0-3.66,1.5l-13.2,13.21a5.18,5.18,0,1,0,7.33,7.32l13.21-13.19A5.1,5.1,0,0,0,142.65,27.88Z"/><path class="cls-19" d="M82.67,40.31A45.94,45.94,0,0,0,36.74,86.24v34.23H128.6V86.24A45.93,45.93,0,0,0,82.67,40.31Z"/><path class="cls-9" d="M73.69,52c4.82-7,3.14-10.89-4.5-7.28A45.93,45.93,0,0,0,42.87,86.24v34.23H62.76V87A61.19,61.19,0,0,1,73.69,52Z"/><rect class="cls-7" x="33.93" y="120.47" width="97.47" height="8.4"/><rect class="cls-4" x="33.93" y="127.59" width="97.47" height="1.28"/><rect class="cls-6" x="28.2" y="128.87" width="108.95" height="5.86"/><rect class="cls-4" x="36.74" y="118.91" width="91.86" height="1.56"/></g></g></svg>