<svg xmlns="http://www.w3.org/2000/svg" viewBox="0 0 487.79 491.76"><defs><style>.cls-1{fill:#5c5c5c;}.cls-2{fill:#aeaeae;}.cls-3{fill:#fff;}.cls-4{fill:#d3d3d3;}.cls-5{fill:#7d7d7d;}.cls-6{fill:#3d3d3d;}.cls-7{fill:#ef3e4e;}.cls-8{fill:#3b95d1;}.cls-9{fill:#fbb580;}.cls-10{fill:#803522;}.cls-11{fill:#e11d38;}.cls-12{fill:#297dc1;}.cls-13{fill:#ec8a41;}.cls-14{fill:#fcb33d;}.cls-15{fill:#e09026;}.cls-16{fill:#336cb5;}.cls-17{fill:#31312f;}</style></defs><g id="Layer_2" data-name="Layer 2"><g id="Layer_1-2" data-name="Layer 1"><rect class="cls-1" x="114.73" width="341.65" height="249.75"/><rect class="cls-2" x="124.64" y="9.96" width="155.93" height="229.83"/><rect class="cls-2" x="290.55" y="9.96" width="155.93" height="229.83"/><rect class="cls-3" x="138.94" y="28.65" width="141.63" height="17.13"/><rect class="cls-4" x="144.76" y="39.48" width="135.8" height="6.3"/><rect class="cls-1" x="132.72" y="16.59" width="24.24" height="41.36"/><rect class="cls-2" x="134.38" y="18.85" width="20.92" height="36.84"/><rect class="cls-5" x="137" y="33.17" width="15.69" height="12.6"/><rect class="cls-4" x="138.94" y="35.67" width="2.85" height="7.61"/><rect class="cls-4" x="143.42" y="35.67" width="2.85" height="7.61"/><rect class="cls-4" x="147.81" y="35.67" width="2.85" height="7.61"/><path class="cls-6" d="M247.05,37.27a5.94,5.94,0,1,1-5.94-5.94A5.94,5.94,0,0,1,247.05,37.27Z"/><path class="cls-6" d="M262.33,37.21a5,5,0,1,1-5-5A5,5,0,0,1,262.33,37.21Z"/><path class="cls-7" d="M241.05,48.86h0a2.68,2.68,0,0,1-2.67-2.67v-9a2.68,2.68,0,0,1,2.67-2.67h0a2.68,2.68,0,0,1,2.68,2.67v9A2.68,2.68,0,0,1,241.05,48.86Z"/><path class="cls-7" d="M257.3,40.15h0a1.09,1.09,0,0,1-1.09-1.09V35.37a1.09,1.09,0,0,1,1.09-1.09h0a1.1,1.1,0,0,1,1.1,1.09v3.69A1.1,1.1,0,0,1,257.3,40.15Z"/><rect class="cls-6" x="138.35" y="57.95" width="2.69" height="4.69"/><rect class="cls-6" x="143.42" y="57.95" width="2.69" height="4.69"/><rect class="cls-6" x="148.49" y="57.95" width="2.69" height="4.69"/><rect class="cls-4" x="249.67" y="50.74" width="2.61" height="4.96"/><rect class="cls-4" x="256" y="50.74" width="2.61" height="4.96"/><rect class="cls-4" x="262.33" y="50.74" width="2.62" height="4.96"/><rect class="cls-1" x="205.64" y="55.69" width="30.69" height="39.76"/><rect class="cls-5" x="205.64" y="62.99" width="30.69" height="25.17"/><rect class="cls-1" x="246.31" y="55.69" width="22" height="39.76"/><rect class="cls-5" x="246.31" y="62.99" width="22" height="25.17"/><rect class="cls-5" x="210.69" y="45.78" width="3.17" height="9.92"/><rect class="cls-5" x="219.56" y="45.78" width="3.17" height="9.92"/><rect class="cls-5" x="228.43" y="45.78" width="3.17" height="9.92"/><rect class="cls-4" x="207.83" y="80.71" width="12.99" height="1.9"/><rect class="cls-7" x="138.35" y="62.65" width="2.69" height="12.92"/><rect class="cls-3" x="143.42" y="62.65" width="2.69" height="12.92"/><rect class="cls-8" x="148.49" y="62.65" width="2.69" height="12.92"/><path class="cls-6" d="M141.79,87.84v24.47a2.16,2.16,0,1,0,4.32,0V87.84Z"/><path class="cls-6" d="M160.51,87.84v24.47a2.16,2.16,0,1,0,4.32,0V87.84Z"/><path class="cls-6" d="M179.69,87.84v24.47a2.16,2.16,0,1,0,4.31,0V87.84Z"/><path class="cls-6" d="M133.42,231c-.12-.47-3-11.56,5.37-17.43a15.4,15.4,0,0,0,6.63-13.16l1.89-.17a17.08,17.08,0,0,1-7.44,14.89c-7.3,5.09-4.64,15.27-4.61,15.37Z"/><path class="cls-6" d="M158.37,231.59l-.68-1.78a.53.53,0,0,0-.23.16c.48-.69.87-5.57-3.31-11.81-4.75-7.1-3.73-18.9-3.68-19.4l1.89.18c0,.11-1,11.63,3.37,18.16,4.2,6.28,4.22,11.4,3.64,13.22A1.82,1.82,0,0,1,158.37,231.59Z"/><path class="cls-6" d="M169.21,228.81l-1.9,0c.09-10.81.16-27.27,0-28.33l.92-.18.68-.67C169.31,200,169.44,200.11,169.21,228.81Z"/><path class="cls-6" d="M183.74,229.06l-1.83-.52a20.07,20.07,0,0,0-1.75-13.33,53.43,53.43,0,0,1-5-14.79l1.87-.29a52.94,52.94,0,0,0,4.87,14.21A21.64,21.64,0,0,1,183.74,229.06Z"/><path class="cls-6" d="M191.19,230.71l-1.9,0c.16-19.44,6.87-37.13,12.46-48.54s5.14-38.51,5.13-38.78l1.9,0c0,1.13.46,27.86-5.32,39.65C198,194.22,191.35,211.62,191.19,230.71Z"/><path class="cls-6" d="M206.75,226c0-.2-1.32-20.41,5.27-46.06,3.19-12.38,3.42-35.9,3.42-36.14l1.9,0c0,1-.23,24-3.47,36.6-6.52,25.32-5.24,45.25-5.23,45.45Z"/><path class="cls-6" d="M229.88,228c0-.22-.36-21.79-2.93-30.65-3.15-10.82-2.83-52.23-2.82-54H226c0,.43-.33,42.89,2.75,53.45,2.64,9.11,3,30.26,3,31.15Z"/><path class="cls-6" d="M217.9,226a67.18,67.18,0,0,1,1-16.79c.78-3.73,3.4-9.54,6.16-15.7,3.25-7.2,6.6-14.65,7.19-19.17,1.1-8.4,1.07-30.32,1.07-30.54h1.9c0,.9,0,22.27-1.09,30.79-.63,4.79-4,12.37-7.33,19.7-2.73,6.06-5.3,11.78-6,15.31a66.13,66.13,0,0,0-1,16.25Z"/><path class="cls-6" d="M274.39,228l-1.9-.13c.43-6.36-1.61-22.49-3.24-35.45-.62-4.84-1.19-9.35-1.59-13-1.49-13.54-2.36-36.56-2.37-36.79l1.9-.07c0,.23.88,23.18,2.36,36.65.4,3.63,1,8.14,1.58,13C272.86,205.93,274.83,221.48,274.39,228Z"/><path class="cls-6" d="M241.47,228a118.33,118.33,0,0,1,.72-16.92c.89-6.58,3.42-13.47,6.36-21.45,1.49-4,3-8.18,4.49-12.71,3.18-9.75,2.82-32.85,2.82-33.08l1.9,0c0,1,.37,23.65-2.91,33.7-1.48,4.56-3,8.74-4.51,12.78-2.9,7.87-5.41,14.67-6.27,21.05a118.82,118.82,0,0,0-.7,16.59Z"/><path class="cls-6" d="M260.6,228c0-.17-.37-16.59-1.29-26-.59-5.89-3.33-12.42-5.75-18.19a84.41,84.41,0,0,1-3.5-9.22c-3.2-11.41-2.91-30.48-2.89-31.29l1.9,0c0,.2-.3,19.61,2.82,30.75a84.64,84.64,0,0,0,3.42,9c2.47,5.88,5.28,12.56,5.89,18.74.94,9.43,1.3,25.93,1.3,26.1Z"/><rect class="cls-3" x="132.72" y="75.57" width="59.9" height="12.58"/><rect class="cls-5" x="135.02" y="77.86" width="16.8" height="8.08"/><rect class="cls-5" x="154.27" y="77.86" width="16.8" height="8.08"/><rect class="cls-5" x="173.45" y="77.86" width="16.8" height="8.08"/><rect class="cls-6" x="138.35" y="77.86" width="2.02" height="8.08"/><rect class="cls-6" x="157.09" y="77.86" width="2.02" height="8.08"/><rect class="cls-6" x="176.81" y="77.86" width="2.02" height="8.08"/><rect class="cls-7" x="142.6" y="113.91" width="2.69" height="32.64"/><rect class="cls-3" x="161.32" y="113.91" width="2.69" height="32.64"/><rect class="cls-8" x="180.5" y="113.91" width="2.69" height="32.64"/><rect class="cls-6" x="124.64" y="225.39" width="155.93" height="7.61"/><path class="cls-3" d="M135.57,228.8a1.9,1.9,0,1,1-1.9-1.9A1.9,1.9,0,0,1,135.57,228.8Z"/><circle class="cls-3" cx="146.11" cy="228.8" r="1.9"/><path class="cls-3" d="M160.45,228.8a1.9,1.9,0,1,1-1.9-1.9A1.9,1.9,0,0,1,160.45,228.8Z"/><circle class="cls-3" cx="170.99" cy="228.8" r="1.9"/><path class="cls-3" d="M185.33,228.8a1.9,1.9,0,1,1-1.9-1.9A1.9,1.9,0,0,1,185.33,228.8Z"/><circle class="cls-3" cx="195.87" cy="228.8" r="1.9"/><path class="cls-3" d="M210.21,228.8a1.9,1.9,0,1,1-1.9-1.9A1.9,1.9,0,0,1,210.21,228.8Z"/><circle class="cls-3" cx="220.75" cy="228.8" r="1.9"/><path class="cls-3" d="M235.09,228.8a1.9,1.9,0,1,1-1.9-1.9A1.9,1.9,0,0,1,235.09,228.8Z"/><circle class="cls-3" cx="245.63" cy="228.8" r="1.9"/><circle class="cls-3" cx="258.07" cy="228.8" r="1.9"/><path class="cls-3" d="M272.41,228.8a1.9,1.9,0,1,1-1.9-1.9A1.9,1.9,0,0,1,272.41,228.8Z"/><rect class="cls-3" x="124.64" y="146.55" width="73.13" height="5.95"/><rect class="cls-6" x="205.64" y="95.45" width="4.12" height="31.38"/><rect class="cls-6" x="214.33" y="95.45" width="4.12" height="31.38"/><rect class="cls-6" x="223.02" y="95.45" width="4.12" height="31.38"/><rect class="cls-6" x="232.21" y="95.45" width="4.12" height="31.38"/><rect class="cls-6" x="246.31" y="95.45" width="4.12" height="31.38"/><rect class="cls-6" x="255" y="95.45" width="4.12" height="31.38"/><rect class="cls-6" x="264.19" y="95.45" width="4.12" height="31.38"/><path class="cls-3" d="M207.83,123.26h0a3.45,3.45,0,0,0-3.44,3.44v.9a3.45,3.45,0,0,0,3.44,3.44h0a3.45,3.45,0,0,0,3.45-3.44v-.9A3.45,3.45,0,0,0,207.83,123.26Z"/><path class="cls-5" d="M204.39,126.69v14.64a3.45,3.45,0,0,0,6.89,0V126.69Z"/><circle class="cls-6" cx="207.79" cy="125.03" r="0.86"/><path class="cls-3" d="M216.39,123.26h0A3.45,3.45,0,0,0,213,126.7v.9a3.45,3.45,0,0,0,3.44,3.44h0a3.45,3.45,0,0,0,3.44-3.44v-.9A3.45,3.45,0,0,0,216.39,123.26Z"/><path class="cls-5" d="M213,126.69v14.64a3.44,3.44,0,1,0,6.88,0V126.69Z"/><path class="cls-6" d="M217.21,125a.86.86,0,1,1-.86-.85A.86.86,0,0,1,217.21,125Z"/><path class="cls-3" d="M225.08,123.26h0a3.45,3.45,0,0,0-3.44,3.44v.9a3.45,3.45,0,0,0,3.44,3.44h0a3.45,3.45,0,0,0,3.45-3.44v-.9A3.45,3.45,0,0,0,225.08,123.26Z"/><path class="cls-5" d="M221.64,126.69v14.64a3.45,3.45,0,0,0,6.89,0V126.69Z"/><circle class="cls-6" cx="225.04" cy="125.03" r="0.86"/><path class="cls-3" d="M234.27,123.26h0a3.45,3.45,0,0,0-3.44,3.44v.9a3.45,3.45,0,0,0,3.44,3.44h0a3.45,3.45,0,0,0,3.44-3.44v-.9A3.45,3.45,0,0,0,234.27,123.26Z"/><path class="cls-5" d="M230.83,126.69v14.64a3.44,3.44,0,0,0,6.88,0V126.69Z"/><circle class="cls-6" cx="234.23" cy="125.03" r="0.86"/><path class="cls-3" d="M248.12,123.26h0a3.45,3.45,0,0,0-3.45,3.44v.9a3.45,3.45,0,0,0,3.45,3.44h0a3.45,3.45,0,0,0,3.44-3.44v-.9A3.45,3.45,0,0,0,248.12,123.26Z"/><path class="cls-5" d="M244.67,126.69v14.64a3.45,3.45,0,0,0,6.89,0V126.69Z"/><circle class="cls-6" cx="248.08" cy="125.03" r="0.86"/><path class="cls-3" d="M256.81,123.26h0a3.45,3.45,0,0,0-3.44,3.44v.9a3.45,3.45,0,0,0,3.44,3.44h0a3.45,3.45,0,0,0,3.44-3.44v-.9A3.45,3.45,0,0,0,256.81,123.26Z"/><path class="cls-5" d="M253.37,126.69v14.64a3.44,3.44,0,0,0,6.88,0V126.69Z"/><circle class="cls-6" cx="256.77" cy="125.03" r="0.86"/><path class="cls-3" d="M266,123.26h0a3.45,3.45,0,0,0-3.45,3.44v.9A3.45,3.45,0,0,0,266,131h0a3.45,3.45,0,0,0,3.44-3.44v-.9A3.45,3.45,0,0,0,266,123.26Z"/><path class="cls-5" d="M262.55,126.69v14.64a3.45,3.45,0,0,0,6.89,0V126.69Z"/><circle class="cls-6" cx="265.96" cy="125.03" r="0.86"/><rect class="cls-5" x="124.64" y="152.5" width="73.13" height="49.44"/><rect class="cls-1" x="128.28" y="156.94" width="24.17" height="40.57"/><rect class="cls-1" x="157.92" y="156.94" width="36.01" height="40.57"/><rect class="cls-3" x="131.77" y="160.5" width="16.24" height="7.29"/><rect class="cls-3" x="160.91" y="160.5" width="3.64" height="7.29"/><rect class="cls-3" x="167.46" y="160.5" width="3.64" height="7.29"/><rect class="cls-3" x="174" y="160.5" width="3.64" height="7.29"/><rect class="cls-3" x="180.54" y="160.5" width="3.64" height="7.29"/><rect class="cls-3" x="187.08" y="160.5" width="3.64" height="7.29"/><rect class="cls-6" x="131.57" y="172.77" width="16.24" height="2.03"/><rect class="cls-6" x="131.57" y="178.86" width="16.24" height="2.03"/><path class="cls-6" d="M144.91,189.93a5,5,0,1,1-5-5A5,5,0,0,1,144.91,189.93Z"/><path class="cls-7" d="M139.89,192.87h0a1.09,1.09,0,0,1-1.09-1.09v-3.69a1.09,1.09,0,0,1,1.09-1.09h0a1.09,1.09,0,0,1,1.09,1.09v3.69A1.09,1.09,0,0,1,139.89,192.87Z"/><path class="cls-6" d="M173,189.93a5,5,0,1,1-5-5A5,5,0,0,1,173,189.93Z"/><path class="cls-7" d="M167.94,192.87h0a1.09,1.09,0,0,1-1.09-1.09v-3.69a1.09,1.09,0,0,1,1.09-1.09h0a1.1,1.1,0,0,1,1.1,1.09v3.69A1.1,1.1,0,0,1,167.94,192.87Z"/><path class="cls-6" d="M189,189.93a5,5,0,1,1-5-5A5,5,0,0,1,189,189.93Z"/><path class="cls-7" d="M184,192.87h0a1.09,1.09,0,0,1-1.09-1.09v-3.69A1.09,1.09,0,0,1,184,187h0a1.1,1.1,0,0,1,1.1,1.09v3.69A1.1,1.1,0,0,1,184,192.87Z"/><path class="cls-3" d="M175.19,35.71l-1.9-.07s.15-4.32,0-12.19c-.1-5.14-1.48-7.55-2.63-8a1.43,1.43,0,0,0-1.57.41c-2.35,2.1-2.51,7.58-2.38,9.51l-1.9.13c0-.32-.5-7.91,3-11.06a3.3,3.3,0,0,1,3.6-.73c2.29,1,3.67,4.55,3.77,9.75C175.35,31.35,175.19,35.67,175.19,35.71Z"/><rect class="cls-6" x="164.52" y="23.43" width="2.47" height="5.22"/><path class="cls-3" d="M190.48,35.71l-1.9-.07s.16-4.32,0-12.19c-.1-5.14-1.48-7.55-2.63-8a1.44,1.44,0,0,0-1.57.41c-2.35,2.1-2.51,7.58-2.38,9.51l-1.9.13c0-.32-.5-7.91,3-11.06a3.3,3.3,0,0,1,3.6-.73c2.29,1,3.67,4.55,3.77,9.75C190.64,31.35,190.48,35.67,190.48,35.71Z"/><rect class="cls-6" x="179.82" y="23.43" width="2.47" height="5.22"/><path class="cls-3" d="M206.34,35.71l-1.9-.07s.15-4.32,0-12.19c-.1-5.14-1.48-7.55-2.63-8a1.43,1.43,0,0,0-1.57.41c-2.35,2.1-2.51,7.58-2.38,9.51l-1.9.13c0-.32-.5-7.91,3-11.06a3.3,3.3,0,0,1,3.6-.73c2.29,1,3.67,4.55,3.77,9.75C206.5,31.35,206.34,35.67,206.34,35.71Z"/><rect class="cls-6" x="195.67" y="23.43" width="2.47" height="5.22"/><path class="cls-3" d="M222.2,35.71l-1.91-.07s.16-4.32,0-12.19c-.1-5.14-1.47-7.55-2.62-8a1.43,1.43,0,0,0-1.57.41c-2.35,2.1-2.52,7.58-2.38,9.51l-1.9.13c0-.32-.5-7.91,3-11.06a3.29,3.29,0,0,1,3.6-.73c2.29,1,3.66,4.55,3.77,9.75C222.35,31.35,222.2,35.67,222.2,35.71Z"/><rect class="cls-6" x="211.53" y="23.43" width="2.47" height="5.22"/><rect class="cls-1" x="233.84" y="24.55" width="31.65" height="4.1"/><rect class="cls-7" x="238.99" y="20.46" width="2.56" height="4.1"/><rect class="cls-7" x="245.29" y="20.46" width="2.56" height="4.1"/><rect class="cls-7" x="251.59" y="20.46" width="2.56" height="4.1"/><rect class="cls-7" x="257.89" y="20.46" width="2.56" height="4.1"/><rect class="cls-3" x="290.55" y="28.65" width="141.63" height="17.13" transform="translate(722.73 74.43) rotate(180)"/><rect class="cls-4" x="290.55" y="39.48" width="135.81" height="6.3" transform="translate(716.91 85.25) rotate(180)"/><rect class="cls-1" x="414.16" y="16.59" width="24.25" height="41.36" transform="translate(852.56 74.55) rotate(180)"/><rect class="cls-2" x="415.82" y="18.85" width="20.92" height="36.84" transform="translate(852.56 74.55) rotate(180)"/><rect class="cls-5" x="418.43" y="33.17" width="15.69" height="12.6" transform="translate(852.56 78.95) rotate(180)"/><rect class="cls-4" x="429.33" y="35.67" width="2.85" height="7.61" transform="translate(861.51 78.95) rotate(180)"/><rect class="cls-4" x="424.85" y="35.67" width="2.85" height="7.61" transform="translate(852.56 78.95) rotate(180)"/><rect class="cls-4" x="420.46" y="35.67" width="2.85" height="7.61" transform="translate(843.76 78.95) rotate(180)"/><path class="cls-6" d="M324.07,37.27A5.94,5.94,0,1,0,330,31.33,5.94,5.94,0,0,0,324.07,37.27Z"/><path class="cls-6" d="M308.8,37.21a5,5,0,1,0,5-5A5,5,0,0,0,308.8,37.21Z"/><path class="cls-7" d="M330.07,48.86h0a2.68,2.68,0,0,0,2.67-2.67v-9a2.68,2.68,0,0,0-2.67-2.67h0a2.68,2.68,0,0,0-2.67,2.67v9A2.68,2.68,0,0,0,330.07,48.86Z"/><path class="cls-7" d="M313.82,40.15h0a1.09,1.09,0,0,0,1.09-1.09V35.37a1.09,1.09,0,0,0-1.09-1.09h0a1.09,1.09,0,0,0-1.09,1.09v3.69A1.09,1.09,0,0,0,313.82,40.15Z"/><rect class="cls-6" x="430.08" y="57.95" width="2.69" height="4.69" transform="translate(862.86 120.6) rotate(180)"/><rect class="cls-6" x="425.01" y="57.95" width="2.69" height="4.69" transform="translate(852.72 120.6) rotate(180)"/><rect class="cls-6" x="419.94" y="57.95" width="2.69" height="4.69" transform="translate(842.57 120.6) rotate(180)"/><rect class="cls-4" x="318.84" y="50.74" width="2.62" height="4.96" transform="translate(640.29 106.43) rotate(180)"/><rect class="cls-4" x="312.51" y="50.74" width="2.61" height="4.96" transform="translate(627.63 106.43) rotate(180)"/><rect class="cls-4" x="306.18" y="50.74" width="2.61" height="4.96" transform="translate(614.98 106.43) rotate(180)"/><rect class="cls-1" x="334.79" y="55.69" width="30.69" height="39.76" transform="translate(700.28 151.15) rotate(180)"/><rect class="cls-5" x="334.79" y="62.99" width="30.69" height="25.17" transform="translate(700.28 151.15) rotate(180)"/><rect class="cls-1" x="302.82" y="55.69" width="22" height="39.76" transform="translate(627.63 151.15) rotate(180)"/><rect class="cls-5" x="302.82" y="62.99" width="22" height="25.17" transform="translate(627.63 151.15) rotate(180)"/><rect class="cls-5" x="357.27" y="45.78" width="3.17" height="9.92" transform="translate(717.7 101.47) rotate(180)"/><rect class="cls-5" x="348.39" y="45.78" width="3.17" height="9.92" transform="translate(699.95 101.47) rotate(180)"/><rect class="cls-5" x="339.52" y="45.78" width="3.17" height="9.92" transform="translate(682.21 101.47) rotate(180)"/><rect class="cls-4" x="350.29" y="80.71" width="12.99" height="1.9" transform="translate(713.58 163.32) rotate(180)"/><rect class="cls-7" x="430.08" y="62.65" width="2.69" height="12.92" transform="translate(862.86 138.22) rotate(180)"/><rect class="cls-3" x="425.01" y="62.65" width="2.69" height="12.92" transform="translate(852.72 138.22) rotate(180)"/><rect class="cls-8" x="419.94" y="62.65" width="2.69" height="12.92" transform="translate(842.57 138.22) rotate(180)"/><path class="cls-6" d="M429.33,87.84v24.47a2.16,2.16,0,1,1-4.32,0V87.84Z"/><path class="cls-6" d="M410.61,87.84v24.47a2.16,2.16,0,0,1-4.32,0V87.84Z"/><path class="cls-6" d="M391.44,87.84v24.47a2.16,2.16,0,0,1-4.32,0V87.84Z"/><path class="cls-6" d="M437.7,231c.13-.47,3.05-11.56-5.36-17.43a15.34,15.34,0,0,1-6.63-13.16l-1.9-.17a17.08,17.08,0,0,0,7.44,14.89c7.31,5.09,4.64,15.27,4.61,15.37Z"/><path class="cls-6" d="M412.75,231.59l.68-1.78a.47.47,0,0,1,.23.16c-.48-.69-.87-5.57,3.31-11.81,4.75-7.1,3.73-18.9,3.68-19.4l-1.89.18c0,.11,1,11.63-3.37,18.16-4.2,6.28-4.21,11.4-3.64,13.22A1.85,1.85,0,0,0,412.75,231.59Z"/><path class="cls-6" d="M401.91,228.81l1.9,0c-.09-10.81-.16-27.27,0-28.33l-.92-.18-.68-.67C401.81,200,401.68,200.11,401.91,228.81Z"/><path class="cls-6" d="M387.38,229.06l1.83-.52A20.07,20.07,0,0,1,391,215.21,53.66,53.66,0,0,0,396,200.42l-1.88-.29a52.52,52.52,0,0,1-4.87,14.21A21.64,21.64,0,0,0,387.38,229.06Z"/><path class="cls-6" d="M379.93,230.71l1.9,0c-.16-19.44-6.86-37.13-12.46-48.54s-5.14-38.51-5.13-38.78l-1.9,0c0,1.13-.46,27.86,5.32,39.65C373.17,194.22,379.77,211.62,379.93,230.71Z"/><path class="cls-6" d="M364.37,226c0-.2,1.32-20.41-5.27-46.06-3.19-12.38-3.41-35.9-3.42-36.14l-1.9,0c0,1,.23,24,3.48,36.6,6.51,25.32,5.23,45.25,5.22,45.45Z"/><path class="cls-6" d="M341.25,228c0-.22.35-21.79,2.92-30.65,3.15-10.82,2.84-52.23,2.82-54h-1.9c0,.43.33,42.89-2.75,53.45-2.64,9.11-3,30.26-3,31.15Z"/><path class="cls-6" d="M353.22,226a67.18,67.18,0,0,0-1-16.79c-.78-3.73-3.39-9.54-6.16-15.7-3.24-7.2-6.59-14.65-7.18-19.17-1.11-8.4-1.08-30.32-1.08-30.54h-1.9c0,.9,0,22.27,1.09,30.79.63,4.79,4,12.37,7.33,19.7,2.73,6.06,5.3,11.78,6,15.31a67.27,67.27,0,0,1,1,16.25Z"/><path class="cls-6" d="M296.74,228l1.89-.13c-.43-6.36,1.61-22.49,3.25-35.45.61-4.84,1.18-9.35,1.58-13,1.49-13.54,2.36-36.56,2.37-36.79l-1.9-.07c0,.23-.88,23.18-2.36,36.65-.4,3.63-1,8.14-1.58,13C298.26,205.93,296.29,221.48,296.74,228Z"/><path class="cls-6" d="M329.65,228a118.33,118.33,0,0,0-.72-16.92c-.88-6.58-3.42-13.47-6.36-21.45-1.48-4-3-8.18-4.49-12.71-3.18-9.75-2.82-32.85-2.82-33.08l-1.9,0c0,1-.37,23.65,2.91,33.7,1.48,4.56,3,8.74,4.51,12.78,2.91,7.87,5.41,14.67,6.27,21.05a117.12,117.12,0,0,1,.7,16.59Z"/><path class="cls-6" d="M310.52,228c0-.17.37-16.59,1.3-26,.58-5.89,3.32-12.42,5.74-18.19a82.4,82.4,0,0,0,3.5-9.22c3.2-11.41,2.91-30.48,2.89-31.29l-1.9,0c0,.2.3,19.61-2.82,30.75a84.64,84.64,0,0,1-3.42,9c-2.47,5.88-5.28,12.56-5.89,18.74-.93,9.43-1.3,25.93-1.3,26.1Z"/><rect class="cls-3" x="378.5" y="75.57" width="59.9" height="12.58" transform="translate(816.9 163.73) rotate(180)"/><rect class="cls-5" x="419.31" y="77.86" width="16.8" height="8.08" transform="translate(855.41 163.8) rotate(180)"/><rect class="cls-5" x="400.05" y="77.86" width="16.8" height="8.08" transform="translate(816.9 163.8) rotate(180)"/><rect class="cls-5" x="380.88" y="77.86" width="16.8" height="8.08" transform="translate(778.55 163.8) rotate(180)"/><rect class="cls-6" x="430.76" y="77.86" width="2.02" height="8.08" transform="translate(863.53 163.8) rotate(180)"/><rect class="cls-6" x="412.02" y="77.86" width="2.02" height="8.08" transform="translate(826.05 163.8) rotate(180)"/><rect class="cls-6" x="392.29" y="77.86" width="2.02" height="8.08" transform="translate(786.6 163.8) rotate(180)"/><rect class="cls-7" x="425.82" y="113.91" width="2.69" height="32.64" transform="translate(854.34 260.46) rotate(180)"/><rect class="cls-3" x="407.1" y="113.91" width="2.69" height="32.64" transform="translate(816.9 260.46) rotate(180)"/><rect class="cls-8" x="387.93" y="113.91" width="2.69" height="32.64" transform="translate(778.55 260.46) rotate(180)"/><rect class="cls-6" x="290.55" y="225.39" width="155.93" height="7.61" transform="translate(737.04 458.39) rotate(180)"/><path class="cls-3" d="M435.55,228.8a1.9,1.9,0,1,0,1.9-1.9A1.9,1.9,0,0,0,435.55,228.8Z"/><circle class="cls-3" cx="425.01" cy="228.8" r="1.9"/><circle class="cls-3" cx="412.57" cy="228.8" r="1.9"/><path class="cls-3" d="M398.23,228.8a1.9,1.9,0,1,0,1.9-1.9A1.9,1.9,0,0,0,398.23,228.8Z"/><circle class="cls-3" cx="387.69" cy="228.8" r="1.9"/><circle class="cls-3" cx="375.25" cy="228.8" r="1.9"/><circle class="cls-3" cx="362.81" cy="228.8" r="1.9"/><path class="cls-3" d="M348.47,228.8a1.9,1.9,0,1,0,1.9-1.9A1.9,1.9,0,0,0,348.47,228.8Z"/><circle class="cls-3" cx="337.93" cy="228.8" r="1.9"/><path class="cls-3" d="M323.59,228.8a1.9,1.9,0,1,0,1.9-1.9A1.9,1.9,0,0,0,323.59,228.8Z"/><circle class="cls-3" cx="313.05" cy="228.8" r="1.9"/><path class="cls-3" d="M298.71,228.8a1.9,1.9,0,1,0,1.9-1.9A1.9,1.9,0,0,0,298.71,228.8Z"/><rect class="cls-3" x="373.35" y="146.55" width="73.13" height="5.95" transform="translate(819.83 299.05) rotate(180)"/><rect class="cls-6" x="361.37" y="95.45" width="4.12" height="31.38" transform="translate(726.85 222.28) rotate(180)"/><rect class="cls-6" x="352.67" y="95.45" width="4.12" height="31.38" transform="translate(709.46 222.28) rotate(180)"/><rect class="cls-6" x="343.98" y="95.45" width="4.12" height="31.38" transform="translate(692.08 222.28) rotate(180)"/><rect class="cls-6" x="334.79" y="95.45" width="4.12" height="31.38" transform="translate(673.71 222.28) rotate(180)"/><rect class="cls-6" x="320.7" y="95.45" width="4.12" height="31.38" transform="translate(645.51 222.28) rotate(180)"/><rect class="cls-6" x="312" y="95.45" width="4.12" height="31.38" transform="translate(628.13 222.28) rotate(180)"/><rect class="cls-6" x="302.82" y="95.45" width="4.12" height="31.38" transform="translate(609.75 222.28) rotate(180)"/><path class="cls-3" d="M363.29,123.26h0a3.45,3.45,0,0,1,3.44,3.44v.9a3.45,3.45,0,0,1-3.44,3.44h0a3.45,3.45,0,0,1-3.44-3.44v-.9A3.45,3.45,0,0,1,363.29,123.26Z"/><path class="cls-5" d="M366.73,126.69v14.64a3.44,3.44,0,1,1-6.88,0V126.69Z"/><circle class="cls-6" cx="363.33" cy="125.03" r="0.86"/><path class="cls-3" d="M354.73,123.26h0a3.45,3.45,0,0,1,3.45,3.44v.9a3.45,3.45,0,0,1-3.45,3.44h0a3.45,3.45,0,0,1-3.44-3.44v-.9A3.45,3.45,0,0,1,354.73,123.26Z"/><path class="cls-5" d="M358.18,126.69v14.64a3.45,3.45,0,0,1-6.89,0V126.69Z"/><circle class="cls-6" cx="354.77" cy="125.03" r="0.86"/><path class="cls-3" d="M346,123.26h0a3.45,3.45,0,0,1,3.44,3.44v.9A3.45,3.45,0,0,1,346,131h0a3.45,3.45,0,0,1-3.44-3.44v-.9A3.45,3.45,0,0,1,346,123.26Z"/><path class="cls-5" d="M349.48,126.69v14.64a3.44,3.44,0,1,1-6.88,0V126.69Z"/><circle class="cls-6" cx="346.08" cy="125.03" r="0.86"/><path class="cls-3" d="M336.85,123.26h0a3.45,3.45,0,0,1,3.45,3.44v.9a3.45,3.45,0,0,1-3.45,3.44h0a3.45,3.45,0,0,1-3.44-3.44v-.9A3.45,3.45,0,0,1,336.85,123.26Z"/><path class="cls-5" d="M340.3,126.69v14.64a3.45,3.45,0,0,1-6.89,0V126.69Z"/><circle class="cls-6" cx="336.89" cy="125.03" r="0.86"/><path class="cls-3" d="M323,123.26h0a3.45,3.45,0,0,1,3.45,3.44v.9A3.45,3.45,0,0,1,323,131h0a3.45,3.45,0,0,1-3.44-3.44v-.9A3.45,3.45,0,0,1,323,123.26Z"/><path class="cls-5" d="M326.45,126.69v14.64a3.45,3.45,0,0,1-6.89,0V126.69Z"/><circle class="cls-6" cx="323.04" cy="125.03" r="0.86"/><path class="cls-3" d="M314.31,123.26h0a3.45,3.45,0,0,1,3.44,3.44v.9a3.45,3.45,0,0,1-3.44,3.44h0a3.45,3.45,0,0,1-3.44-3.44v-.9A3.45,3.45,0,0,1,314.31,123.26Z"/><path class="cls-5" d="M317.75,126.69v14.64a3.44,3.44,0,1,1-6.88,0V126.69Z"/><path class="cls-6" d="M313.49,125a.86.86,0,1,0,.86-.85A.86.86,0,0,0,313.49,125Z"/><path class="cls-3" d="M305.12,123.26h0a3.45,3.45,0,0,1,3.45,3.44v.9a3.45,3.45,0,0,1-3.45,3.44h0a3.45,3.45,0,0,1-3.44-3.44v-.9A3.45,3.45,0,0,1,305.12,123.26Z"/><path class="cls-5" d="M308.57,126.69v14.64a3.45,3.45,0,0,1-6.89,0V126.69Z"/><circle class="cls-6" cx="305.16" cy="125.03" r="0.86"/><rect class="cls-5" x="373.35" y="152.5" width="73.13" height="49.44" transform="translate(819.83 354.44) rotate(180)"/><rect class="cls-1" x="418.67" y="156.94" width="24.17" height="40.57" transform="translate(861.51 354.44) rotate(180)"/><rect class="cls-1" x="377.19" y="156.94" width="36.01" height="40.57" transform="translate(790.4 354.44) rotate(180)"/><rect class="cls-3" x="423.11" y="160.5" width="16.24" height="7.29" transform="translate(862.46 328.29) rotate(180)"/><rect class="cls-3" x="406.56" y="160.5" width="3.64" height="7.29" transform="translate(816.77 328.29) rotate(180)"/><rect class="cls-3" x="400.02" y="160.5" width="3.64" height="7.29" transform="translate(803.69 328.29) rotate(180)"/><rect class="cls-3" x="393.48" y="160.5" width="3.64" height="7.29" transform="translate(790.61 328.29) rotate(180)"/><rect class="cls-3" x="386.94" y="160.5" width="3.64" height="7.29" transform="translate(777.53 328.29) rotate(180)"/><rect class="cls-3" x="380.4" y="160.5" width="3.64" height="7.29" transform="translate(764.45 328.29) rotate(180)"/><rect class="cls-6" x="423.31" y="172.77" width="16.24" height="2.03" transform="translate(862.86 347.56) rotate(180)"/><rect class="cls-6" x="423.31" y="178.86" width="16.24" height="2.03" transform="translate(862.86 359.75) rotate(180)"/><path class="cls-6" d="M426.21,189.93a5,5,0,1,0,5-5A5,5,0,0,0,426.21,189.93Z"/><path class="cls-7" d="M431.23,192.87h0a1.09,1.09,0,0,0,1.09-1.09v-3.69a1.09,1.09,0,0,0-1.09-1.09h0a1.09,1.09,0,0,0-1.09,1.09v3.69A1.09,1.09,0,0,0,431.23,192.87Z"/><path class="cls-6" d="M398.16,189.93a5,5,0,1,0,5-5A5,5,0,0,0,398.16,189.93Z"/><path class="cls-7" d="M403.18,192.87h0a1.09,1.09,0,0,0,1.09-1.09v-3.69a1.09,1.09,0,0,0-1.09-1.09h0a1.09,1.09,0,0,0-1.09,1.09v3.69A1.09,1.09,0,0,0,403.18,192.87Z"/><path class="cls-6" d="M382.1,189.93a5,5,0,1,0,5-5A5,5,0,0,0,382.1,189.93Z"/><path class="cls-7" d="M387.12,192.87h0a1.09,1.09,0,0,0,1.09-1.09v-3.69a1.09,1.09,0,0,0-1.09-1.09h0a1.09,1.09,0,0,0-1.09,1.09v3.69A1.09,1.09,0,0,0,387.12,192.87Z"/><path class="cls-3" d="M395.93,35.71l1.9-.07s-.15-4.32,0-12.19c.11-5.14,1.48-7.55,2.63-8a1.43,1.43,0,0,1,1.57.41c2.35,2.1,2.52,7.58,2.38,9.51l1.9.13c0-.32.5-7.91-3-11.06a3.3,3.3,0,0,0-3.6-.73c-2.29,1-3.66,4.55-3.77,9.75C395.78,31.35,395.93,35.67,395.93,35.71Z"/><rect class="cls-6" x="404.13" y="23.43" width="2.47" height="5.22" transform="translate(810.72 52.08) rotate(180)"/><path class="cls-3" d="M380.64,35.71l1.9-.07s-.16-4.32,0-12.19c.1-5.14,1.48-7.55,2.63-8a1.43,1.43,0,0,1,1.57.41c2.35,2.1,2.51,7.58,2.38,9.51l1.9.13c0-.32.5-7.91-3-11.06a3.3,3.3,0,0,0-3.6-.73c-2.29,1-3.67,4.55-3.77,9.75C380.48,31.35,380.64,35.67,380.64,35.71Z"/><rect class="cls-6" x="388.83" y="23.43" width="2.47" height="5.22" transform="translate(780.14 52.08) rotate(180)"/><path class="cls-3" d="M364.78,35.71l1.91-.07s-.16-4.32,0-12.19c.1-5.14,1.47-7.55,2.62-8a1.43,1.43,0,0,1,1.57.41c2.35,2.1,2.52,7.58,2.38,9.51l1.9.13c0-.32.5-7.91-3-11.06a3.3,3.3,0,0,0-3.6-.73c-2.29,1-3.66,4.55-3.77,9.75C364.63,31.35,364.78,35.67,364.78,35.71Z"/><rect class="cls-6" x="372.98" y="23.43" width="2.47" height="5.22" transform="translate(748.42 52.08) rotate(180)"/><path class="cls-3" d="M348.93,35.71l1.9-.07s-.16-4.32,0-12.19c.1-5.14,1.47-7.55,2.62-8a1.43,1.43,0,0,1,1.57.41c2.35,2.1,2.52,7.58,2.39,9.51l1.89.13c0-.32.51-7.91-3-11.06a3.29,3.29,0,0,0-3.6-.73c-2.29,1-3.66,4.55-3.76,9.75C348.77,31.35,348.92,35.67,348.93,35.71Z"/><rect class="cls-6" x="357.12" y="23.43" width="2.47" height="5.22" transform="translate(716.71 52.08) rotate(180)"/><rect class="cls-1" x="305.63" y="24.55" width="31.65" height="4.1" transform="translate(642.91 53.21) rotate(180)"/><rect class="cls-7" x="329.57" y="20.46" width="2.56" height="4.1" transform="translate(661.7 45.01) rotate(180)"/><rect class="cls-7" x="323.28" y="20.46" width="2.56" height="4.1" transform="translate(649.11 45.01) rotate(180)"/><rect class="cls-7" x="316.98" y="20.46" width="2.56" height="4.1" transform="translate(636.51 45.01) rotate(180)"/><rect class="cls-7" x="310.68" y="20.46" width="2.56" height="4.1" transform="translate(623.91 45.01) rotate(180)"/><path class="cls-6" d="M366.67,462.86s-1.93,8.17-1.28,14,.89,8,15.07,8.15,17.5-1.65,17.36-10.19-.66-15.84-.66-15.84Z"/><path class="cls-6" d="M453.45,460.82s-1.92,8.16-1.28,14,.89,8,15.07,8.14,17.5-1.65,17.36-10.18-.66-15.85-.66-15.85Z"/><path class="cls-9" d="M404.76,85.94a48.75,48.75,0,0,1-.71,15.22,56,56,0,0,1-5,13.31s15.32,7.84,24.16,6.32a37.33,37.33,0,0,0,15.45-6.88s-5.91-8.65-6.66-12.75-.75-15.22-.75-15.22Z"/><path class="cls-10" d="M442.12,60.8c0,16.28-9.61,34.65-23.31,34.65S392.5,77.08,392.5,60.8s4.28-29.15,24.81-29.46C440.25,31,442.12,44.53,442.12,60.8Z"/><path class="cls-9" d="M345.2,170.33s2-27.38,2.8-39.29c.37-5.23-3.32-8-5.12-10.83-1.3-2.06-4.81-14.86-6.84-16-4.38-2.56-7.91,9.74-6.76,16.82,1.08,6.58,4.23,13.33,4.47,15.36s-1.3,17.18-2.09,22.19c-2.58,16.24-2.05,24.78,3,31.39,6.64,8.62,12.75,8.47,17.63,5,5.7-4,11.95-12.49,11.95-12.49Z"/><path class="cls-7" d="M377.13,139.3c.48-8.62,9.37-10.66,8.35,10.22s-.44,42.65,5.44,48,33.83,12.21,43.26,12.64c5.53.25,16.31-.67,24.29-1.48.6-14.91,1.44-33.72,2.23-44.51.75-10.21,8.22-30,1.83-40.89-4.35-7.44-15.83-15.25-29.14-18.4-12.12,5.89-30.33,0-30.33,0S373.64,115,368.69,121c-6.88,8.32-23.82,41.07-25.46,46.8,0,5.4,4.61,10.37,9.12,13.93a116.2,116.2,0,0,0,13-15.72C372.13,155.8,376.65,147.91,377.13,139.3Z"/><path class="cls-11" d="M378.78,161.9c4.15,16.25,3.58,75.16,3.58,75.16l55.15,2.73L457.63,231s.34-9.78.84-22.29c-8,.81-18.76,1.73-24.29,1.48-9.43-.43-37.39-7.31-43.26-12.64s-6.46-27.09-5.44-48-7.87-18.84-8.35-10.22-5,16.5-11.77,26.7a116.2,116.2,0,0,1-13,15.72,57,57,0,0,0,8.46,5.52S374,169.19,378.78,161.9Z"/><path class="cls-8" d="M392,396.26c-5.66-.64-5.3-7.28-1.24-14.54s12.38-46.32,15.44-57.88,7.29-39,3.93-42-8.82-11-6-14.07,13.66.56,22.81,1.5c10,1,18.81-5.7,21.47-1.5s-5.7,14.07-10.38,19,4.68,31.63,6.74,41.84,7.68,44,15,50.06,4.87,6.09,0,11.36-8.53,6.3-4.26,23.34c3,11.91,5.65,35.66,5.75,49.23l26.51-1.28C486.54,445.49,478,346.79,472,310.44c-6.87-41.4-13.69-85.36-13.69-85.36s-22,1.62-29.32,2c-10.18.59-46.43-2.29-46.43-2.29s-9.33,90.32-10.61,115.43c-1,19.08-10.07,92.7-9.54,122.59h24.34c1-12.45,2.79-33.17,4.84-39.9C394.55,413.1,397.69,396.9,392,396.26Z"/><path class="cls-12" d="M407.34,363.56c3.57-17.54,17.25-86.48,17.25-86.48s10.32,78.45,12.52,86.48c1.92,7,10.2,81.26,12.63,99.3l11.54-.3c-.1-13.57-2.78-37.32-5.75-49.23-4.27-17-.6-18.07,4.26-23.34s7.32-5.28,0-11.36-12.93-39.85-15-50.06-11.41-36.93-6.74-41.84,13-14.78,10.38-19S437,270.3,427,269.26c-9.15-.94-20-4.62-22.81-1.5s2.64,11,6,14.07-.87,30.44-3.93,42-11.37,50.63-15.44,57.88-4.42,13.9,1.24,14.54,2.52,16.84-.48,26.7c-2.05,6.73-3.88,27.45-4.84,39.9H398C402.68,438.07,404.53,377.36,407.34,363.56Z"/><path class="cls-9" d="M347.6,111.73c-.19-1.2-3.09-.67-3.09,2.46a87.39,87.39,0,0,1-1.37,10.8c-.12.66,4.68,9,4.68,9s1.25-7.22.84-11.38S348,114.36,347.6,111.73Z"/><path class="cls-6" d="M384.18,112.18s18.88,8.31,28.45,40.32c6.62,22.14,8.17,1.68,7.76,0-8.51-35.67-28.84-43.36-28.84-43.36Z"/><path class="cls-6" d="M441.51,152.5C444,141.87,452,112.94,452,112.94a30.47,30.47,0,0,0-2.83-2.35,38.86,38.86,0,0,0-4.41-1.73s-8.59,32.54-10.06,43.64C432.72,167.67,441.13,154.15,441.51,152.5Z"/><polygon class="cls-8" points="412.63 152.5 408.52 243.01 444.8 243.74 441.51 152.5 412.63 152.5"/><polygon class="cls-12" points="459.79 234.84 381.5 234.84 382.36 222.28 457.95 222.28 459.79 234.84"/><path class="cls-11" d="M396.79,107.13s2.27-8.71,15-6.91a66.45,66.45,0,0,0,23-.76l3.82,6.93a17.64,17.64,0,0,1-17.44,7.52C409.24,112.31,396.79,107.13,396.79,107.13Z"/><path class="cls-13" d="M107.56,367.79s4,9.32,5.88,13,40.4,32.19,43.79,34.32,8.13,12.11,11.88,16c2.47,2.56,4.9,2.39,3.16-1.81-2.5-6-4.62-10.15-4.62-10.15A74.06,74.06,0,0,1,175,428c2,2.93,5.77,2.86,2-4.36a65.19,65.19,0,0,0-4.55-7.09,121.48,121.48,0,0,0,10.84,8.33,32.94,32.94,0,0,0-.34-6.85s6.17,2.46,3,.62c-12.51-7.34-44.1-26.83-47.72-38.17-4.52-14.19-7.91-21-7.91-21Z"/><rect class="cls-14" x="219.48" y="396.13" width="38.41" height="6.85"/><rect class="cls-15" x="219.48" y="402.98" width="4.43" height="12.43"/><rect class="cls-15" x="253.45" y="402.98" width="4.43" height="12.43"/><path class="cls-2" d="M182.11,465.05v22.73H295.25V465.05c-15.59,5.54-35.22,8.85-56.57,8.85S197.7,470.59,182.11,465.05Z"/><path class="cls-5" d="M182.11,426.36v38.69c15.59,5.54,35.22,8.85,56.57,8.85s41-3.31,56.57-8.85V426.36Z"/><rect class="cls-2" x="178.66" y="419.97" width="120.22" height="18.08"/><path class="cls-5" d="M291,412.12H186.76a7.85,7.85,0,0,0-7.85,7.85h120A7.84,7.84,0,0,0,291,412.12Z"/><path class="cls-5" d="M191.22,426.58h0a1.94,1.94,0,0,1-1.94-1.94v-4.8a1.94,1.94,0,0,1,1.94-1.94h0a1.94,1.94,0,0,1,1.95,1.94v4.8A1.94,1.94,0,0,1,191.22,426.58Z"/><path class="cls-5" d="M204.81,426.58h0a1.94,1.94,0,0,1-1.94-1.94v-4.8a1.94,1.94,0,0,1,1.94-1.94h0a1.94,1.94,0,0,1,1.94,1.94v4.8A1.94,1.94,0,0,1,204.81,426.58Z"/><path class="cls-5" d="M218.39,426.58h0a1.94,1.94,0,0,1-1.94-1.94v-4.8a1.94,1.94,0,0,1,1.94-1.94h0a1.94,1.94,0,0,1,2,1.94v4.8A1.94,1.94,0,0,1,218.39,426.58Z"/><path class="cls-5" d="M232,426.58h0a1.94,1.94,0,0,1-1.94-1.94v-4.8A1.94,1.94,0,0,1,232,417.9h0a1.94,1.94,0,0,1,1.94,1.94v4.8A1.94,1.94,0,0,1,232,426.58Z"/><path class="cls-5" d="M245.56,426.58h0a1.94,1.94,0,0,1-1.94-1.94v-4.8a1.94,1.94,0,0,1,1.94-1.94h0a1.94,1.94,0,0,1,1.94,1.94v4.8A1.94,1.94,0,0,1,245.56,426.58Z"/><path class="cls-5" d="M259.15,426.58h0a1.94,1.94,0,0,1-1.94-1.94v-4.8a1.94,1.94,0,0,1,1.94-1.94h0a1.94,1.94,0,0,1,1.94,1.94v4.8A1.94,1.94,0,0,1,259.15,426.58Z"/><path class="cls-5" d="M272.73,426.58h0a1.94,1.94,0,0,1-1.94-1.94v-4.8a1.94,1.94,0,0,1,1.94-1.94h0a1.94,1.94,0,0,1,1.94,1.94v4.8A1.94,1.94,0,0,1,272.73,426.58Z"/><rect class="cls-5" x="284.38" y="417.9" width="3.88" height="8.68" rx="0.47"/><rect class="cls-1" x="176.67" y="429.77" width="124.02" height="5.09"/><path class="cls-8" d="M42.41,448.84l1.72-20.53a62.43,62.43,0,0,0-6.43-2.56c-1.11,2.35-3,5-6.19,5.19-5.71.33-7.58,1.41-10.3,6.69s-6.46,19.61-3.53,24.15,9.06,0,13.32.56h0a4.07,4.07,0,0,1-.81-2.48C31.11,454.77,42.41,448.84,42.41,448.84Z"/><path class="cls-16" d="M17.68,461.78c-2.93-4.54.8-18.87,3.53-24.15s4.59-6.36,10.3-6.69c3.15-.18,5.08-2.84,6.19-5.19A32.11,32.11,0,0,0,29.52,424c-6.24-.26-8.19,5.4-12,14.46s-7.08,26.13-1,30.22,13.09,5.11,18.68,2.13c2.09-1.11-2.31-5.25-4.19-8.45h0C26.74,461.73,20.62,466.32,17.68,461.78Z"/><path class="cls-8" d="M31.37,466.36l1.85-22a67.49,67.49,0,0,0-6.9-2.75c-1.2,2.53-3.26,5.38-6.65,5.57-6.11.35-8.12,1.51-11,7.17s-6.93,21-3.78,25.91,9.71-.06,14.29.61h0a4.33,4.33,0,0,1-.86-2.66C19.24,472.72,31.37,466.36,31.37,466.36Z"/><path class="cls-16" d="M4.85,480.24C1.7,475.37,5.7,460,8.63,454.33s4.93-6.82,11-7.17c3.39-.19,5.45-3,6.65-5.57a34.15,34.15,0,0,0-8.77-1.88c-6.7-.29-8.79,5.78-12.86,15.5s-7.6,28-1.07,32.43,14,5.48,20,2.28c2.24-1.2-2.48-5.64-4.5-9.07h0C14.56,480.18,8,485.12,4.85,480.24Z"/><path class="cls-9" d="M155.53,260.4c.74-4.42.53-6.81-2.35-11.59s-18-15-28.9-11.82-13.38,17-14,21.85c-.69,5.49-.72,12.66-2.79,19.75-.94,3.2-6.8,8.69-8.5,10h0c1.49,5.38,6.78,9.6,11.37,12.21a23.45,23.45,0,0,0,7.47,2.75,5.36,5.36,0,0,1-.17-1.65c.16-2,3.7-9.07,5.94-10.08,3.19-1.44,5.62-.15,8.43,1.87,3.73,2.67,5.18-3,8.15-2.75,1.94.19,1.24-1.17,1.2-2.22.54-.46,2-.2,2.47-.59,1.21-.95,0-2.07.47-2.63,1.23-1.4,5.89.6,6.25-1.34.62-3.35-2.05-11.62-.42-13.27A17.74,17.74,0,0,0,155.53,260.4Z"/><path class="cls-6" d="M155.73,259.08s-4.55-4.58-14.54-2.25c-6.39,1.49-8.46,5.67-15.61,4.58-6.16-.93-6.92,3.42-6.92,3.42L108,276s-5.14-10.73,1.13-26.63c6-15.31,11.36-15.1,11.36-15.1s10.88-2.65,26.47,5.81c8.78,4.77,12.77,10.1,12.77,10.1A24.83,24.83,0,0,0,155.73,259.08Z"/><path class="cls-9" d="M126.71,262.49s2-5-2.91-6.53-8.45,4.86-5.09,11.07S126.71,262.49,126.71,262.49Z"/><path class="cls-16" d="M96.59,333.26c1.58-1.05,11,34.53,11,34.53l22.74-5.18-8.46-53.11Z"/><path class="cls-17" d="M141.34,432.32C131,418.63,91.72,388.46,91.72,388.46v4.72L82,426.7l-38.75.36-7.21,27.47s60.53,16.07,80.69,15,23.8-3.56,32-7.94C154.37,458.62,148.06,441.25,141.34,432.32Z"/><path class="cls-6" d="M144.14,463.13c-9.81-26.36-38.33-60.3-53-77.77-9.09,9.47-28.74,12-46.88,12,1,5.49,3.57,18.18,6.55,23.14,12.61,21,51.37,36.41,51.37,36.41l-69-13.31s-8.25,15.64-8.17,31c16.1,8.25,70.63,15.47,81.68,16.67,14.94,1.61,26-.5,34.77-5.39C149.78,481.18,145.42,466.56,144.14,463.13Z"/><path class="cls-8" d="M85.7,385.36c-7.52-5-15-10-20.59-12.18s-5-11.53,3.73-6.53S82,374,85.7,369.7s8.09-14.7,9.57-21.63S99,329.35,99,325.29c0-7.47,5.35-6.83,8.14,2.1,5.28,16.95,14.93,34.77,20.8,44.81l19.34-9.59s-18.86-56-28.56-62.5c-1.31-.88-18.15-16.3-18.15-16.3A145.31,145.31,0,0,0,67,312.59c-8.47,10-18.74,32.55-22.6,55.46-2.61,15.52.26,32,.26,32a56.94,56.94,0,0,0,28.64,2,158.72,158.72,0,0,0,20.46-5.33C92.35,393,89.87,388.14,85.7,385.36Z"/><path class="cls-12" d="M104.81,344.53l18.33,30.05,4.78-2.38c-5.87-10-15.52-27.86-20.8-44.81-2.79-8.93-8.14-9.57-8.14-2.1,0,4.06-2.23,15.85-3.71,22.78s-5.89,17.36-9.57,21.63-8.14,1.95-16.86-3.05-9.33,4.38-3.73,6.53,13.07,7.18,20.59,12.18c4.17,2.78,6.65,7.61,8,11.36,4.26-1.41,6.84-2.46,6.84-2.46S96.38,359.44,104.81,344.53Z"/><path class="cls-8" d="M160.34,260.28h0l-13.08-7.57s4.71-6.89,12.2-6c-1.08-4.84-3.94-10.21-10.67-14.43-21.67-13.58-35.14,6.69-35.14,6.69l59.71,35.55,2.6-3.65Z"/><path class="cls-16" d="M147.26,252.71l13.08,7.57h0l-1.42-1a25.19,25.19,0,0,0,.54-12.64C152,245.82,147.26,252.71,147.26,252.71Z"/><path class="cls-16" d="M103.38,280.25l-8.86,4.9s11.43,14.16,19.13,17.23S124,306.69,124,306.69s-3.57-8.87-7.77-13.22S103.38,280.25,103.38,280.25Z"/><path class="cls-9" d="M221.43,420.33a65.21,65.21,0,0,0-6.57-4.44h0c-1.75-1-5.79-3-7.29-3.75a8.45,8.45,0,0,0,4.27-6.63c0-1.47-3,.86-5.8,1.71a33.81,33.81,0,0,1-7.26.77,134.87,134.87,0,0,0-15.4-6.15c-10.67-3-36.1-39.22-36.1-39.22l-24.12,12s7.74,8.84,10.74,11.85c8.63,8.67,36.48,23.38,43.25,29.64,2.31,2.14,14.85,9.61,23.26,12.47h0a57.44,57.44,0,0,0,6.44,9.26c3.56,3.81,3.56-1.12,2.45-3a64,64,0,0,1-3.05-7.09,49.76,49.76,0,0,0,6.44,6.46c4.12,3.2,3.33-1.67,1.94-3.39-.92-1.13-3.66-4.57-5.44-6.82,0,0,6.06,4.34,7.8,5.69,2.65,2.05,6.56.28,2.91-2.91-2.58-2.26-7.65-6.79-7.6-6.87A74.68,74.68,0,0,0,219.6,424C224.17,426.11,225.69,423.68,221.43,420.33Z"/></g></g></svg>