<svg xmlns="http://www.w3.org/2000/svg" viewBox="0 0 500 362"><defs><style>.cls-1{fill:#ebebeb;}.cls-2{fill:#e6e6e6;}.cls-3{fill:#f5f5f5;}.cls-4{fill:#e0e0e0;}.cls-10,.cls-13,.cls-16,.cls-17,.cls-18,.cls-25,.cls-5{fill:#fff;}.cls-6{fill:#f1f0f0;}.cls-7{fill:#fafbfb;}.cls-8{fill:#5274b8;}.cls-11,.cls-16,.cls-23,.cls-24,.cls-9{opacity:0.2;}.cls-10{opacity:0.4;}.cls-12,.cls-25{opacity:0.8;}.cls-13,.cls-14,.cls-19{opacity:0.5;}.cls-15{fill:#263238;}.cls-17{opacity:0.7;}.cls-18{opacity:0.9;}.cls-20{fill:#1a2f36;}.cls-21{fill:#bb2526;}.cls-22{fill:#c96851;}.cls-23,.cls-24{fill:#010101;}.cls-23{isolation:isolate;}</style></defs><g id="Layer_2" data-name="Layer 2"><g id="Layer_1-2" data-name="Layer 1"><rect class="cls-1" x="416.78" y="343.58" width="33.12" height="0.25"/><rect class="cls-1" x="322.53" y="346.3" width="8.69" height="0.25"/><rect class="cls-1" x="396.59" y="334.3" width="19.19" height="0.25"/><rect class="cls-1" x="52.46" y="335.98" width="43.19" height="0.25"/><rect class="cls-1" x="104.56" y="335.98" width="6.33" height="0.25"/><rect class="cls-1" x="131.47" y="340.2" width="93.68" height="0.25"/><path class="cls-1" d="M237,282.89H43.91a5.71,5.71,0,0,1-5.7-5.71V5.75A5.71,5.71,0,0,1,43.91,0H237a5.71,5.71,0,0,1,5.71,5.71V277.18A5.71,5.71,0,0,1,237,282.89ZM43.91.29a5.46,5.46,0,0,0-5.45,5.46V277.18a5.46,5.46,0,0,0,5.45,5.46H237a5.47,5.47,0,0,0,5.46-5.46V5.75A5.47,5.47,0,0,0,237,.29Z"/><path class="cls-1" d="M453.31,282.89H260.21a5.72,5.72,0,0,1-5.71-5.71V5.75A5.72,5.72,0,0,1,260.21,0h193.1A5.71,5.71,0,0,1,459,5.75V277.18A5.71,5.71,0,0,1,453.31,282.89ZM260.21.29a5.47,5.47,0,0,0-5.46,5.46V277.18a5.47,5.47,0,0,0,5.46,5.46h193.1a5.47,5.47,0,0,0,5.46-5.46V5.75A5.47,5.47,0,0,0,453.31.29Z"/><rect class="cls-1" y="327.49" width="500" height="0.25"/><rect class="cls-2" x="382.89" y="78.96" width="41.52" height="57.38"/><rect class="cls-1" x="376.93" y="78.85" width="41.52" height="57.38"/><rect class="cls-3" x="381.19" y="82.06" width="33" height="49.66"/><rect class="cls-4" x="418.6" y="103.03" width="1.77" height="9.25"/><path class="cls-5" d="M381,119.7v12h1.17L414,88.39V82.06h-4.46Z"/><polygon class="cls-5" points="381.19 105.64 381.19 111.28 403.65 82.06 400.24 82.06 381.19 105.64"/><rect class="cls-3" x="366.21" y="283.51" width="20.69" height="20.69" rx="4.36"/><rect class="cls-3" x="389.74" y="283.51" width="20.69" height="20.69" rx="4.36"/><rect class="cls-3" x="389.74" y="306.77" width="20.69" height="20.69" rx="4.36"/><rect class="cls-3" x="366.47" y="306.77" width="20.69" height="20.69" rx="4.36"/><rect class="cls-3" x="413.11" y="283.51" width="20.69" height="20.69" rx="4.36"/><rect class="cls-3" x="413.11" y="306.77" width="20.69" height="20.69" rx="4.36"/><rect class="cls-3" x="366.13" y="16.76" width="20.69" height="20.69" rx="4.36"/><rect class="cls-3" x="389.66" y="16.76" width="20.69" height="20.69" rx="4.36"/><rect class="cls-3" x="389.66" y="40.02" width="20.69" height="20.69" rx="4.36"/><rect class="cls-3" x="366.39" y="40.02" width="20.69" height="20.69" rx="4.36"/><rect class="cls-3" x="413.03" y="16.76" width="20.69" height="20.69" rx="4.36"/><rect class="cls-3" x="413.03" y="40.02" width="20.69" height="20.69" rx="4.36"/><rect class="cls-3" x="63.35" y="17.57" width="20.69" height="20.69" rx="4.36"/><rect class="cls-3" x="86.88" y="17.57" width="20.69" height="20.69" rx="4.36"/><rect class="cls-3" x="86.88" y="40.84" width="20.69" height="20.69" rx="4.36"/><rect class="cls-3" x="63.61" y="40.84" width="20.69" height="20.69" rx="4.36"/><rect class="cls-3" x="110.25" y="17.57" width="20.69" height="20.69" rx="4.36"/><rect class="cls-3" x="110.25" y="40.84" width="20.69" height="20.69" rx="4.36"/><rect class="cls-3" x="63.35" y="283.22" width="20.69" height="20.69" rx="4.36"/><rect class="cls-3" x="86.88" y="283.22" width="20.69" height="20.69" rx="4.36"/><rect class="cls-3" x="86.88" y="306.48" width="20.69" height="20.69" rx="4.36"/><rect class="cls-3" x="63.61" y="306.48" width="20.69" height="20.69" rx="4.36"/><rect class="cls-3" x="110.25" y="283.22" width="20.69" height="20.69" rx="4.36"/><rect class="cls-3" x="110.25" y="306.48" width="20.69" height="20.69" rx="4.36"/><path class="cls-1" d="M145.48,311.6c-1.26-21,6.55-39.26,6.63-39.45l.63.28c-.08.18-7.83,18.35-6.58,39.13Z"/><path class="cls-2" d="M150.25,267.22a2.3,2.3,0,0,0-4.49.5c-.12,1.43,1.06,2.6,2.14,3.54a4.94,4.94,0,0,0,3.12,1.6,3.32,3.32,0,0,0,2.4-1.28,9.55,9.55,0,0,0,1.36-2.44,6.81,6.81,0,0,0,.77-2.69,2.06,2.06,0,0,0-3.7-1.51,6.92,6.92,0,0,0-1.24,2.2Z"/><path class="cls-2" d="M158.3,271.3a2.31,2.31,0,0,1,1.92,4.1c-1.16.84-2.77.44-4.14,0a5,5,0,0,1-3-1.82,3.31,3.31,0,0,1-.16-2.72,10.11,10.11,0,0,1,1.37-2.44,6.91,6.91,0,0,1,1.9-2.05,2.06,2.06,0,0,1,3.22,2.36,7,7,0,0,1-1.24,2.21Z"/><path class="cls-2" d="M145.93,273.88a2.3,2.3,0,0,1-1.92-4.09c1.16-.85,2.78-.45,4.14,0a5,5,0,0,1,3,1.83,3.28,3.28,0,0,1,.16,2.71,9.79,9.79,0,0,1-1.37,2.44,6.94,6.94,0,0,1-1.9,2.06,2.06,2.06,0,0,1-3.22-2.37,7,7,0,0,1,1.24-2.21Z"/><path class="cls-2" d="M154,278.86a2.3,2.3,0,0,0,4.49-.5c.12-1.43-1.06-2.6-2.14-3.55a5,5,0,0,0-3.12-1.59,3.32,3.32,0,0,0-2.4,1.28,9.55,9.55,0,0,0-1.36,2.44,6.81,6.81,0,0,0-.77,2.69,2.34,2.34,0,0,0,1.39,2.25,2.31,2.31,0,0,0,2.3-.74,6.94,6.94,0,0,0,1.25-2.2Z"/><path class="cls-2" d="M146.82,291.68a4.76,4.76,0,0,1,3.57-2.27c.61-.07,1.24,0,1.84-.11a1.87,1.87,0,0,0,1.46-1c.62-1.46-1.4-2.29-2.26-1.08-.19-2.22-2.13-1.28-3.09-.21C147,288.5,147.63,290.32,146.82,291.68Z"/><path class="cls-6" d="M137.83,316.58c0,4.64.73,7.64,2,9.57a5.06,5.06,0,0,0,4.29,2.26h6.72a5.07,5.07,0,0,0,4.3-2.26c1.22-1.93,2-4.93,2-9.57,0-6.73-2.93-12.11-3.89-16.42-.35-1.54.8-6.29.8-6.29h-13s1.15,4.75.81,6.29C140.77,304.47,137.83,309.85,137.83,316.58Z"/><path class="cls-7" d="M153.93,307.15c.87,2.47,1.7,5.17,1.42,7.8-.06.5-.21,1.07-.57,1.16s-.67-.33-.79-.79a5.52,5.52,0,0,1-.09-1.41c0-4.08-2.21-7.52-2.63-11.5-.12-1.13.17-4.7.84-2.07C152.7,302.67,153.12,304.86,153.93,307.15Z"/><polygon class="cls-4" points="141.65 297.64 145.25 297.64 145.93 297.64 153.24 297.64 153.47 296.21 145.93 296.21 145.26 296.21 141.42 296.21 141.65 297.64"/><path class="cls-8" d="M288.79,0h45.56a5.24,5.24,0,0,1,5.24,5.24V343.76a5.82,5.82,0,0,1-5.82,5.82H289.38a5.82,5.82,0,0,1-5.82-5.82V5.24A5.24,5.24,0,0,1,288.79,0Z"/><g class="cls-9"><rect class="cls-5" x="283.55" width="56.03" height="349.58" rx="6.07"/></g><path class="cls-8" d="M299.37,6.19h-5.88a2.93,2.93,0,0,0-2.94,2.94v130a2.93,2.93,0,0,0,2.94,2.94h5.88a2.93,2.93,0,0,0,2.94-2.94V138a2.93,2.93,0,0,0-2.94-2.94h-1.26a3,3,0,0,1-2.94-2.95V15a2.94,2.94,0,0,1,2.94-2.94h1.26a2.94,2.94,0,0,0,2.94-2.94h0A2.93,2.93,0,0,0,299.37,6.19Z"/><path class="cls-10" d="M299.37,6.19h-5.88a2.93,2.93,0,0,0-2.94,2.94v130a2.93,2.93,0,0,0,2.94,2.94h5.88a2.93,2.93,0,0,0,2.94-2.94V138a2.93,2.93,0,0,0-2.94-2.94h-1.26a3,3,0,0,1-2.94-2.95V15a2.94,2.94,0,0,1,2.94-2.94h1.26a2.94,2.94,0,0,0,2.94-2.94h0A2.93,2.93,0,0,0,299.37,6.19Z"/><path class="cls-8" d="M297.67,48.29l-16.31-9.64a2.66,2.66,0,0,0-1.91-.3l-6.2,1.41a2.61,2.61,0,0,0-2,2.55v2.21a2.61,2.61,0,0,0,1.41,2.32l11,5.68a2.61,2.61,0,0,1,1.41,2.32h0a2.61,2.61,0,0,0,2.61,2.62h8.65A2.61,2.61,0,0,0,299,54.84v-4.3A2.63,2.63,0,0,0,297.67,48.29Z"/><path class="cls-8" d="M297.67,48.29l-16.31-9.64a2.66,2.66,0,0,0-1.91-.3l-6.2,1.41a2.61,2.61,0,0,0-2,2.55v2.21a2.61,2.61,0,0,0,1.41,2.32l11,5.68a2.61,2.61,0,0,1,1.41,2.32h0a2.61,2.61,0,0,0,2.61,2.62h8.65A2.61,2.61,0,0,0,299,54.84v-4.3A2.63,2.63,0,0,0,297.67,48.29Z"/><path class="cls-11" d="M297.78,57a2.62,2.62,0,0,1-1.44.43h-8.65a2.59,2.59,0,0,1-1.84-.76,2.57,2.57,0,0,1-.77-1.85,2.61,2.61,0,0,0-1.41-2.32l-11-5.68a2.61,2.61,0,0,1-1-.92l7-2a4,4,0,0,1,3.25.49l10.65,7a2.69,2.69,0,0,1,1.24,2.25,2.68,2.68,0,0,0,.91,2l0,0a2.93,2.93,0,0,0,.9.53Z"/><path class="cls-8" d="M293.9,178.31c0,4.47-2.54,8.09-5.67,8.09s-5.67-3.62-5.67-8.09,2.53-8.09,5.67-8.09S293.9,173.84,293.9,178.31Z"/><path class="cls-8" d="M312.05,178.31c0,4.47-2.54,8.09-5.68,8.09H288.23c3.13,0,5.67-3.62,5.67-8.09s-2.54-8.09-5.67-8.09h18.14C309.51,170.22,312.05,173.84,312.05,178.31Z"/><path class="cls-10" d="M312.05,178.31c0,4.47-2.54,8.09-5.68,8.09H288.23c3.13,0,5.67-3.62,5.67-8.09s-2.54-8.09-5.67-8.09h18.14C309.51,170.22,312.05,173.84,312.05,178.31Z"/><path class="cls-8" d="M299.47,240.21a8.38,8.38,0,0,1-.86,0c-4.42-.48-8.14-4.57-8.47-9.33-.36-5,0-42.85,0-44.45l3,0c0,.4-.35,39.29,0,44.22a7,7,0,0,0,5.8,6.55c2.78.3,5-1.81,6.21-5.79,2.05-7-12.32-96.91-20-145.19-2.62-16.43-4.74-29.65-5.77-36.72a1.49,1.49,0,0,1,1.27-1.69h0a1.49,1.49,0,0,1,1.7,1.26c1,7,3.14,20.25,5.77,36.68,11.23,70.24,22,139.41,19.95,146.5C306.54,237.29,303.38,240.21,299.47,240.21Z"/><g class="cls-12"><path class="cls-5" d="M299.47,240.21a8.38,8.38,0,0,1-.86,0c-4.42-.48-8.14-4.57-8.47-9.33-.36-5,0-42.85,0-44.45l3,0c0,.4-.35,39.29,0,44.22a7,7,0,0,0,5.8,6.55c2.78.3,5-1.81,6.21-5.79,2.05-7-12.32-96.91-20-145.19-2.62-16.43-4.74-29.65-5.77-36.72a1.49,1.49,0,0,1,1.27-1.69h0a1.49,1.49,0,0,1,1.7,1.26c1,7,3.14,20.25,5.77,36.68,11.23,70.24,22,139.41,19.95,146.5C306.54,237.29,303.38,240.21,299.47,240.21Z"/></g><path class="cls-8" d="M297.17,126h-9.69a1.79,1.79,0,0,1-1.79-1.79h0a1.79,1.79,0,0,1,1.79-1.79h9.69a1.79,1.79,0,0,1,1.78,1.79h0A1.79,1.79,0,0,1,297.17,126Z"/><path class="cls-8" d="M239,13.81c1.24-.16,2.76-.33,4.61-.45,16.3-1.07,26.83,13.29,26.83,13.29l-4.58,3.1s-4.17-7-10.81-9.53a26.85,26.85,0,0,0-8.13-2Z"/><path class="cls-10" d="M239,13.81c1.24-.16,2.75-.33,4.61-.45,16.3-1.07,27,13.47,27,13.47l-4.72,2.92s-4.17-7-10.81-9.53a26.85,26.85,0,0,0-8.13-2S239.86,14.12,239,13.81Z"/><path class="cls-8" d="M248,18.94l-.39,5.19c-5.67,1.2-15.06.05-20.39-2.23l-.15-.06-.24-5.51,6.05-1.74a10.37,10.37,0,0,1,2.6-.83,10.15,10.15,0,0,1,2.34-.11,9.45,9.45,0,0,1,1.19.16,9.94,9.94,0,0,1,5.2,2.72l2.72,1.73Z"/><polygon class="cls-8" points="265.83 29.75 273.12 39.79 278.07 38.67 270.41 26.66 265.83 29.75"/><path class="cls-5" d="M290.94,178.36c0,2.49-1.46,4.51-3.26,4.51s-3.27-2-3.27-4.51,1.46-4.52,3.27-4.52S290.94,175.86,290.94,178.36Z"/><path class="cls-13" d="M248,18.94l-.39,5.19c-5.67,1.2-15.06.05-20.39-2.23l-.15-.06-.24-5.51,6.05-1.74a10.37,10.37,0,0,1,2.6-.83,10.15,10.15,0,0,1,2.34-.11,9.45,9.45,0,0,1,1.19.16,9.94,9.94,0,0,1,5.2,2.72l2.72,1.73Z"/><path class="cls-8" d="M245.8,22.23c-.15,1.18-4.1,1.65-8.82,1.05s-8.43-2-8.28-3.21,4.1-1.65,8.82-1.05S246,21.05,245.8,22.23Z"/><path class="cls-14" d="M245.8,22.23c-.15,1.18-4.1,1.65-8.82,1.05s-8.43-2-8.28-3.21,4.1-1.65,8.82-1.05S246,21.05,245.8,22.23Z"/><rect class="cls-8" x="343.42" y="51.2" width="0.75" height="8.01"/><rect class="cls-8" x="343.42" y="12.21" width="0.75" height="31.72"/><rect class="cls-8" x="279.16" y="143.32" width="0.75" height="8.01"/><rect class="cls-8" x="279.16" y="158.61" width="0.75" height="31.72"/><g id="Towel"><path class="cls-8" d="M417.41,251.7a21.57,21.57,0,0,1,.58,5.93c-.19,2-1.07,4-2.62,4.87s-3.19.42-4.78,0l-3.18-.79a6.8,6.8,0,0,1-1.66-.57c-2.45-1.34-2.95-5.09-3.12-8.24l-2.37-43.24c-.53-9.61-4.14-19.32-1.82-28.56.62-2.5,2.37-7.9,4.25-9.3s9.62-.83,9.62-.83c.57.95.24,4-.33,7.22a104.49,104.49,0,0,0-1.21,25.67A370.94,370.94,0,0,0,417.41,251.7Z"/><path class="cls-8" d="M417.41,251.7a21.57,21.57,0,0,1,.58,5.93c-.19,2-1.07,4-2.62,4.87s-3.19.42-4.78,0l-3.18-.79a6.8,6.8,0,0,1-1.66-.57c-2.45-1.34-2.95-5.09-3.12-8.24l-2.37-43.24c-.53-9.61-4.14-19.32-1.82-28.56.62-2.5,2.37-7.9,4.25-9.3s9.62-.83,9.62-.83c.57.95.24,4-.33,7.22a104.49,104.49,0,0,0-1.21,25.67A370.94,370.94,0,0,0,417.41,251.7Z"/><path class="cls-11" d="M417.41,251.7a21.57,21.57,0,0,1,.58,5.93c-.19,2-1.07,4-2.62,4.87s-3.19.42-4.78,0l-3.18-.79a6.8,6.8,0,0,1-1.66-.57c-2.45-1.34-2.95-5.09-3.12-8.24l-2.37-43.24c-.53-9.61-4.14-19.32-1.82-28.56.62-2.5,2.37-7.9,4.25-9.3s9.62-.83,9.62-.83c.57.95.24,4-.33,7.22a104.49,104.49,0,0,0-1.21,25.67A370.94,370.94,0,0,0,417.41,251.7Z"/><path class="cls-15" d="M353,172.91h0a2.61,2.61,0,0,0,2.61,2.61h90.73v-5.23H355.63A2.61,2.61,0,0,0,353,172.91Z"/><path class="cls-16" d="M353,172.91h0a2.61,2.61,0,0,0,2.61,2.61h64.24a2.88,2.88,0,0,1,0-5.23H355.63A2.61,2.61,0,0,0,353,172.91Z"/><path class="cls-15" d="M440.09,175.53v15.92h0a8.71,8.71,0,0,1-7.67-4.57l-.27-.51a8.71,8.71,0,0,0-4.61-4l-.15-.05a8.74,8.74,0,0,1-4.38-3.64l-1.9-3.12Z"/><path class="cls-15" d="M442.62,175.53v15.92h0a8.71,8.71,0,0,1-7.67-4.57l-.27-.51a8.71,8.71,0,0,0-4.61-4l-.15-.05a8.74,8.74,0,0,1-4.38-3.64l-1.9-3.12Z"/><path class="cls-16" d="M442.62,175.53v15.92h0a8.71,8.71,0,0,1-7.67-4.57l-.27-.51a8.71,8.71,0,0,0-4.61-4l-.15-.05a8.74,8.74,0,0,1-4.38-3.64l-1.9-3.12Z"/><path class="cls-15" d="M375.51,175.53v15.92h0a8.71,8.71,0,0,1-7.67-4.57l-.27-.51a8.71,8.71,0,0,0-4.61-4l-.15-.05a8.74,8.74,0,0,1-4.38-3.64l-1.9-3.12Z"/><path class="cls-16" d="M375.51,175.53v15.92h0a8.71,8.71,0,0,1-7.67-4.57l-.27-.51a8.71,8.71,0,0,0-4.61-4l-.15-.05a8.74,8.74,0,0,1-4.38-3.64l-1.9-3.12Z"/><path class="cls-15" d="M378,175.53v15.92h0a8.71,8.71,0,0,1-7.67-4.57l-.27-.51a8.71,8.71,0,0,0-4.61-4l-.15-.05a8.74,8.74,0,0,1-4.38-3.64l-1.9-3.12Z"/><path class="cls-8" d="M407.85,179.63c0,6.39,2.73,57.7,3.15,73.84.11,4.23.12,8.64-1.45,12.46s-5.18,6.83-8.72,5.88c-3.35-.91-5.83-5-9.28-4.95-3.21.09-5.63,3.85-8.83,4.14-2.28.2-4.34-1.41-6.44-2.49a14.82,14.82,0,0,0-12.79-.37,824.39,824.39,0,0,1,4.74-85.95c.51-4.69,1.37-10,4.8-12.49,2.32-1.7,3.19,0,5.93.11,0,0,9.66-.15,21.74-.3,2.12,0,7.25-.42,8.3-.4a6.75,6.75,0,0,1,2.51,1.18S407.89,173.23,407.85,179.63Z"/><path class="cls-17" d="M407.85,179.63c0,6.39,2.73,57.7,3.15,73.84.11,4.23.12,8.64-1.45,12.46s-5.18,6.83-8.72,5.88c-3.35-.91-5.83-5-9.28-4.95-3.21.09-5.63,3.85-8.83,4.14-2.28.2-4.34-1.41-6.44-2.49a14.82,14.82,0,0,0-12.79-.37,824.39,824.39,0,0,1,4.74-85.95c.51-4.69,1.37-10,4.8-12.49,2.32-1.7,3.19,0,5.93.11,0,0,9.66-.15,21.74-.3,2.12,0,7.25-.42,8.3-.4a6.75,6.75,0,0,1,2.51,1.18S407.89,173.23,407.85,179.63Z"/></g><rect class="cls-15" x="61.94" y="149.35" width="93.34" height="5.23"/><rect class="cls-16" x="88.43" y="149.35" width="66.85" height="5.23"/><path class="cls-15" d="M68.21,154.58v15.93h0a8.72,8.72,0,0,0,7.67-4.57l.28-.52a8.68,8.68,0,0,1,4.6-4l.15-.05a8.76,8.76,0,0,0,4.39-3.64l1.89-3.13Z"/><path class="cls-15" d="M65.68,154.58v15.93h0a8.72,8.72,0,0,0,7.67-4.57l.28-.52a8.68,8.68,0,0,1,4.6-4l.15-.05a8.7,8.7,0,0,0,4.38-3.64l1.9-3.13Z"/><path class="cls-16" d="M65.68,154.58v15.93h0a8.72,8.72,0,0,0,7.67-4.57l.28-.52a8.68,8.68,0,0,1,4.6-4l.15-.05a8.7,8.7,0,0,0,4.38-3.64l1.9-3.13Z"/><path class="cls-15" d="M132.79,154.58v15.93h0a8.72,8.72,0,0,0,7.67-4.57l.28-.52a8.68,8.68,0,0,1,4.6-4l.15-.05a8.76,8.76,0,0,0,4.39-3.64l1.89-3.13Z"/><path class="cls-16" d="M132.79,154.58v15.93h0a8.72,8.72,0,0,0,7.67-4.57l.28-.52a8.68,8.68,0,0,1,4.6-4l.15-.05a8.76,8.76,0,0,0,4.39-3.64l1.89-3.13Z"/><path class="cls-15" d="M130.26,154.58v15.93h0a8.72,8.72,0,0,0,7.67-4.57l.28-.52a8.68,8.68,0,0,1,4.6-4l.15-.05a8.7,8.7,0,0,0,4.38-3.64l1.9-3.13Z"/><rect class="cls-15" x="83.83" y="111.73" width="1.24" height="5.31"/><path class="cls-8" d="M92,149.37H77V124.28a7.52,7.52,0,0,1,7.52-7.52h0A7.52,7.52,0,0,1,92,124.28Z"/><path class="cls-16" d="M92,149.37H77V124.28a7.52,7.52,0,0,1,7.52-7.52h0A7.52,7.52,0,0,1,92,124.28Z"/><polygon class="cls-8" points="87.92 115.53 87.92 118.33 81.21 118.33 81.21 115.53 83 115.53 83 114.38 85.94 114.38 85.94 115.53 87.92 115.53"/><polygon class="cls-8" points="77.97 110.21 87.23 110.21 92.17 109.24 91.19 111.16 87.23 111.96 77.97 111.96 77.97 110.21"/><polygon class="cls-16" points="77.97 110.21 87.23 110.21 92.17 109.24 91.19 111.16 87.23 111.96 77.97 111.96 77.97 110.21"/><rect class="cls-7" x="78.98" y="126.3" width="11.17" height="15.24"/><polygon class="cls-8" points="104.8 143.21 104.34 149.38 98.46 149.38 98 143.21 104.8 143.21"/><polygon class="cls-16" points="104.8 143.21 104.34 149.38 98.46 149.38 98 143.21 104.8 143.21"/><polygon class="cls-8" points="106.66 118.33 104.8 143.21 98 143.21 96.15 118.33 106.66 118.33"/><polygon class="cls-17" points="106.66 118.33 104.8 143.21 98 143.21 96.15 118.33 106.66 118.33"/><path class="cls-8" d="M151.59,144.11c0,2.27-5.2,4.1-11.61,4.1s-11.61-1.83-11.61-4.1S133.57,140,140,140,151.59,141.85,151.59,144.11Z"/><path class="cls-10" d="M151.59,144.11c0,2.27-5.2,4.1-11.61,4.1s-11.61-1.83-11.61-4.1S133.57,140,140,140,151.59,141.85,151.59,144.11Z"/><path class="cls-8" d="M126.78,145h25.76a0,0,0,0,1,0,0v1.1a3.09,3.09,0,0,1-3.09,3.09H129.87a3.08,3.08,0,0,1-3.08-3.08V145A0,0,0,0,1,126.78,145Z"/><path class="cls-18" d="M126.78,145h25.76a0,0,0,0,1,0,0v1.1a3.09,3.09,0,0,1-3.09,3.09H129.87a3.08,3.08,0,0,1-3.08-3.08V145A0,0,0,0,1,126.78,145Z"/><rect class="cls-8" x="113.51" y="110.27" width="5.21" height="5.21"/><rect class="cls-8" x="113.55" y="108.91" width="5.12" height="1.36"/><rect class="cls-16" x="113.55" y="108.91" width="5.12" height="1.36"/><path class="cls-8" d="M123.63,149.37h-15V124.28a7.52,7.52,0,0,1,7.52-7.52h0a7.52,7.52,0,0,1,7.51,7.52Z"/><g class="cls-19"><path class="cls-5" d="M123.63,149.37h-15V124.28a7.52,7.52,0,0,1,7.52-7.52h0a7.52,7.52,0,0,1,7.51,7.52Z"/></g><rect class="cls-5" x="118.1" y="124.92" width="4.54" height="19.19"/><path class="cls-8" d="M119.58,115.53v2.08a7.32,7.32,0,0,0-3.46-.85,7.4,7.4,0,0,0-3.26.75v-2Z"/><path class="cls-11" d="M119.58,115.53v2.08a7.32,7.32,0,0,0-3.46-.85,7.4,7.4,0,0,0-3.26.75v-2Z"/><path class="cls-8" d="M205.27,54.42c-.39,1.25-.76,2.51-1.06,3.78l1,.24c.3-1.26.66-2.5,1-3.73A2.63,2.63,0,0,1,205.27,54.42Z"/><path class="cls-8" d="M224.24,27.31a55.64,55.64,0,0,0-17.07,22,2.45,2.45,0,0,1,.92.38A54.76,54.76,0,0,1,224.85,28.1Z"/><path class="cls-8" d="M230.26,31.59c.46-.89.93-1.77,1.42-2.61l-.86-.5c-.5.86-1,1.75-1.46,2.66A2.46,2.46,0,0,1,230.26,31.59Z"/><path class="cls-8" d="M221.68,53.84c-.37,1.88-.69,3.77-.94,5.68l1,.14c.27-2,.6-4,1-6A2.34,2.34,0,0,1,221.68,53.84Z"/><path class="cls-8" d="M223.61,49.69a86.22,86.22,0,0,1,4.65-13.93,2.47,2.47,0,0,1-.9-.42,86.34,86.34,0,0,0-4.65,13.83A1.93,1.93,0,0,1,223.61,49.69Z"/><path class="cls-8" d="M239.07,34.87h0c.08-1.75.15-3.45.21-5.08l-1,0c-.06,1.68-.13,3.44-.22,5.25A2.28,2.28,0,0,1,239.07,34.87Z"/><path class="cls-8" d="M238.82,39.3a2.2,2.2,0,0,1-.93-.25c-.37,6.59-.89,13.86-1.48,21.74l1,.07c.58-7.81,1.1-15,1.47-21.56Z"/><path class="cls-8" d="M252.92,52.05h.22a90.36,90.36,0,0,0-2.73-9.41,2.48,2.48,0,0,1-.9.46,87,87,0,0,1,2.63,9.11A2.09,2.09,0,0,1,252.92,52.05Z"/><path class="cls-8" d="M253,56.48c.34,1.9.62,3.8.82,5.7l1-.11c-.2-1.86-.47-3.73-.79-5.59Z"/><path class="cls-8" d="M248.8,38.41a84.16,84.16,0,0,0-3.7-7.86l-.89.47a82.48,82.48,0,0,1,3.65,7.72A2.35,2.35,0,0,1,248.8,38.41Z"/><path class="cls-8" d="M182.58,232.17a2.32,2.32,0,0,1,.83.15c2.83-16.87,5.83-34.64,8.88-52.3a2.28,2.28,0,0,1-1-.15c-3,17.55-6,35.29-8.87,52.31Z"/><path class="cls-8" d="M176.41,269.24a2.15,2.15,0,0,1,.83.16c1.7-10.26,3.53-21.3,5.46-32.81h-.12a2.14,2.14,0,0,1-.87-.17c-1.91,11.39-3.74,22.43-5.46,32.82Z"/><path class="cls-8" d="M167.38,327.38a1.88,1.88,0,0,1-.72-.12c-1.41,8.36-2.37,13.8-2.71,15.24l1,.23c.35-1.45,1.32-7,2.74-15.39Z"/><path class="cls-8" d="M170.23,306.46h-.11c-1,5.74-1.82,11-2.58,15.55a2,2,0,0,1,1,.3c.78-4.69,1.68-10.07,2.65-16A3,3,0,0,1,170.23,306.46Z"/><path class="cls-8" d="M174.64,285.2q.92-5.56,1.9-11.54h-.13a2.27,2.27,0,0,1-.86-.16q-1,5.87-1.88,11.42A2.15,2.15,0,0,1,174.64,285.2Z"/><path class="cls-8" d="M173.55,289.36a2.28,2.28,0,0,1-.6-.09l-.39,2.39c-.57,3.43-1.11,6.73-1.64,9.91a2,2,0,0,1,1,.33c.53-3.23,1.09-6.59,1.66-10.08.14-.82.28-1.67.42-2.5A2.59,2.59,0,0,1,173.55,289.36Z"/><path class="cls-8" d="M193.11,175.24C201,129.49,209.14,85.06,215,59.4h0a2.14,2.14,0,0,1-.88-.19c-5.93,25.76-14,69.93-22,116A2.16,2.16,0,0,1,193.11,175.24Z"/><path class="cls-8" d="M221.24,36.31c-1.43,1.1-3.55,7.85-6.16,18.65h.24a2.27,2.27,0,0,1,.69.12c2.5-10.44,4.52-17,5.84-18Z"/><path class="cls-8" d="M224.94,63.34h.18a2,2,0,0,1,.6.09c2.4-14,4.16-22.89,4.93-24.22l-.86-.5c-.81,1.39-2.61,10.46-5.06,24.65Z"/><path class="cls-8" d="M183.13,340.2c-.35,2.46-.58,4.12-.68,4.85l1,.13c.09-.69.3-2.23.63-4.53A2,2,0,0,1,183.13,340.2Z"/><path class="cls-8" d="M194,266.86a2,2,0,0,1,.69.11c9.48-65.15,22.67-154.11,30.29-199.2h0a2.06,2.06,0,0,1-.93-.22c-7.69,45.27-20.88,134.23-30.35,199.36Z"/><path class="cls-8" d="M192.23,283.8c.57-3.89,1.15-7.91,1.75-12a2,2,0,0,1-1-.24q-.88,6.15-1.74,12A2.09,2.09,0,0,1,192.23,283.8Z"/><path class="cls-8" d="M191.14,287.93h-.52c-3.05,21.05-5.48,38.09-6.89,48a2.39,2.39,0,0,1,.75-.16l.28,0c1.42-10,3.85-27,6.89-47.93A2.24,2.24,0,0,1,191.14,287.93Z"/><path class="cls-8" d="M230.82,66.54l.25,0c2.13-17.6,3.42-29.12,3.38-30.81l-1,0c0,1.67-1.26,13.25-3.4,30.94A2.78,2.78,0,0,1,230.82,66.54Z"/><path class="cls-8" d="M197.2,330.41c-.74,6.44-1.16,10.55-1.18,11.73l1,0c0-1.14.43-5.17,1.15-11.47A2.07,2.07,0,0,1,197.2,330.41Z"/><path class="cls-8" d="M225.86,108.85c1.76-14,3.34-26.86,4.66-37.71a2.18,2.18,0,0,1-1-.38c-1.32,10.86-2.91,23.74-4.67,37.84A2.21,2.21,0,0,1,225.86,108.85Z"/><path class="cls-8" d="M224.88,113h-.55c-3.05,24.47-6.57,52.32-10.05,79.83-7,55.08-13.63,107.88-16.62,133.51a2.11,2.11,0,0,1,.61-.1h.41C201.75,300,208.6,245.83,215.27,193c3.49-27.57,7-55.48,10.08-80A1.89,1.89,0,0,1,224.88,113Z"/><path class="cls-8" d="M243.66,44.67c0-2.72-.22-4.49-.56-5.12l-.89.47c.33.6.49,2.33.51,5A2.11,2.11,0,0,1,243.66,44.67Z"/><path class="cls-8" d="M241.87,70.82a2.36,2.36,0,0,1,.55.07c.65-8.93,1.07-16.32,1.21-21.69a2.43,2.43,0,0,1-.94-.31c-.14,5.34-.57,12.85-1.25,22A3,3,0,0,1,241.87,70.82Z"/><path class="cls-8" d="M239.94,101c.84-9.39,1.57-18,2.16-25.72a1.81,1.81,0,0,1-.23,0,2.5,2.5,0,0,1-.75-.13c-.6,7.79-1.35,16.6-2.21,26.15A2.06,2.06,0,0,1,239.94,101Z"/><path class="cls-8" d="M217.36,312.58c-.75,7.53-1.38,14.05-1.85,19.32a2,2,0,0,1,1-.38c.46-5.11,1.06-11.36,1.77-18.5A2.11,2.11,0,0,1,217.36,312.58Z"/><path class="cls-8" d="M221.08,277.47H221c-1.17,11.18-2.23,21.46-3.15,30.47a2.64,2.64,0,0,1,.88-.21h.15c.92-9.1,2-19.41,3.15-30.5A2.19,2.19,0,0,1,221.08,277.47Z"/><path class="cls-8" d="M226.31,230.27a2.13,2.13,0,0,1,.63.09c4.51-42.85,9.31-88.89,12.6-125a1.93,1.93,0,0,1-.95-.53c-3.37,36.83-8.26,83.76-12.65,125.52C226.06,230.29,226.17,230.27,226.31,230.27Z"/><path class="cls-8" d="M226.31,234.7a2.3,2.3,0,0,1-.82-.15c-.4,3.79-.8,7.55-1.19,11.23-1,9.33-1.93,18.31-2.82,26.81a2.15,2.15,0,0,1,1,.46c.91-8.69,1.87-17.81,2.86-27.16q.58-5.55,1.18-11.21Z"/><path class="cls-8" d="M216.17,335.84a2,2,0,0,1-1-.58,105.65,105.65,0,0,0-.64,11.21l1-.11A101,101,0,0,1,216.17,335.84Z"/><path class="cls-20" d="M225.83,89.28c.1.68.53,1.17,1,1.1s.72-.65.62-1.33-.53-1.17-1-1.11S225.73,88.6,225.83,89.28Z"/><path class="cls-21" d="M226.3,90.46a24.61,24.61,0,0,0,4,5.32c-1,1.29-3.14,1-3.14,1Z"/><path class="cls-20" d="M222.83,85.88a.41.41,0,0,1-.37-.44.42.42,0,0,1,.12-.25,3.92,3.92,0,0,1,3.47-1.12.4.4,0,0,1,.24.52.39.39,0,0,1-.41.26h0a3.16,3.16,0,0,0-2.75.92A.46.46,0,0,1,222.83,85.88Z"/><path class="cls-22" d="M206.77,95.56c1.39,6.15,2.93,17.46-1.29,21.71,0,0,1.88,6.22,13.38,5.89,12.63-.37,5.86-6.45,5.86-6.45-6.95-1.44-6.91-6.57-5.85-11.41Z"/><path class="cls-22" d="M268.59,362c-5.75-.29-10-.77-14.85-1-2.09-.11-3.34-.14-4.47-.16s-2.17,0-3.83-.07a3.78,3.78,0,0,1-3.76-5.3c.39-.87.86-2,1.35-3.46a45.36,45.36,0,0,0,2.3-15.38c-.19-9.93-.16-33.83,3.67-54.27a32.74,32.74,0,0,0-2.14-19,227.64,227.64,0,0,0-16-29.51c4.54-1.59,5.57-1.6,5.61-1.57,14.37-2.26,14-7.23,19-12.25,7.47,20.52,10.72,33.8,13.48,50,.49,2.89.13,7.26-1.6,15.73-11.11,54.17-11.54,63.78-11.35,63.91,5.53,3.77,9.22,6.93,15.76,8.7C273.18,358.71,272.05,362.17,268.59,362Z"/><path class="cls-22" d="M219.52,276.21c-.47,2.89-2.23,6.91-6.62,14.35-28.08,47.64-31.59,56.59-31.46,56.77,2.09,2.8,3.77,5.28,5.69,7.54l.56.7c1.8.88,3.2.9,5.48,1.48,1.45.36.38,3.84-3.09,3.73-.88,0-2-.09-3-.16A18.1,18.1,0,0,1,180.7,359c-3.09-1.41-7.57-3.44-8.26-3.69-1.07-.38-3-.3-4.59-.89a3.78,3.78,0,0,1-1.84-6.23c.65-.69,1.47-1.63,2.4-2.84a45.14,45.14,0,0,0,7.16-13.8c3-9.46,10.83-32.05,21.08-50.15a32.74,32.74,0,0,0,4.15-18.68,228,228,0,0,0-5.61-33.12c4.81,0,5.79.29,5.82.33,14.32,2.53,15.63-2.28,22-5.41C223.39,246.38,222.16,260,219.52,276.21Z"/><path class="cls-22" d="M239,123.77c2.43,8.33,1.48,33.39,2.33,66.65l-45.14,2.85c-1.27-11.64,4.08-30.47-5-63.4a10.16,10.16,0,0,1,8-11.94l.34-.07c1.42-.23,2.89-.44,4.35-.6A168.6,168.6,0,0,1,223.11,116c2.67.08,5.28.34,7.46.62A10.13,10.13,0,0,1,239,123.77Z"/><path class="cls-15" d="M227.53,190.54s-1.45,35.42-3,44.51c-17.52,2.09-26.2.14-31.21-3.15.07-8.4-6.31-23.43,3.08-40.85a69.66,69.66,0,0,0,14.83.6C221.56,191,227.53,190.54,227.53,190.54Z"/><path class="cls-23" d="M225.66,220.61l-9.17-8.07c.12.24,3.74,17.54,8,22.51,0,0,.45-5.9.45-5.94Z"/><path class="cls-22" d="M227.89,99.51a11.76,11.76,0,0,1-6,9.15h0a10.86,10.86,0,0,1-3.52,1.27,10.51,10.51,0,0,1-8.25-2.12c-4.79-3.65-5.36-8.54-7-16.77A11.44,11.44,0,0,1,217.15,77.5C225.74,79.65,228.62,91.8,227.89,99.51Z"/><path class="cls-24" d="M221.8,108.64a10.66,10.66,0,0,1-3.48,1.24l.47-4.57S220.17,108.25,221.8,108.64Z"/><path class="cls-24" d="M240.6,131.36,236,136.47a4.87,4.87,0,0,0-1.2,3.83l.65,5.32A15.31,15.31,0,0,0,240.6,131.36Z"/><path class="cls-15" d="M227.86,99.8a5.71,5.71,0,0,1-2.66-1.29.21.21,0,0,1,0-.29.22.22,0,0,1,.3,0,5.54,5.54,0,0,0,2.4,1.16Z"/><path class="cls-20" d="M219.09,88.55a14.64,14.64,0,0,1,2,5.5c.3-4.35-.51-5.65,0-10s1.44-3.12,2-2.72a7.6,7.6,0,0,0-4.4-6.81c-3.46-1.38-7.5-.62-11,.11a23,23,0,0,0-12.08,6.7c-3.52,3.77-4.11,8.08-2.42,13.1,1,2.87,2.78,3.48,3.67,6.38s0,7.87-2.89,8.79c5.43,1.5,7.64-2.67,7.64-2.67s.66,2.54-2.22,5.31h0c3.69.1,7.19-4.66,7.19-4.66s1.29,2.58-2.4,6c7.08-2.06,10.42-6.34,11.85-10.87s.42-9.43-.6-14.07h0A2.11,2.11,0,0,1,219.09,88.55Z"/><path class="cls-8" d="M202.78,69.33A8.1,8.1,0,0,0,192.25,81a7.37,7.37,0,0,0-4.59,9.16c-3.84,1.82-5,7.6-2.19,10.77s8.7,2.66,10.94-1a5.66,5.66,0,0,0,11.3.4c1.38,2.83,6,3.19,7.81.61h0a3.73,3.73,0,0,0,3.4-3.64,4.14,4.14,0,0,0-1.54-3.41c-1.71-1.29-1.8-3.16,0-4.3,2.44-1.53,1.65,1.35,4.06,1.55A2.87,2.87,0,0,0,224,89.92c1.86-2.64-1.15-5.16-3.35-4.3a5.09,5.09,0,0,0,.38-10,7.55,7.55,0,1,0-13.19-7A2.47,2.47,0,1,0,203.09,70Z"/><path class="cls-25" d="M202.78,69.33A8.1,8.1,0,0,0,192.25,81a7.37,7.37,0,0,0-4.59,9.16c-3.84,1.82-5,7.6-2.19,10.77s8.7,2.66,10.94-1a5.66,5.66,0,0,0,11.3.4c1.38,2.83,6,3.19,7.81.61h0a3.73,3.73,0,0,0,3.4-3.64,4.14,4.14,0,0,0-1.54-3.41c-1.71-1.29-1.8-3.16,0-4.3,2.44-1.53,1.65,1.35,4.06,1.55A2.87,2.87,0,0,0,224,89.92c1.86-2.64-1.15-5.16-3.35-4.3a5.09,5.09,0,0,0,.38-10,7.55,7.55,0,1,0-13.19-7A2.47,2.47,0,1,0,203.09,70Z"/><path class="cls-22" d="M214.6,90.89a9.53,9.53,0,0,0,3.45,5c2.21,1.62,3.84,0,3.67-2.5-.16-2.24-1.5-5.78-3.93-6.42S214,88.46,214.6,90.89Z"/><polygon class="cls-5" points="241.92 185.3 242.92 189.54 195.42 192.69 195.47 188.33 241.92 185.3"/><path class="cls-15" d="M258.55,220.05c-.12,7.07-18.54,15.29-30.68,14.31a56.4,56.4,0,0,0-3.93-8.43l0,0c-.71-.77-1.43-1.57-2.15-2.43a54.34,54.34,0,0,1-5.62-8.13h0c-3.61-6.44-6.42-14.79-5.78-23.63,0-.09,31.78-2.15,31.78-2.15a151.48,151.48,0,0,0,7.27,14.92C252.62,210.3,258.57,219,258.55,220.05Z"/><path class="cls-22" d="M213.33,67.83c.95.66,5.65,0,7.45,3.52l-3.13,9.33-9.92-6Z"/><polygon class="cls-22" points="217.65 80.68 219.5 69.77 226.77 74.7 225.22 81.24 217.65 80.68"/><path class="cls-22" d="M222.57,79.53l31.09,20.94s14.9,4,13.55-3.37c-1.29-7-42-23.22-42-23.22L224.24,77Z"/><path class="cls-22" d="M243.33,108.93c6.08-5.11,5.32-6.49,11.4-11.6A17.14,17.14,0,0,1,259.87,94a5.14,5.14,0,0,1,6.86,6.91,29.47,29.47,0,0,1-7.5,11.8,352.62,352.62,0,0,0-24.66,25.57c-2.79-.63-4.62-14.88-4.68-18S241.19,110.73,243.33,108.93Z"/><path class="cls-22" d="M190,78.73l-24.93,28s-13.43,7.61-14,.1c-.5-7.15,34.94-32.92,34.94-32.92l1.7,2.82Z"/><path class="cls-22" d="M186.08,73.91s-.35,3,1.39,3.55A7.48,7.48,0,0,1,190,78.73l7.56-2.92s-1.72-5.47-1.22-7.77S186.08,73.91,186.08,73.91Z"/><path class="cls-22" d="M196.1,67.63l5.74-.07s3.64,5.26,3.09,5.47l-7.34,2.78S194.36,70.3,196.1,67.63Z"/><path class="cls-22" d="M177.21,112.37c-7.16-3.44-6.77-5-13.92-8.41a17,17,0,0,0-5.81-2,5.8,5.8,0,0,0-5.4,2.28c-1.15,1.83-.72,4.32.47,6.12a16.93,16.93,0,0,0,4.81,4.29c4.22,2.91,35.35,20.84,35.35,20.84,2.55-1.31,6.06-12.59,5.34-15.65S179.73,113.58,177.21,112.37Z"/><path d="M195.45,191a.5.5,0,0,1,0-1l47-3.06a.49.49,0,0,1,.53.47.5.5,0,0,1-.47.53l-47,3.06Z"/><path class="cls-8" d="M240.86,107.05a4.59,4.59,0,1,0-8.19,4.16,2,2,0,0,0-2.89,2,3.33,3.33,0,0,0-4.11,5.17,2.72,2.72,0,1,0,4.94,2.09,5.89,5.89,0,0,0,8.2-3.72,5.37,5.37,0,0,0,6.77-5c-.06-1.67,2.49-2.13,0-4.22C244.67,106.81,241.81,106.74,240.86,107.05Z"/><path class="cls-25" d="M240.86,107.05a4.59,4.59,0,1,0-8.19,4.16,2,2,0,0,0-2.89,2,3.33,3.33,0,0,0-4.11,5.17,2.72,2.72,0,1,0,4.94,2.09,5.89,5.89,0,0,0,8.2-3.72,5.37,5.37,0,0,0,6.77-5c-.06-1.67,2.49-2.13,0-4.22C244.67,106.81,241.81,106.74,240.86,107.05Z"/><path class="cls-8" d="M202.28,123.64A2,2,0,0,0,200,126.8a3.92,3.92,0,0,0-1.93,6.94,5,5,0,0,0,3.15,7.07,2.71,2.71,0,0,0,2.1,4.53,6.53,6.53,0,0,0,12.47-.86c-.57.85.81,1.93,1.72,1.46a2.72,2.72,0,0,0,1.1-2.69,7.23,7.23,0,0,0-4.21-6l-2.1-1.32a7.85,7.85,0,0,1-3-2.78c-.63-1.24-.36-3.05.9-3.62a1.85,1.85,0,1,0-.38-2.5,1.8,1.8,0,1,0-3.11-1.76,2.41,2.41,0,0,0-3.93-1.55Z"/><g class="cls-12"><path class="cls-5" d="M202.28,123.64A2,2,0,0,0,200,126.8a3.92,3.92,0,0,0-1.93,6.94,5,5,0,0,0,3.15,7.07,2.71,2.71,0,0,0,2.1,4.53,6.53,6.53,0,0,0,12.47-.86c-.57.85.81,1.93,1.72,1.46a2.72,2.72,0,0,0,1.1-2.69,7.23,7.23,0,0,0-4.21-6l-2.1-1.32a7.85,7.85,0,0,1-3-2.78c-.63-1.24-.36-3.05.9-3.62a1.85,1.85,0,1,0-.38-2.5,1.8,1.8,0,1,0-3.11-1.76,2.41,2.41,0,0,0-3.93-1.55Z"/></g><path class="cls-8" d="M179.66,83.37c0,.78-.86,1.3-1.63,1.4s-1.57-.06-2.33.08-1.56.76-1.47,1.54a3.43,3.43,0,0,0-4.38,4.71A2,2,0,0,0,168,94.32a3.24,3.24,0,0,0-2,.89c-.47.58-.28,1.7.47,1.78a1.6,1.6,0,0,0,1.07-.43l4.31-3.17a18.48,18.48,0,0,0,4.41-4l5.49-5.77c.35-.37.74-.88.54-1.36a.94.94,0,0,0-1.35-.28A2.71,2.71,0,0,0,180,83.2l.4-.66Z"/><g class="cls-12"><path class="cls-5" d="M179.66,83.37c0,.78-.86,1.3-1.63,1.4s-1.57-.06-2.33.08-1.56.76-1.47,1.54a3.43,3.43,0,0,0-4.38,4.71A2,2,0,0,0,168,94.32a3.24,3.24,0,0,0-2,.89c-.47.58-.28,1.7.47,1.78a1.6,1.6,0,0,0,1.07-.43l4.31-3.17a18.48,18.48,0,0,0,4.41-4l5.49-5.77c.35-.37.74-.88.54-1.36a.94.94,0,0,0-1.35-.28A2.71,2.71,0,0,0,180,83.2l.4-.66Z"/></g><path class="cls-8" d="M225.88,161a2.8,2.8,0,0,0-2.25,3.18,3.46,3.46,0,0,0,3.05,2.68,4.58,4.58,0,0,0,3.83-1.7,4.32,4.32,0,0,0,.52-5,3,3,0,0,0-4.57-.6Z"/><g class="cls-12"><path class="cls-5" d="M225.88,161a2.8,2.8,0,0,0-2.25,3.18,3.46,3.46,0,0,0,3.05,2.68,4.58,4.58,0,0,0,3.83-1.7,4.32,4.32,0,0,0,.52-5,3,3,0,0,0-4.57-.6Z"/></g></g></g></svg>