<svg xmlns="http://www.w3.org/2000/svg" width="119.674" height="152.929" viewBox="0 0 119.674 152.929">
  <g id="quality" transform="translate(-55.666)">
    <g id="Group_5" data-name="Group 5" transform="translate(68.537 116.765)">
      <g id="Group_4" data-name="Group 4" transform="translate(0)">
        <path id="Path_41" data-name="Path 41" d="M137.042,393.621a19,19,0,0,1-21.521,3.222,19.609,19.609,0,0,1-6.622-5.137L98.94,413.732a1.915,1.915,0,0,0,2.258,2.634l7.25-2.018a9.233,9.233,0,0,1,10.8,4.884l3.274,6.776a1.914,1.914,0,0,0,3.468-.044l15.84-35.037A11.884,11.884,0,0,0,137.042,393.621Z" transform="translate(-98.758 -390.926)" fill="#6163a7"/>
      </g>
    </g>
    <g id="Group_7" data-name="Group 7" transform="translate(119.393 116.765)">
      <g id="Group_6" data-name="Group 6">
        <path id="Path_42" data-name="Path 42" d="M311.916,413.732l-9.958-22.026a19.6,19.6,0,0,1-6.622,5.137,19,19,0,0,1-21.521-3.222,11.883,11.883,0,0,0-4.792-2.695l15.84,35.037a1.914,1.914,0,0,0,3.468.044l3.274-6.776a9.234,9.234,0,0,1,10.8-4.884l7.25,2.018a1.915,1.915,0,0,0,2.259-2.634Z" transform="translate(-269.022 -390.926)" fill="#6163a7"/>
      </g>
    </g>
    <g id="Group_9" data-name="Group 9" transform="translate(55.666)">
      <g id="Group_8" data-name="Group 8" transform="translate(0)">
        <path id="Path_43" data-name="Path 43" d="M170.11,62.065a19.44,19.44,0,0,1-5.842-25.6,12.013,12.013,0,0,0-13.934-17.473A19.441,19.441,0,0,1,126.678,7.6a12.013,12.013,0,0,0-22.348,0A19.441,19.441,0,0,1,80.673,18.994,12.013,12.013,0,0,0,66.74,36.467a19.44,19.44,0,0,1-5.842,25.6A12.013,12.013,0,0,0,65.87,83.853a19.441,19.441,0,0,1,16.371,20.528,12.013,12.013,0,0,0,20.135,9.7,19.44,19.44,0,0,1,26.256,0,12.014,12.014,0,0,0,20.135-9.7,19.441,19.441,0,0,1,16.371-20.528,12.013,12.013,0,0,0,4.973-21.788ZM115.5,100.336a39.313,39.313,0,1,1,39.313-39.313A39.358,39.358,0,0,1,115.5,100.336Z" transform="translate(-55.666)" fill="#6163a7"/>
      </g>
    </g>
    <g id="Group_11" data-name="Group 11" transform="translate(83.52 29.04)">
      <g id="Group_10" data-name="Group 10" transform="translate(0)">
        <path id="Path_44" data-name="Path 44" d="M180.9,97.225a31.983,31.983,0,1,0,31.983,31.983A32.02,32.02,0,0,0,180.9,97.225Zm16.391,28.882-19.905,14.539a3.665,3.665,0,0,1-5.161-.853l-5.954-8.477a3.665,3.665,0,1,1,6-4.213l3.808,5.422,16.89-12.336a3.665,3.665,0,1,1,4.323,5.919Z" transform="translate(-148.92 -97.225)" fill="#6163a7"/>
      </g>
    </g>
  </g>
</svg>
