<svg xmlns="http://www.w3.org/2000/svg" width="389.871" height="68.816" viewBox="0 0 389.871 68.816">
  <g id="Group_1" data-name="Group 1" transform="translate(-63.358 -14.854)">
    <path id="Path_1" data-name="Path 1" d="M217.582,26.209l-8.023,14.647,8.248-4.579-9.005,17.6,9.261-5.039-24.42,42.505a34.739,34.739,0,0,0,23.94-65.136ZM231.752,51.5a.867.867,0,0,1-.945.591c-1.179,0-2.357.01-3.536,0a8.718,8.718,0,0,0-1.341.108,1.292,1.292,0,0,0-.874.446,3.54,3.54,0,0,0-.436,1.8,1.26,1.26,0,0,0,.615,1.063,3.006,3.006,0,0,0,.894.38c.678.175,1.371.295,2.035.523a5.606,5.606,0,0,1,2.125,1.163c.117.112.231.227.347.341a3.086,3.086,0,0,1,.452,1.528,11.606,11.606,0,0,1-.64,4.613c-.02.058-.03.12-.044.18a3.389,3.389,0,0,1-1.218,2.028,4.82,4.82,0,0,1-2.94,1.17c-.114.005-.219.052-.332.06-2.489-.093-4.979-.057-7.468-.063a.175.175,0,0,1-.135-.05c-.579-.062-.779-.457-.852-.965a.069.069,0,0,1-.026-.054c0-.021,0-.031.007-.031a.43.43,0,0,1,.093-.216q.252-.883.495-1.787l.955-.029a2.325,2.325,0,0,0,.51,0c.927-.068,1.854.05,2.78,0,.725-.041,1.454-.021,2.174-.134a1.851,1.851,0,0,0,.614-.156.658.658,0,0,1,.137-.1.6.6,0,0,1,.08-.034.337.337,0,0,0,.16-.068c.026-.017.053-.031.08-.045a1.038,1.038,0,0,0,.232-.156c.046-.042.092-.086.135-.132.02-.025.041-.048.062-.072a.729.729,0,0,0,.1-.166c.015-.032.032-.063.049-.094a3.758,3.758,0,0,0,.492-1.932,1.059,1.059,0,0,0-.761-.934A11.355,11.355,0,0,0,224.2,59.7a14.121,14.121,0,0,1-1.748-.555.763.763,0,0,1-.1-.045.384.384,0,0,1-.149-.148c-.263-.143-.527-.283-.789-.429a2.025,2.025,0,0,1-1.032-1.568,6.646,6.646,0,0,1,.03-1.684,14.782,14.782,0,0,1,.345-2.259,5.928,5.928,0,0,1,1.933-3.062,3.394,3.394,0,0,1,2.118-.855.734.734,0,0,0,.331-.052,1.175,1.175,0,0,1,.687-.122c1.906,0,3.811-.014,5.717-.016a3.229,3.229,0,0,1,.338.013c.278.028.408.176.356.457A19.938,19.938,0,0,1,231.752,51.5Z" transform="translate(-106.243 -9.26)" fill="#fff"/>
    <path id="Path_2" data-name="Path 2" d="M90.148,41.517l11.424-26.49q-1.719-.171-3.484-.173A34.735,34.735,0,0,0,86.181,82.218L96.549,52.872l-6.5,4.154,7.022-19.389ZM86.055,40.38c-.1.535-.221,1.068-.326,1.6a1.306,1.306,0,0,1-.983,1.133,9.252,9.252,0,0,1-1.106.121c-1.9-.018-3.808.026-5.712-.02a.687.687,0,0,0-.732.4,17.022,17.022,0,0,0-1.829,5.093,22.149,22.149,0,0,0-.522,2.626,17.422,17.422,0,0,0-.352,2.992,2.427,2.427,0,0,0,.111.8,1.941,1.941,0,0,0,1.282.462c.725,0,1.45.007,2.175,0a9.555,9.555,0,0,0,1-.079.873.873,0,0,0,.606-.308,10.217,10.217,0,0,0,1.041-3.251c.08-.271.127-.553.2-.827.063-.2.108-.4.16-.6s-.066-.211-.211-.2c-.7,0-1.4.018-2.1-.009a2.492,2.492,0,0,0-.61-.085.576.576,0,0,1-.119-.031.99.99,0,0,1-.167-.08.493.493,0,0,1-.1-.076c-.459-.356-.27-.817-.206-1.259.088-.432.16-.867.246-1.3.1-.5.2-.58.705-.581q2.877-.009,5.754,0a.976.976,0,0,1,.2.028c.141.089.316.127.423.271a.081.081,0,0,0,.081.056,1.273,1.273,0,0,1,.236,1.2c-.285,1.293-.593,2.581-.893,3.871q-.4,1.707-.795,3.413a2.081,2.081,0,0,0-.028.231c-.076.1.011.228-.073.321a.038.038,0,0,0-.009.053c-.047.079,0,.181-.065.257a.052.052,0,0,0-.012.062c-.076.1.046.236-.074.321V57c-.081.091.041.231-.075.313a.07.07,0,0,0-.016.073.253.253,0,0,1-.068.309l0,0c-.078.091.042.23-.074.312v0c-.069.062,0,.176-.086.23v0a.55.55,0,0,1-.283.443,1.773,1.773,0,0,1-1.293.447c-3,.012-6,.024-9,0a2.694,2.694,0,0,0-.461-.061A2.581,2.581,0,0,1,69.8,58c-.238-.273-.169-.614-.266-.917a.821.821,0,0,1-.025-.13c-.086-.389.215-.724.152-1.114-.024-.148-.011-.3-.043-.453a.385.385,0,0,1,0-.13c.088-.217.038-.466.155-.676a14.285,14.285,0,0,0,.228-1.5,50,50,0,0,1,2.419-9.774,9.635,9.635,0,0,1,.955-1.956,2.294,2.294,0,0,1,1.482-1.048,12.382,12.382,0,0,1,2.629-.274c2.729-.014,5.458,0,8.187,0h.078C86.1,40.033,86.119,40.044,86.055,40.38Z" transform="translate(0 0)" fill="#fff"/>
  </g>
  <g id="Group_2" data-name="Group 2" transform="translate(60.002 -417.597)">
    <path id="Path_3" data-name="Path 3" d="M249.07,447.3a1.785,1.785,0,0,0-.632,1.055c-1.641,4.132-3.265,8.27-4.9,12.4-.355.9-.14.873-1.257.875-.52,0-1.042-.031-1.558.008-.587.045-.759-.206-.791-.765-.117-2.037-.283-4.071-.427-6.108-.166-2.369-.325-4.738-.494-7.107-.023-.327-.091-.652-.171-1.208a8.639,8.639,0,0,0-.36.805c-1.281,4.18-2.548,8.363-3.841,12.539a1.784,1.784,0,0,0,.32,1.834c-1.317,0-2.46.02-3.6-.005-1.2-.026-1.445-.389-1.06-1.537q2.74-8.166,5.494-16.327c.366-1.088.717-2.182,1.106-3.262.211-.587.443-1.153-.119-1.789,1.492,0,2.825-.008,4.159,0,1,.008,1.155.13,1.257,1.127.155,1.514.281,3.03.4,4.546.174,2.183.331,4.366.5,6.549.017.213.053.425.1.753.378-.187.408-.5.5-.733,1.4-3.468,2.787-6.946,4.2-10.411a1.575,1.575,0,0,0-.163-1.834c1.643,0,3.124-.015,4.6.006a1.024,1.024,0,0,1,1.181,1.042,11.957,11.957,0,0,1,.037,1.335q.158,9.3.318,18.6a2.574,2.574,0,0,0,.535,1.929c-1.48,0-2.789.04-4.1-.014-.852-.035-1.006-.274-1.024-1.237q-.111-6.18-.212-12.361C249.068,447.825,249.07,447.64,249.07,447.3Z" transform="translate(-59.391 -0.035)" fill="#fff"/>
    <path id="Path_4" data-name="Path 4" d="M53.067,458.2a17.7,17.7,0,0,1-.469,2.4,1.065,1.065,0,0,1-1.057.959c-.407.026-.813.09-1.219.091q-4.9.012-9.8.006c-.111,0-.223,0-.334,0-1.013-.056-1.333-.436-1.132-1.435.285-1.417.608-2.826.916-4.238q1.7-7.821,3.412-15.641a2.239,2.239,0,0,0-.2-1.563H56.428a18.13,18.13,0,0,1-.48,2.743c-.112.562-.54.611-1.025.608-2.08-.014-4.158-.007-6.238-.008-.223,0-.445,0-.668,0a.467.467,0,0,0-.542.422c-.3,1.524-.612,3.045-.942,4.672h7.444a13.754,13.754,0,0,1-.394,2.7c-.149.833-.323.959-1.2.969-1.6.017-3.193.005-4.79.007-.3,0-.595-.01-.891.01-.834.054-1.042.2-1.218,1.017-.381,1.776-.717,3.561-1.09,5.338-.1.456.07.605.5.6,1.226-.01,2.451.021,3.676-.009a22.178,22.178,0,0,0,4.218-.15C53.215,457.685,53.175,457.926,53.067,458.2Z" transform="translate(0 -0.056)" fill="#fff"/>
    <path id="Path_5" data-name="Path 5" d="M378.576,445.093c1.317,0,2.536-.051,3.748.018.8.045,1.115.515,1.132,1.352,0,.168-.1.351.094.541a2.531,2.531,0,0,0,.607-.894,1.866,1.866,0,0,1,1.722-1.026c1.039-.026,2.082-.048,3.119.006a2.529,2.529,0,0,1,2.549,3.074c-.207,1.466-.564,2.911-.875,4.361q-.923,4.295-1.876,8.583a2.624,2.624,0,0,0,.4,2.434,33.178,33.178,0,0,1-4.16.034c-.652-.027-.853-.429-.7-1.238.212-1.13.463-2.251.7-3.375q.83-3.859,1.667-7.717c.016-.072.025-.146.038-.219.38-2.133-.357-2.338-2.042-2.217-1.534.11-1.742.451-2.03,1.742-.838,3.763-1.711,7.518-2.582,11.274a1.735,1.735,0,0,0,.411,1.779c-1.432,0-2.677.032-3.921-.01-.98-.033-1.274-.469-1.055-1.478q1.416-6.519,2.849-13.035c.119-.542.211-1.093.365-1.625A3,3,0,0,0,378.576,445.093Z" transform="translate(-104.551 -2.007)" fill="#fff"/>
    <path id="Path_6" data-name="Path 6" d="M303.364,463.6c-1.452,0-2.64.014-3.827,0-1.061-.017-1.294-.318-1.07-1.391q1.169-5.6,2.36-11.2c.038-.181.1-.359.123-.542.116-1.072-.23-1.512-1.285-1.657a4.936,4.936,0,0,0-1.218.025,1.728,1.728,0,0,0-1.653,1.511q-1.292,5.805-2.64,11.6a1.674,1.674,0,0,0,.431,1.662c-1.326,0-2.46.012-3.593,0-1.3-.017-1.609-.367-1.352-1.634.353-1.743.753-3.477,1.137-5.214q1.058-4.775,2.122-9.548a3.012,3.012,0,0,0-.232-2.122,27.8,27.8,0,0,1,3.909.059c.816.11,1.034.6,1,1.87a1.707,1.707,0,0,0,.644-.853,1.91,1.91,0,0,1,1.805-1.083c1.039-.019,2.081-.043,3.117.016a2.5,2.5,0,0,1,2.526,2.783,21.143,21.143,0,0,1-.7,3.709q-.978,4.736-2.046,9.455A2.586,2.586,0,0,0,303.364,463.6Z" transform="translate(-77.858 -2.003)" fill="#fff"/>
    <path id="Path_7" data-name="Path 7" d="M315.473,445.081c1.4,0,2.585-.019,3.769.006.823.017,1.052.3.888,1.139-.278,1.419-.6,2.829-.91,4.242-.533,2.465-1.077,4.927-1.594,7.4-.363,1.735-.128,2.03,1.649,2.1.554.021,1.111-.052,1.667-.061a1.26,1.26,0,0,0,1.286-1.013,34.1,34.1,0,0,0,.747-3.478q.847-4.31,1.682-8.624a2.369,2.369,0,0,0-.025-1.705c1.308,0,2.491,0,3.673,0,.512,0,.715.314.8.758a2.539,2.539,0,0,1-.1.988c-1.018,4.978-2.021,9.958-3.046,14.934a1.854,1.854,0,0,0,.369,1.844c-1.524,0-2.834.012-4.142,0-.764-.01-.737-.686-.937-1.289a1.9,1.9,0,0,1-2.062,1.3c-1.3.009-2.6,0-3.9,0a2.937,2.937,0,0,1-1.587-.439,2.046,2.046,0,0,1-.968-2.3q.518-2.732,1.091-5.453c.611-2.9,1.24-5.8,1.867-8.7A2,2,0,0,0,315.473,445.081Z" transform="translate(-85.042 -2.013)" fill="#fff"/>
    <path id="Path_8" data-name="Path 8" d="M410.988,459.943c-.138.728-.25,1.462-.42,2.182a1.663,1.663,0,0,1-1.9,1.491,1.584,1.584,0,0,0-1.88,1.229c-.267.758-.444,1.769-1.1,2.112a5.856,5.856,0,0,1-2.409.12c-.392.006-.785,0-1.383,0,.511-.7.9-1.224,1.282-1.752.365-.5.726-1,1.079-1.49-.228-.265-.462-.172-.669-.186-.3-.021-.595,0-.891-.025-2.458-.223-3.587-1.37-3.778-3.832a22.926,22.926,0,0,1,.538-6.083,24.322,24.322,0,0,1,1.336-4.583c1.124-2.776,2.805-3.918,5.815-3.939,2.15-.014,4.3,0,6.556,0-.13.8-.236,1.516-.363,2.228a1.591,1.591,0,0,1-1.791,1.563c-1.3.028-2.6.053-3.9.008a2.057,2.057,0,0,0-2.155,1.388,19.523,19.523,0,0,0-1.635,6.662,3.878,3.878,0,0,0,.092.995,1.835,1.835,0,0,0,2.144,1.772c1.076-.006,2.153-.069,3.229-.1a4.809,4.809,0,0,0,1.929-.473C411.288,459.285,411.068,459.641,410.988,459.943Z" transform="translate(-111.829 -2.046)" fill="#fff"/>
    <path id="Path_9" data-name="Path 9" d="M153.553,459.759c-.161.837-.292,1.682-.493,2.508a1.711,1.711,0,0,1-1.683,1.364c-2.042.028-4.086.017-6.129-.014a5,5,0,0,1-1.523-.3,3,3,0,0,1-1.993-2.083,7.822,7.822,0,0,1-.347-2.75,29.473,29.473,0,0,1,1.861-9.12,14.838,14.838,0,0,1,.658-1.408,4.848,4.848,0,0,1,4.214-2.7c2.477-.139,4.968-.034,7.507-.034a12.663,12.663,0,0,1-.368,2.631c-.134.709-.8,1.113-1.716,1.132-1.189.023-2.384.083-3.565-.012a2.407,2.407,0,0,0-2.685,1.807,21.577,21.577,0,0,0-1.44,6.039,4.128,4.128,0,0,0,.061,1c.252,1.564.8,2.015,2.4,1.986.966-.018,1.931-.065,2.9-.09a4.966,4.966,0,0,0,2.041-.482C153.687,459.212,153.637,459.475,153.553,459.759Z" transform="translate(-31.812 -2.046)" fill="#fff"/>
    <path id="Path_10" data-name="Path 10" d="M103.99,443.65c1.064,0,2.1-.009,3.129,0,.722.008.721.02.687.733-.023.482-.045.964-.068,1.446-.057,1.164-.469,1.575-1.658,1.613-.668.021-1.337-.01-2.005.012-.866.029-1.021.148-1.206.993q-.9,4.129-1.771,8.266a3.2,3.2,0,0,0-.059.664c0,.85.2,1.067,1.033,1.106.481.022.966-.009,1.447.008a2.284,2.284,0,0,0,2.173-.731,16.319,16.319,0,0,1-.712,3.685,1.121,1.121,0,0,1-1.172.7c-2.228.026-4.456.053-6.683.014-.856-.014-1.316-.824-1.121-1.8.3-1.527.627-3.05.937-4.575q.832-4.082,1.657-8.153c-.389-.375-.9-.012-1.34-.336.155-.873.322-1.778.475-2.685.054-.321.256-.392.542-.437a5.673,5.673,0,0,0,4.689-3.459c.329-.773.917-.373,1.477-.478C104.494,441.409,104.023,442.453,103.99,443.65Z" transform="translate(-17.7 -0.506)" fill="#fff"/>
    <path id="Path_11" data-name="Path 11" d="M346.087,458.2c-.194.906-.369,1.815-.588,2.715-.24.988-.515,1.237-1.54,1.254-2.077.035-4.155.037-6.232.018-1.066-.01-1.58-.694-1.366-1.785.436-2.217.9-4.429,1.348-6.642.393-1.923.791-3.845,1.181-5.768a2.1,2.1,0,0,0,0-.416c-.39-.239-.833.012-1.283-.237.152-.871.314-1.769.461-2.67.061-.374.3-.46.629-.483a5.758,5.758,0,0,0,2.569-.982,5.006,5.006,0,0,0,1.9-2.126c.45-.906.456-.9,1.695-.691l-.555,3.189c1.305.238,2.6-.05,3.9.169-.047.774-.092,1.508-.136,2.242a1.334,1.334,0,0,1-1.445,1.464c-.665.043-1.335.006-2,.02-1.066.021-1.225.141-1.439,1.135q-.864,4.02-1.71,8.044a3.654,3.654,0,0,0-.087.881c.03.706.243.939.941.968.777.032,1.558-.01,2.337.016.509.017.8-.322,1.152-.587C346.033,457.889,346.144,457.959,346.087,458.2Z" transform="translate(-92.387 -0.519)" fill="#fff"/>
    <path id="Path_12" data-name="Path 12" d="M67.767,461.611c-1.2,0-2.271.018-3.34,0-1.159-.024-1.618-.633-1.391-1.854.285-1.529.606-3.051.9-4.578.957-4.981,1.893-9.965,2.883-14.939a2.393,2.393,0,0,0-.309-1.592c1.45,0,2.8-.033,4.153.014.638.022.805.356.666,1.112-.274,1.494-.564,2.984-.851,4.475q-1.506,7.8-3.018,15.6A2.04,2.04,0,0,0,67.767,461.611Z" transform="translate(-7.452 -0.011)" fill="#fefefe"/>
    <path id="Path_13" data-name="Path 13" d="M121.558,446.086a1.687,1.687,0,0,1,1.716-.977c1.142.029,2.286.008,3.494.008a12.419,12.419,0,0,1-.55,2.666,1.3,1.3,0,0,1-1.427.985c-.927.018-1.855-.012-2.783.01a1.644,1.644,0,0,0-1.818,1.443c-.885,3.977-1.727,7.964-2.6,11.944a2.352,2.352,0,0,0,.386,1.454c-1.29,0-2.463.03-3.634-.01-1.055-.035-1.364-.468-1.14-1.534q1.2-5.707,2.416-11.411c.292-1.376.563-2.758.882-4.128a1.4,1.4,0,0,0-.207-1.387c1.427,0,2.672-.006,3.916,0,.6,0,.835.395.923.922C121.269,446.272,121.411,446.244,121.558,446.086Z" transform="translate(-23.037 -2.023)" fill="#fff"/>
    <path id="Path_14" data-name="Path 14" d="M132.628,445.272c1.313,0,2.493-.015,3.673,0,1.009.017,1.336.423,1.135,1.41-.659,3.231-1.334,6.46-2,9.69-.352,1.706-.675,3.418-1.054,5.118a2.791,2.791,0,0,0,.159,2.178c-1.1,0-2.1.012-3.1,0-1.168-.019-1.469-.333-1.286-1.51.2-1.317.5-2.621.768-3.927.7-3.411,1.4-6.822,2.122-10.229A3.372,3.372,0,0,0,132.628,445.272Z" transform="translate(-28.31 -2.072)" fill="#fefefe"/>
    <path id="Path_15" data-name="Path 15" d="M435.273,439.542a4.5,4.5,0,0,1-.323,1.514,1.657,1.657,0,0,1-2.5.981,12.111,12.111,0,0,1-1.219-.766c-.28-.181-.54-.4-.832-.553-.742-.4-1.055-.268-1.333.52-.082.232.009.6-.3.658a4.1,4.1,0,0,1-1.215,0c-.2-.026-.183-.279-.179-.465a4.377,4.377,0,0,1,.451-1.931,1.443,1.443,0,0,1,1.829-.84,4.293,4.293,0,0,1,1.372.707c.341.222.655.488,1.006.691.828.48,1.172.34,1.449-.56.073-.238.036-.577.365-.613a2.51,2.51,0,0,1,1.308.052C435.39,439.044,435.277,439.33,435.273,439.542Z" transform="translate(-120.681)" fill="#fbfafa"/>
    <path id="Path_16" data-name="Path 16" d="M137.634,439.017c.444,0,.888-.016,1.332,0,.628.028.863.266.891.862a1.855,1.855,0,0,1-.027.332c-.257,2.037-.257,2.037-2.341,2.037-.407,0-.815.015-1.22-.008-.692-.036-.893-.281-.842-.987a2.411,2.411,0,0,1,.076-.436,8.683,8.683,0,0,1,.325-1.625c.028-.058.1-.134.15-.135.552-.01,1.1-.006,1.657-.006Z" transform="translate(-29.962 -0.129)" fill="#fdfcfc"/>
    <path id="Path_17" data-name="Path 17" d="M89.5,438.756c-.825,1.2-1.525,2.2-2.2,3.213a.761.761,0,0,1-.727.383c-.738-.015-1.477,0-2.3,0,.27-1.181.735-2.217,1.088-3.288.092-.278.286-.3.514-.3C87.012,438.755,88.15,438.756,89.5,438.756Z" transform="translate(-14.069 -0.049)" fill="#fbfafa"/>
    <path id="Path_18" data-name="Path 18" d="M429.345,467.778c.006-.307.205-.517.458-.88.045.5.088.851-.183,1.171Z" transform="translate(-121.296 -8.794)" fill="#323131"/>
    <path id="Path_19" data-name="Path 19" d="M59.285,466.363c-.078-.176-.076-.4-.276-.507l.392-.822A1.537,1.537,0,0,1,59.285,466.363Z" transform="translate(-6.218 -8.215)" fill="#c5c3c3"/>
    <path id="Path_20" data-name="Path 20" d="M172.89,467.584a.679.679,0,0,1,.388-.629.763.763,0,0,1-.126.887Z" transform="translate(-41.605 -8.812)" fill="#565453"/>
    <path id="Path_21" data-name="Path 21" d="M416.324,466.132c-.1-.234.04-.559-.27-.713.079-.165.2-.35.376-.317.246.046.119.285.108.436A.906.906,0,0,1,416.324,466.132Z" transform="translate(-117.166 -8.235)" fill="#b2b0b0"/>
    <path id="Path_22" data-name="Path 22" d="M125.138,446.522a.414.414,0,0,1,0,.1c-.045.214-.163.489-.356.436s-.134-.349-.073-.551Z" transform="translate(-26.617 -2.459)" fill="#4f4d4c"/>
    <path id="Path_23" data-name="Path 23" d="M371.094,464.978c-.086-.161-.028-.4-.258-.482.069-.163.163-.366.351-.316.213.057.126.287.092.44A1.522,1.522,0,0,1,371.094,464.978Z" transform="translate(-103.115 -7.947)" fill="#908f90"/>
    <path id="Path_24" data-name="Path 24" d="M158.907,465.945c-.088-.185-.071-.43-.3-.533.081-.169.207-.365.387-.317.225.06.117.3.089.459A1.747,1.747,0,0,1,158.907,465.945Z" transform="translate(-37.166 -8.232)" fill="#b0aeae"/>
    <path id="Path_25" data-name="Path 25" d="M279.021,467.392c0-.23.185-.489.322-.391.212.15.1.433-.1.618Z" transform="translate(-74.584 -8.82)" fill="#5c5a59"/>
    <path id="Path_26" data-name="Path 26" d="M350.371,466l-.271-.274c.054-.181.228-.4.342-.323C350.712,465.589,350.545,465.819,350.371,466Z" transform="translate(-96.671 -8.326)" fill="#727172"/>
    <path id="Path_27" data-name="Path 27" d="M213.882,464.709c-.07-.119-.127-.252-.283-.286.048-.192.238-.4.349-.327C214.219,464.279,214.054,464.516,213.882,464.709Z" transform="translate(-54.255 -7.919)" fill="#817f81"/>
    <path id="Path_28" data-name="Path 28" d="M429.559,469.16a.8.8,0,0,1-.172.717A.62.62,0,0,1,429.559,469.16Z" transform="translate(-121.295 -9.497)" fill="#323131"/>
    <path id="Path_29" data-name="Path 29" d="M429.124,468.415a.19.19,0,0,1,.152-.247A.185.185,0,0,1,429.124,468.415Z" transform="translate(-121.224 -9.189)" fill="#323131"/>
    <path id="Path_30" data-name="Path 30" d="M282.45,448.723a2.676,2.676,0,0,0-2.85-3.506c-2.3-.012-4.6,0-6.9,0-1.462,0-1.462,0-1.676,1.394-.211,1.374.11,1.768,1.5,1.783,1.373.015,2.747-.01,4.12.006,1.162.012,1.48.378,1.353,1.5-.106.936-.307,1.121-1.277,1.126-1.782.008-3.563-.006-5.345.01a2.991,2.991,0,0,0-3.021,2,23.09,23.09,0,0,0-1.423,4.9,9.979,9.979,0,0,0-.121,3.322,2.516,2.516,0,0,0,2.8,2.4c.779.012,1.562-.041,2.338.012a2.351,2.351,0,0,0,2.284-1.285c.349-.567.645-1.167.964-1.752.267-.113.286.016.221.226a15.825,15.825,0,0,0-.28,1.642.941.941,0,0,0,1.035,1.146c1.312.035,2.627.01,4.027.01a3.75,3.75,0,0,1-.215-2.5Q281.239,454.944,282.45,448.723Zm-6.594,10.256a.477.477,0,0,1-.549.417c-1.075,0-2.153.033-3.226-.017a1.07,1.07,0,0,1-1.112-1.253,6.341,6.341,0,0,1,1.108-3.217,1.352,1.352,0,0,1,1.172-.53c.89-.008,1.78-.008,2.67-.01h.928C276.491,456.017,276.165,457.5,275.857,458.978Z" transform="translate(-70.759 -2.055)" fill="#fffefe"/>
    <path id="Path_31" data-name="Path 31" d="M430.006,445.184c-2.154-.006-4.309-.01-6.463,0-.551,0-1.283-.252-1.612.117-.422.475-.323,1.265-.352,1.926a.922.922,0,0,0,.883,1.077,4.632,4.632,0,0,0,.887.047c1.263,0,2.526,0,3.789,0,1.2.008,1.463.251,1.443,1.293-.02,1.12-.236,1.327-1.406,1.329-1.56,0-3.12-.007-4.68,0-.407,0-.815.037-1.221.079a2.5,2.5,0,0,0-2.132,1.565,18.709,18.709,0,0,0-.962,2.486,16.4,16.4,0,0,0-.813,5.7,2.616,2.616,0,0,0,2.886,2.809c.334,0,.669.006,1,0,2.266-.045,2.558.6,4.211-2.373a1.123,1.123,0,0,1,.152-.247l0,0c.161-.063.174-.27.33-.336-.125.2.053.427-.055.628l-.061.388c-.149.217-.023.5-.172.717.3,1.07.383,1.195,1.153,1.212,1.3.029,2.593.008,3.981.008a4.045,4.045,0,0,1-.2-2.566c.081-.474.2-.942.3-1.414.711-3.6,1.441-7.2,2.119-10.811C433.454,446.445,432.393,445.189,430.006,445.184Zm-3.517,13.685a.55.55,0,0,1-.619.5c-1.039-.01-2.08.027-3.118-.015-.8-.032-1.133-.409-1.147-1.2a6.054,6.054,0,0,1,.975-3.146,1.275,1.275,0,0,1,1.108-.65c1.22-.022,2.441-.008,3.752-.008C427.11,455.91,426.8,457.388,426.489,458.869Z" transform="translate(-117.567 -2.022)" fill="#fff"/>
    <path id="Path_32" data-name="Path 32" d="M173.378,445.179c-2.22.116-4.451.024-6.678.023-1.46,0-1.46,0-1.643,1.412s.086,1.749,1.487,1.764c1.373.014,2.746-.01,4.119.007,1.127.014,1.379.3,1.336,1.405-.037.966-.291,1.213-1.293,1.217-1.744.006-3.488,0-5.232,0a3.067,3.067,0,0,0-3.164,2.122,23.7,23.7,0,0,0-1.339,4.575,10.678,10.678,0,0,0-.133,3.648,2.473,2.473,0,0,0,2.562,2.283c.853.028,1.709-.037,2.56.017a2.348,2.348,0,0,0,2.277-1.292c.309-.5.584-1.03.875-1.547.336-.167.312.032.261.258-.083.436-.194.868-.241,1.308a.99.99,0,0,0,1.05,1.248c1.311.035,2.624.01,4.023.01a3.769,3.769,0,0,1-.205-2.5c.347-1.707.672-3.419,1.011-5.127.469-2.363.928-4.727,1.421-7.084C176.816,447.092,176.086,445.038,173.378,445.179Zm-3.441,13.573a.705.705,0,0,1-.848.644c-.927-.037-1.858.008-2.785-.019-1-.03-1.4-.489-1.3-1.5a6.968,6.968,0,0,1,.911-2.724,1.414,1.414,0,0,1,1.266-.777c1.185-.021,2.37-.006,3.669-.006C170.521,455.923,170.22,457.335,169.937,458.752Z" transform="translate(-37.828 -2.043)" fill="#fff"/>
    <path id="Path_33" data-name="Path 33" d="M89.683,447.505a2.481,2.481,0,0,0-2.215-2.038,26.444,26.444,0,0,0-6.883-.077,3.6,3.6,0,0,0-2.863,1.853,15.414,15.414,0,0,0-.829,1.572,24.526,24.526,0,0,0-1.974,7.728,13.259,13.259,0,0,0,.151,4.214c.427,1.882,1.086,2.516,2.975,2.756a52.632,52.632,0,0,0,6.453.114,2.2,2.2,0,0,0,.33-.051,2.12,2.12,0,0,0,1.931-1.726c.268-1.153.529-2.308.831-3.628a4.1,4.1,0,0,1-2,1.077,32.743,32.743,0,0,1-5.34.017c-.975-.081-1.289-.473-1.275-1.466a9.665,9.665,0,0,1,.2-1.88c.245-1.156.055-1,1.165-1,2.3-.009,4.607,0,6.91,0,.26,0,.521.009.78-.009.918-.064,1.089-.185,1.294-1.066.185-.794.357-1.595.462-2.4A10.658,10.658,0,0,0,89.683,447.505Zm-4.836,4.537q-.887,0-1.774,0v0c-.74,0-1.478.009-2.217,0-.782-.012-.815-.064-.561-.836.081-.245.186-.481.285-.72.648-1.564,1.523-2.381,3.916-1.991a1.745,1.745,0,0,1,1.636,1.787,3.522,3.522,0,0,1,0,.553C86.065,452.039,86.063,452.039,84.847,452.042Z" transform="translate(-11.132 -2.053)" fill="#fff"/>
    <path id="Path_34" data-name="Path 34" d="M367.94,447.763a2.534,2.534,0,0,0-2.457-2.316,26.069,26.069,0,0,0-6.771-.043A3.54,3.54,0,0,0,356,447.113a11.884,11.884,0,0,0-.749,1.363,24.988,24.988,0,0,0-2.186,8.573,12.679,12.679,0,0,0,.223,3.877,2.89,2.89,0,0,0,2.565,2.543,38.963,38.963,0,0,0,7.111.1,2.089,2.089,0,0,0,2.015-1.771c.218-.9.387-1.812.578-2.718.059-.238.174-.507-.258-.482a2.989,2.989,0,0,1-1.492.693,30.664,30.664,0,0,1-5.448,0c-.882-.088-1.153-.421-1.177-1.313a12.571,12.571,0,0,1,.256-2.43c.078-.462.247-.627.707-.62,1.263.021,2.525.006,3.788.006,1.411,0,2.823.02,4.233-.007.977-.019,1.124-.163,1.362-1.113a21.585,21.585,0,0,0,.495-2.734A10.583,10.583,0,0,0,367.94,447.763Zm-3.752,4c-.128.252-.337.261-.555.262-1.733,0-3.466,0-5.347,0a7.306,7.306,0,0,1,1.112-2.677c.781-1.187,3.366-1.208,4.271-.482A2.786,2.786,0,0,1,364.188,451.761Z" transform="translate(-97.574 -2.053)" fill="#fff"/>
    <path id="Path_35" data-name="Path 35" d="M210.584,447.5a2.468,2.468,0,0,0-2.21-2.038,24.792,24.792,0,0,0-7.208-.029,3.225,3.225,0,0,0-2.222,1.337,9.22,9.22,0,0,0-.91,1.525,24.011,24.011,0,0,0-2.018,6.791,15.644,15.644,0,0,0-.008,5.751c.406,1.83,1.068,2.425,2.92,2.665a52.538,52.538,0,0,0,6.447.12,2.782,2.782,0,0,0,.439-.07,2.09,2.09,0,0,0,1.843-1.68c.247-1.007.453-2.024.677-3.038.056-.243-.061-.316-.283-.286a2.93,2.93,0,0,1-1.583.749,33.578,33.578,0,0,1-5.226.021c-1.087-.084-1.423-.507-1.374-1.606.03-.665.174-1.324.232-1.988.051-.587.3-.813.922-.8,2.264.034,4.528.013,6.791.014s2.281,0,2.683-2.246A12.669,12.669,0,0,0,210.584,447.5Zm-3.591,3.777c.013.578-.274.757-.824.749-1.591-.024-3.182-.008-4.774-.015a1.754,1.754,0,0,1-.394-.119,8.027,8.027,0,0,1,.785-2.031,3.355,3.355,0,0,1,4.361-1.153,1.648,1.648,0,0,1,.851,1.353C207.028,450.466,206.983,450.875,206.992,451.28Z" transform="translate(-48.706 -2.048)" fill="#fff"/>
    <path id="Path_36" data-name="Path 36" d="M453.76,447.811a2.97,2.97,0,0,0-2.1-2.112,13.665,13.665,0,0,0-5.388-.547,5.637,5.637,0,0,0-3.614,1.771,11.322,11.322,0,0,0-2.119,3.244,18.8,18.8,0,0,0-1.658,7.333c.049.74.082,1.482.15,2.221a3.73,3.73,0,0,0,2.932,3.491,11.014,11.014,0,0,0,2.19.372,7.931,7.931,0,0,0,8.252-5.124,26.258,26.258,0,0,0,1.707-8.018A7.29,7.29,0,0,0,453.76,447.811Zm-6.01,11.575a2.74,2.74,0,0,1-3.127,1.082,2.256,2.256,0,0,1-1.927-2.375,12.234,12.234,0,0,1,.318-2.867,20.122,20.122,0,0,1,1.771-5.246,3.388,3.388,0,0,1,4.278-1.583,1.606,1.606,0,0,1,1.07,1.31c.07.437.068.886.1,1.344A20.4,20.4,0,0,1,447.75,459.387Z" transform="translate(-124.259 -2.016)" fill="#fff"/>
  </g>
</svg>
