<svg xmlns="http://www.w3.org/2000/svg" width="57.409" height="40.905" viewBox="0 0 57.409 40.905">
  <g id="email" transform="translate(0 -33.085)">
    <path id="Path_101" data-name="Path 101" d="M177.406,49c0-.066.045-.129.042-.194L159.929,65.687l17.5,16.342c.01-.117-.021-.234-.021-.354Z" transform="translate(-120.039 -11.8)" fill="#fff"/>
    <path id="Path_102" data-name="Path 102" d="M45.479,126.9l-7.152,6.881a1.87,1.87,0,0,1-2.572.021l-7.132-6.646L11.01,144.133a4.058,4.058,0,0,0,1.369.273h49.3a4.055,4.055,0,0,0,1.968-.542Z" transform="translate(-8.264 -70.416)" fill="#fff"/>
    <path id="Path_103" data-name="Path 103" d="M33.347,59.442,60.084,33.686a4.052,4.052,0,0,0-2.065-.6H8.716a4.063,4.063,0,0,0-2.586.964Z" transform="translate(-4.601)" fill="#fff"/>
    <path id="Path_104" data-name="Path 104" d="M0,52.1V84.147a4.068,4.068,0,0,0,.176,1.062L17.57,68.458Z" transform="translate(0 -14.272)" fill="#fff"/>
  </g>
</svg>
