<svg xmlns="http://www.w3.org/2000/svg" width="158.359" height="158.576" viewBox="0 0 158.359 158.576">
  <g id="classroom" transform="translate(-0.353)">
    <g id="Group_39" data-name="Group 39" transform="translate(65.396 5.193)">
      <g id="Group_38" data-name="Group 38">
        <path id="Path_54" data-name="Path 54" d="M289.941,16.768H213.8a3.436,3.436,0,0,0-3.436,3.436V46.98l3.811-2.366a9.527,9.527,0,0,1,3.061-1.232V23.641H286.5V73.2H217.232V65.182l-6.873,4.267v7.188a3.436,3.436,0,0,0,3.436,3.436h76.146a3.436,3.436,0,0,0,3.436-3.436V20.2A3.436,3.436,0,0,0,289.941,16.768Z" transform="translate(-210.359 -16.768)" fill="#6163a7"/>
      </g>
    </g>
    <g id="Group_41" data-name="Group 41" transform="translate(79.469 23.262)">
      <g id="Group_40" data-name="Group 40">
        <path id="Path_55" data-name="Path 55" d="M271.347,76.112a2.644,2.644,0,0,0-3.712-.439L255.8,85.006a9.5,9.5,0,0,1,2.881,2.951,9.619,9.619,0,0,1,.568,1.063l11.661-9.195A2.643,2.643,0,0,0,271.347,76.112Z" transform="translate(-255.798 -75.106)" fill="#6163a7"/>
      </g>
    </g>
    <g id="Group_43" data-name="Group 43" transform="translate(27.994 0)">
      <g id="Group_42" data-name="Group 42" transform="translate(0 0)">
        <circle id="Ellipse_5" data-name="Ellipse 5" cx="9.891" cy="9.891" r="9.891" fill="#6163a7"/>
      </g>
    </g>
    <g id="Group_45" data-name="Group 45" transform="translate(13.58 22.934)">
      <g id="Group_44" data-name="Group 44">
        <path id="Path_56" data-name="Path 56" d="M107.776,89.745a4.773,4.773,0,0,0-6.572-1.537l-9.665,6c-.04-8.015-.019-3.762-.045-8.923A11.318,11.318,0,0,0,80.2,74.048h-4.7c-4.011,10.4-2.719,6.541-6.124,15.371l1.432-6.235a1.989,1.989,0,0,0-.2-1.372l-1.94-3.529,1.722-3.131a.7.7,0,0,0-.615-1.039h-4.73a.7.7,0,0,0-.615,1.039l1.725,3.137-1.944,3.535a1.992,1.992,0,0,0-.208,1.346l1.24,6.248L59.32,74.048H54.53A11.318,11.318,0,0,0,43.236,85.285l-.176,35.06a4.773,4.773,0,0,0,4.748,4.8h.024a4.772,4.772,0,0,0,4.772-4.748l.176-35.06v-.016a.947.947,0,0,1,1.893.014l0,49.673a15.923,15.923,0,0,1,11.454,4.157V119.782H68.6v22.23a15.968,15.968,0,0,1,.448,17.253,17.381,17.381,0,0,1,4.367.576,15.963,15.963,0,0,1,6.639-3.449c0-86.518-.1-33.024-.1-71.055a1,1,0,0,1,2,0c.017,3.347.069,13.81.088,17.453a4.772,4.772,0,0,0,7.29,4.03l16.912-10.5A4.772,4.772,0,0,0,107.776,89.745Z" transform="translate(-43.06 -74.048)" fill="#6163a7"/>
      </g>
    </g>
    <g id="Group_47" data-name="Group 47" transform="translate(122.712 89.517)">
      <g id="Group_46" data-name="Group 46">
        <circle id="Ellipse_6" data-name="Ellipse 6" cx="10.469" cy="10.469" r="10.469" fill="#6163a7"/>
      </g>
    </g>
    <g id="Group_49" data-name="Group 49" transform="translate(119.883 113.793)">
      <g id="Group_48" data-name="Group 48">
        <path id="Path_57" data-name="Path 57" d="M425.053,379.3A11.981,11.981,0,0,0,413.1,367.407H386.84A15.956,15.956,0,0,1,386.284,383a17.5,17.5,0,0,1,13.984,8.021h12.568V379.424a1.059,1.059,0,0,1,2.115-.072h0l.059,11.664h10.1Z" transform="translate(-386.284 -367.407)" fill="#6163a7"/>
      </g>
    </g>
    <g id="Group_51" data-name="Group 51" transform="translate(68.092 113.678)">
      <g id="Group_50" data-name="Group 50">
        <path id="Path_58" data-name="Path 58" d="M241.18,374.445a15.9,15.9,0,0,1,1.826-7.409H219.693a15.961,15.961,0,0,1-.629,15.412A17.439,17.439,0,0,1,231.54,387.8a17.307,17.307,0,0,1,12.028-4.954A15.979,15.979,0,0,1,241.18,374.445Z" transform="translate(-219.064 -367.036)" fill="#6163a7"/>
      </g>
    </g>
    <g id="Group_53" data-name="Group 53" transform="translate(71.793 89.402)">
      <g id="Group_52" data-name="Group 52">
        <path id="Path_59" data-name="Path 59" d="M241.485,288.655a10.469,10.469,0,1,0,10.469,10.469A10.47,10.47,0,0,0,241.485,288.655Z" transform="translate(-231.015 -288.655)" fill="#6163a7"/>
      </g>
    </g>
    <g id="Group_55" data-name="Group 55" transform="translate(0.353 113.677)">
      <g id="Group_54" data-name="Group 54">
        <path id="Path_60" data-name="Path 60" d="M38.406,374.166a15.9,15.9,0,0,1,1.676-7.117c-.451-.022,1.447-.015-27.715-.015A11.984,11.984,0,0,0,.412,378.928l-.059,11.83h10.1l.059-11.779a1.057,1.057,0,0,1,2.114.005v11.774H26.792a17.4,17.4,0,0,1,14.013-8.178A15.878,15.878,0,0,1,38.406,374.166Z" transform="translate(-0.353 -367.033)" fill="#6163a7"/>
      </g>
    </g>
    <g id="Group_57" data-name="Group 57" transform="translate(15.415 89.402)">
      <g id="Group_56" data-name="Group 56">
        <path id="Path_61" data-name="Path 61" d="M59.452,288.655a10.469,10.469,0,1,0,10.47,10.469A10.47,10.47,0,0,0,59.452,288.655Z" transform="translate(-48.983 -288.655)" fill="#6163a7"/>
      </g>
    </g>
    <g id="Group_59" data-name="Group 59" transform="translate(29.494 134.576)">
      <g id="Group_58" data-name="Group 58" transform="translate(0)">
        <path id="Path_62" data-name="Path 62" d="M196.058,446.681A11.98,11.98,0,0,0,184.1,434.786H157.621a12.282,12.282,0,0,0-12.3,11.894l-.085-.276a11.981,11.981,0,0,0-11.954-11.894H106.8A12.282,12.282,0,0,0,94.5,446.4l-.059,12.106h10.1l.059-12.055a.911.911,0,0,1,1.821,0V458.51h26.757V446.46a.975.975,0,0,1,1.951,0l.059,12.055h20.173l.059-11.779h0a.911.911,0,0,1,1.821.005V458.51H184V446.736a.975.975,0,0,1,1.951-.005l.059,11.779h10.1Z" transform="translate(-94.442 -434.51)" fill="#6163a7"/>
      </g>
    </g>
    <g id="Group_61" data-name="Group 61" transform="translate(44.142 110.178)">
      <g id="Group_60" data-name="Group 60">
        <circle id="Ellipse_7" data-name="Ellipse 7" cx="10.592" cy="10.592" r="10.592" fill="#6163a7"/>
      </g>
    </g>
    <g id="Group_63" data-name="Group 63" transform="translate(95.597 110.453)">
      <g id="Group_62" data-name="Group 62">
        <circle id="Ellipse_8" data-name="Ellipse 8" cx="10.592" cy="10.592" r="10.592" fill="#6163a7"/>
      </g>
    </g>
  </g>
</svg>
