<svg id="whatsapp" xmlns="http://www.w3.org/2000/svg" width="51" height="51" viewBox="0 0 51 51">
  <g id="Group_75" data-name="Group 75">
    <path id="Path_100" data-name="Path 100" d="M25.506,0h-.013A25.484,25.484,0,0,0,4.855,40.446L1.677,49.919l9.8-3.133A25.5,25.5,0,1,0,25.506,0ZM40.344,36.009c-.615,1.737-3.057,3.178-5,3.6-1.332.284-3.073.51-8.931-1.919-7.494-3.1-12.32-10.72-12.7-11.214-.36-.494-3.028-4.032-3.028-7.691a8.141,8.141,0,0,1,2.607-6.206,3.7,3.7,0,0,1,2.607-.915c.316,0,.6.016.854.029.749.032,1.125.076,1.619,1.259.615,1.482,2.113,5.141,2.292,5.518a1.518,1.518,0,0,1,.108,1.38,4.407,4.407,0,0,1-.826,1.17c-.376.434-.733.765-1.109,1.23-.344.4-.733.838-.3,1.587a22.634,22.634,0,0,0,4.137,5.141,18.747,18.747,0,0,0,5.98,3.688,1.612,1.612,0,0,0,1.8-.284,30.854,30.854,0,0,0,1.992-2.639,1.423,1.423,0,0,1,1.83-.555c.688.239,4.332,2.04,5.081,2.413s1.243.555,1.425.87A6.351,6.351,0,0,1,40.344,36.009Z" fill="#fff"/>
  </g>
</svg>
